<svg width="174" height="141" viewBox="0 0 174 141" fill="none" xmlns="http://www.w3.org/2000/svg">
<path d="M59.8996 14.82L55.2296 17.35L56.1996 12.13L52.3496 8.48L57.6096 7.78999L59.8996 3L62.1796 7.78999L67.4396 8.48L63.5896 12.13L64.5596 17.35L59.8996 14.82Z" fill="url(#paint0_linear_2148_18206)"/>
<path d="M52.3496 8.48L59.8996 10.18V3L57.6096 7.78999L52.3496 8.48Z" fill="url(#paint1_radial_2148_18206)"/>
<path d="M59.9004 10.18L67.4404 8.47998L63.5904 12.13L64.5604 17.35L59.9004 10.18Z" fill="url(#paint2_linear_2148_18206)"/>
<path d="M59.9005 10.1802L55.2305 17.3502L59.9005 14.8202V10.1802Z" fill="url(#paint3_linear_2148_18206)"/>
<path d="M113.89 14.82L109.23 17.35L110.2 12.13L106.35 8.48L111.61 7.78999L113.89 3L116.18 7.78999L121.44 8.48L117.59 12.13L118.56 17.35L113.89 14.82Z" fill="url(#paint4_linear_2148_18206)"/>
<path d="M106.35 8.48L113.89 10.18V3L111.61 7.78999L106.35 8.48Z" fill="url(#paint5_radial_2148_18206)"/>
<path d="M113.889 10.18L121.439 8.47998L117.589 12.13L118.559 17.35L113.889 10.18Z" fill="url(#paint6_linear_2148_18206)"/>
<path d="M113.89 10.1802L109.23 17.3502L113.89 14.8202V10.1802Z" fill="url(#paint7_linear_2148_18206)"/>
<path d="M92.2789 16.9102V17.3502C92.2189 17.2602 92.1689 17.1902 92.1289 17.1302C92.2289 16.9902 92.2789 16.9102 92.2789 16.9102Z" fill="url(#paint8_linear_2148_18206)"/>
<path d="M86.5098 139.29C86.3598 139.26 86.1797 139.21 86.0197 139.15C81.8697 137.68 77.6497 135.76 73.5397 133.46C46.8397 118.53 30.2598 89.8502 30.2598 58.6202V22.6502L32.7297 23.2402C38.9697 24.7402 44.9797 25.5002 50.5897 25.5002C73.0097 25.5002 83.2298 13.5902 85.1198 11.1002C85.2098 10.9702 85.2797 10.8702 85.3597 10.7802L87.0797 8.74023L88.6397 11.1002C90.5297 13.5902 100.74 25.5102 123.18 25.5102C128.79 25.5102 134.8 24.7502 141.05 23.2502L143.52 22.6602V58.6202C143.52 89.8502 126.93 118.53 100.23 133.46C96.1197 135.76 91.8998 137.68 87.6898 139.17C87.6098 139.21 87.4397 139.26 87.2797 139.29L86.8897 139.37L86.5098 139.29Z" fill="url(#paint9_linear_2148_18206)"/>
<path d="M141.53 25.1903V58.6103C141.53 88.7803 125.6 116.98 99.2695 131.7C95.4195 133.85 91.3395 135.75 87.0295 137.28C86.9895 137.3 86.9395 137.32 86.8995 137.32C86.8595 137.31 86.7996 137.29 86.7596 137.28C82.4496 135.75 78.3695 133.86 74.5295 131.71C48.1995 116.99 32.2695 88.7903 32.2695 58.6203V25.1903C68.7495 33.9603 84.5296 15.2203 86.7596 12.2703C86.8096 12.1903 86.8595 12.1303 86.8995 12.0703C86.9395 12.1203 86.9795 12.1903 87.0295 12.2703C89.2595 15.2203 105.03 33.9503 141.53 25.1903Z" fill="url(#paint10_linear_2148_18206)"/>
<path d="M42.8906 99.8103C50.1806 112.97 60.9706 124.12 74.5206 131.7C78.3606 133.85 82.4407 135.75 86.7507 137.27C86.7907 137.29 86.8506 137.31 86.8906 137.31C86.9306 137.3 86.9806 137.28 87.0206 137.27C91.3306 135.74 95.4107 133.85 99.2607 131.69C112.821 124.11 123.611 112.95 130.891 99.8003H42.8906V99.8103Z" fill="url(#paint11_linear_2148_18206)"/>
<path d="M141.53 25.1903V58.6103C141.53 88.7803 125.6 116.98 99.2695 131.7C95.4195 133.85 91.3395 135.75 87.0295 137.28C86.9895 137.3 86.9395 137.32 86.8995 137.32C86.8595 137.31 86.7996 137.29 86.7596 137.28C82.4496 135.75 78.3695 133.86 74.5295 131.71C48.1995 116.99 32.2695 88.7903 32.2695 58.6203V25.1903C68.7495 33.9603 84.5296 15.2203 86.7596 12.2703C86.8096 12.1903 86.8595 12.1303 86.8995 12.0703C86.9395 12.1203 86.9795 12.1903 87.0295 12.2703C89.2595 15.2203 105.03 33.9503 141.53 25.1903Z" stroke="url(#paint12_linear_2148_18206)" stroke-width="0.8119" stroke-miterlimit="10"/>
<g opacity="0.7">
<path d="M86.8895 25.9903C94.0095 31.4703 105.8 37.5103 123.19 37.5103C125.89 37.5103 128.69 37.3603 131.53 37.0603V58.6103C131.53 85.5003 117.3 110.16 94.3895 122.98C91.9295 124.36 89.4095 125.58 86.8995 126.63C84.3895 125.59 81.8795 124.36 79.4095 122.99C56.4995 110.18 42.2695 85.5203 42.2695 58.6203V37.0603C45.1095 37.3603 47.8995 37.5103 50.5995 37.5103C67.9795 37.5003 79.7695 31.4603 86.8895 25.9903ZM86.8895 20.8403L85.6196 21.8803C79.1796 27.1803 67.8695 33.5003 50.5995 33.5003C47.3595 33.5003 43.9695 33.2703 40.5295 32.8203L38.2695 32.5203V58.6103C38.2695 86.9503 53.2895 112.95 77.4595 126.47C80.3095 128.07 83.2395 129.47 86.1595 130.64L86.8995 130.94L87.6495 130.64C90.5695 129.47 93.4995 128.06 96.3495 126.47C120.52 112.95 135.54 86.9503 135.54 58.6103V32.5303L133.28 32.8203C129.84 33.2703 126.45 33.5003 123.2 33.5003C105.92 33.5003 94.6096 27.1803 88.1696 21.8803L86.8895 20.8403Z" fill="url(#paint13_linear_2148_18206)"/>
</g>
<path d="M86.8895 128.78C84.0495 127.64 81.2096 126.28 78.4296 124.72C54.8896 111.56 40.2695 86.2302 40.2695 58.6102V34.8002C43.8095 35.2602 47.2595 35.5002 50.5995 35.5002C68.5495 35.5002 80.2995 28.8502 86.8895 23.4302C93.4795 28.8502 105.23 35.5002 123.19 35.5002C126.53 35.5002 129.99 35.2702 133.53 34.8002V58.6002C133.53 86.2102 118.91 111.55 95.3596 124.71C92.5696 126.28 89.7295 127.64 86.8895 128.78Z" fill="url(#paint14_radial_2148_18206)"/>
<path d="M50.5995 37.5002C47.8995 37.5002 45.1095 37.3502 42.2695 37.0502V58.6102C42.2695 85.5002 56.4995 110.17 79.4095 122.97C81.7895 124.3 84.2095 125.48 86.6395 126.5V26.1802C79.4895 31.6002 67.7695 37.5002 50.5995 37.5002Z" fill="url(#paint15_radial_2148_18206)"/>
<path d="M123.189 37.5005C105.809 37.5005 94.0089 31.4605 86.8889 25.9805C86.8089 26.0405 86.7089 26.1105 86.6289 26.1705V126.5C86.7189 126.54 86.7989 126.58 86.8889 126.61C89.3989 125.57 91.9189 124.34 94.3789 122.96C117.289 110.15 131.519 85.4905 131.519 58.5905V37.0405C128.689 37.3505 125.889 37.5005 123.189 37.5005Z" fill="url(#paint16_radial_2148_18206)"/>
<path d="M86.8895 128.78C84.0495 127.64 81.2096 126.28 78.4296 124.72C54.8896 111.56 40.2695 86.2302 40.2695 58.6102V34.8002C43.8095 35.2602 47.2595 35.5002 50.5995 35.5002C68.5495 35.5002 80.2995 28.8502 86.8895 23.4302C93.4795 28.8502 105.23 35.5002 123.19 35.5002C126.53 35.5002 129.99 35.2702 133.53 34.8002V58.6002C133.53 86.2102 118.91 111.55 95.3596 124.71C92.5696 126.28 89.7295 127.64 86.8895 128.78Z" stroke="url(#paint17_linear_2148_18206)" stroke-width="0.5" stroke-miterlimit="10"/>
<path d="M135.529 32.5303V58.6103C135.529 86.9503 120.509 112.95 96.3387 126.47C93.4887 128.07 90.5587 129.47 87.6387 130.64" stroke="url(#paint18_linear_2148_18206)" stroke-width="0.8119" stroke-miterlimit="10"/>
<path d="M92.1288 17.1302C92.0788 17.1902 92.0287 17.2602 91.9688 17.3502V16.9102C91.9688 16.9102 92.0188 16.9902 92.1288 17.1302Z" fill="url(#paint19_linear_2148_18206)"/>
<path d="M46.0193 69.9199C46.0193 69.9199 45.0794 73.0299 41.6194 73.0899L31.1594 71.0899C31.1594 71.0899 31.1594 71.0799 31.1494 71.0699C30.9294 69.5199 30.7394 67.9599 30.6094 66.3899C30.6194 66.3699 30.6294 66.3599 30.6494 66.3399C32.0894 64.8799 39.9694 65.7999 39.9694 65.7999L43.5694 60.1899L44.4094 60.8399L46.0193 69.9199Z" fill="url(#paint20_linear_2148_18206)"/>
<path d="M48.4903 83.9503C48.4903 83.9503 48.2403 85.8402 45.6303 86.9602L34.8003 86.4402C34.0503 84.2102 33.3903 81.9502 32.8203 79.6602C34.4703 79.1702 36.2503 79.1002 36.8103 79.1302C37.8803 79.1902 46.0303 74.9902 46.0303 74.9902L46.7303 75.5802L48.4903 83.9503Z" fill="url(#paint21_linear_2148_18206)"/>
<path d="M50.0397 93.9199C50.0397 93.9199 49.5797 95.3999 47.6697 96.0799C47.6697 96.0799 41.4297 96.8299 39.4197 97.5399H39.4097C38.6497 96.0099 37.9298 94.4599 37.2598 92.8799C38.7798 90.8799 40.7198 90.3899 42.0098 90.5399C43.3398 90.6999 48.1097 87.8999 48.1097 87.8999L48.7097 88.4899L50.0397 93.9199Z" fill="url(#paint22_linear_2148_18206)"/>
<path d="M45.13 69.9201L43.57 60.1901L2 42.3101L5.80002 60.1901L45.13 69.9201Z" fill="url(#paint23_linear_2148_18206)"/>
<path d="M46.0309 74.9899L13.6309 67.4399L16.3809 80.1499L47.6709 83.7299L46.0309 74.9899Z" fill="url(#paint24_linear_2148_18206)"/>
<path d="M48.1105 87.8999L26.0605 86.4399L27.8705 94.6499L49.3806 93.5599L48.1105 87.8999Z" fill="url(#paint25_linear_2148_18206)"/>
<path d="M45.1291 69.9199C44.3391 71.1499 42.8191 71.7099 41.4191 71.2699L5.78906 60.1899L45.1291 69.9199Z" fill="url(#paint26_linear_2148_18206)"/>
<path d="M47.6709 83.7299C46.8109 85.0499 45.2408 85.7199 43.7008 85.4199L16.3809 80.1499L47.6709 83.7299Z" fill="url(#paint27_linear_2148_18206)"/>
<path d="M49.3792 93.5601C48.5792 94.5001 47.3991 95.0401 46.1591 95.0101L27.8691 94.6501L49.3792 93.5601Z" fill="url(#paint28_linear_2148_18206)"/>
<path d="M2 42.3101L3.77002 50.6401L44.41 65.3901L43.57 60.1901L2 42.3101Z" fill="url(#paint29_radial_2148_18206)"/>
<path d="M13.6309 67.4399L46.0309 74.9899L46.7309 78.7499L14.9509 73.5599L13.6309 67.4399Z" fill="url(#paint30_radial_2148_18206)"/>
<path d="M26.0605 86.4399L48.1105 87.8999L48.7105 90.5499H26.9705L26.0605 86.4399Z" fill="url(#paint31_radial_2148_18206)"/>
<path d="M127.77 69.9199C127.77 69.9199 128.71 73.0299 132.17 73.0899L142.63 71.0899C142.63 71.0899 142.63 71.0799 142.64 71.0699C142.86 69.5199 143.05 67.9599 143.18 66.3899C143.17 66.3699 143.16 66.3599 143.14 66.3399C141.7 64.8799 133.82 65.7999 133.82 65.7999L130.22 60.1899L129.38 60.8399L127.77 69.9199Z" fill="url(#paint32_linear_2148_18206)"/>
<path d="M125.301 83.9503C125.301 83.9503 125.551 85.8402 128.161 86.9602L138.991 86.4402C139.741 84.2102 140.401 81.9502 140.971 79.6602C139.321 79.1702 137.541 79.1002 136.981 79.1302C135.911 79.1902 127.761 74.9902 127.761 74.9902L127.061 75.5802L125.301 83.9503Z" fill="url(#paint33_linear_2148_18206)"/>
<path d="M123.75 93.9199C123.75 93.9199 124.21 95.3999 126.12 96.0799C126.12 96.0799 132.36 96.8299 134.37 97.5399H134.38C135.14 96.0099 135.86 94.4599 136.53 92.8799C135.01 90.8799 133.07 90.3899 131.78 90.5399C130.45 90.6999 125.68 87.8999 125.68 87.8999L125.08 88.4899L123.75 93.9199Z" fill="url(#paint34_linear_2148_18206)"/>
<path d="M128.66 69.9201L130.22 60.1901L171.79 42.3101L167.99 60.1901L128.66 69.9201Z" fill="url(#paint35_linear_2148_18206)"/>
<path d="M127.761 74.9899L160.171 67.4399L157.411 80.1499L126.121 83.7299L127.761 74.9899Z" fill="url(#paint36_linear_2148_18206)"/>
<path d="M125.68 87.8999L147.73 86.4399L145.92 94.6499L124.41 93.5599L125.68 87.8999Z" fill="url(#paint37_linear_2148_18206)"/>
<path d="M128.66 69.9199C129.45 71.1499 130.97 71.7099 132.37 71.2699L168 60.1899L128.66 69.9199Z" fill="url(#paint38_linear_2148_18206)"/>
<path d="M126.121 83.7299C126.981 85.0499 128.551 85.7199 130.091 85.4199L157.411 80.1499L126.121 83.7299Z" fill="url(#paint39_linear_2148_18206)"/>
<path d="M124.41 93.5601C125.21 94.5001 126.39 95.0401 127.63 95.0101L145.91 94.6501L124.41 93.5601Z" fill="url(#paint40_linear_2148_18206)"/>
<path d="M171.791 42.3101L170.021 50.6401L129.391 65.3901L130.221 60.1901L171.791 42.3101Z" fill="url(#paint41_radial_2148_18206)"/>
<path d="M160.171 67.4399L127.761 74.9899L127.061 78.7499L158.841 73.5599L160.171 67.4399Z" fill="url(#paint42_radial_2148_18206)"/>
<path d="M147.73 86.4399L125.68 87.8999L125.09 90.5499H146.82L147.73 86.4399Z" fill="url(#paint43_radial_2148_18206)"/>
<path d="M79.6152 107.2L71.0152 103.4C70.8152 102.267 70.6819 101.167 70.6152 100.1C70.5486 99.0333 70.5152 98 70.5152 97C70.5152 93.0667 71.2152 89.6667 72.6152 86.8C74.0819 83.8667 76.3152 81.2 79.3152 78.8L86.2152 73.3C88.2819 71.6333 89.8819 70.0667 91.0152 68.6C92.2152 67.0667 93.0486 65.3667 93.5152 63.5C93.9819 61.6333 94.2152 59.3333 94.2152 56.6C94.2152 53.8667 93.0819 52.5 90.8152 52.5C87.3486 52.5 84.7152 53.5333 82.9152 55.6C81.1819 57.6 80.3152 61.1 80.3152 66.1L78.8152 66.7L70.6152 62.2C70.6152 55.8667 72.1152 51.1333 75.1152 48C78.1152 44.8667 81.8152 43.3 86.2152 43.3C87.8819 43.3 89.6819 43.9 91.6152 45.1C93.6152 46.2333 95.4819 47.7333 97.2152 49.6C99.0152 51.4 100.482 53.3 101.615 55.3C102.749 57.2333 103.315 59 103.315 60.6C103.315 63.2667 103.115 65.7333 102.715 68C102.315 70.2 101.449 72.3 100.115 74.3C98.8486 76.3 96.9152 78.3333 94.3152 80.4L87.2152 86.1C86.0819 86.9667 85.0152 87.9 84.0152 88.9C83.0152 89.9 82.2152 90.9667 81.6152 92.1C83.0152 94.1 84.5486 95.4333 86.2152 96.1C87.9486 96.7667 89.7152 97.1 91.5152 97.1C93.6486 97.1 95.4819 96.6 97.0152 95.6C98.5486 94.5333 99.7486 93.4 100.615 92.2H102.215L107.615 102.3C106.549 103.833 105.082 105.067 103.215 106C101.415 106.933 99.2819 107.4 96.8152 107.4C90.1486 107.4 84.6819 104.133 80.4152 97.6C80.2819 98 80.2152 98.7667 80.2152 99.9C80.2152 100.767 80.2486 101.7 80.3152 102.7C80.4486 103.7 80.6486 104.767 80.9152 105.9L79.6152 107.2Z" fill="url(#paint44_radial_2148_18206)"/>
<defs>
<linearGradient id="paint0_linear_2148_18206" x1="56.8016" y1="5.5175" x2="63.1739" y2="15.9145" gradientUnits="userSpaceOnUse">
<stop offset="0.1716" stop-color="#FFF1A3"/>
<stop offset="0.1875" stop-color="#FCE594"/>
<stop offset="0.221" stop-color="#F6D17B"/>
<stop offset="0.2585" stop-color="#F2C168"/>
<stop offset="0.3018" stop-color="#EFB65A"/>
<stop offset="0.356" stop-color="#EEB052"/>
<stop offset="0.4553" stop-color="#EDAE50"/>
<stop offset="0.5432" stop-color="#EEB153"/>
<stop offset="0.6123" stop-color="#F0B95D"/>
<stop offset="0.6751" stop-color="#F5C76E"/>
<stop offset="0.7338" stop-color="#FBDA85"/>
<stop offset="0.7636" stop-color="#FFE794"/>
<stop offset="1" stop-color="#B77946"/>
</linearGradient>
<radialGradient id="paint1_radial_2148_18206" cx="0" cy="0" r="1" gradientUnits="userSpaceOnUse" gradientTransform="translate(57.6165 4.1634) scale(12.5169 12.5169)">
<stop stop-color="#F3E8DE"/>
<stop offset="0.5391" stop-color="#F6EEE7" stop-opacity="0.3616"/>
<stop offset="0.9624" stop-color="#F8F1EB" stop-opacity="0"/>
</radialGradient>
<linearGradient id="paint2_linear_2148_18206" x1="69.7056" y1="18.5431" x2="61.4914" y2="6.07335" gradientUnits="userSpaceOnUse">
<stop offset="0.002793" stop-color="#B77946" stop-opacity="0"/>
<stop offset="0.1828" stop-color="#FFF1A3"/>
<stop offset="0.3443" stop-color="#E7C883"/>
<stop offset="0.5097" stop-color="#D2A669"/>
<stop offset="0.6667" stop-color="#C38D56"/>
<stop offset="0.8101" stop-color="#BA7E4A"/>
<stop offset="0.9274" stop-color="#B77946"/>
</linearGradient>
<linearGradient id="paint3_linear_2148_18206" x1="56.6139" y1="19.9778" x2="61.1003" y2="1.63617" gradientUnits="userSpaceOnUse">
<stop offset="0.002793" stop-color="#B77946" stop-opacity="0"/>
<stop offset="0.1828" stop-color="#FFF1A3"/>
<stop offset="0.3443" stop-color="#E7C883"/>
<stop offset="0.5097" stop-color="#D2A669"/>
<stop offset="0.6667" stop-color="#C38D56"/>
<stop offset="0.8101" stop-color="#BA7E4A"/>
<stop offset="0.9274" stop-color="#B77946"/>
</linearGradient>
<linearGradient id="paint4_linear_2148_18206" x1="110.8" y1="5.5175" x2="117.172" y2="15.9145" gradientUnits="userSpaceOnUse">
<stop offset="0.1716" stop-color="#FFF1A3"/>
<stop offset="0.1875" stop-color="#FCE594"/>
<stop offset="0.221" stop-color="#F6D17B"/>
<stop offset="0.2585" stop-color="#F2C168"/>
<stop offset="0.3018" stop-color="#EFB65A"/>
<stop offset="0.356" stop-color="#EEB052"/>
<stop offset="0.4553" stop-color="#EDAE50"/>
<stop offset="0.5432" stop-color="#EEB153"/>
<stop offset="0.6123" stop-color="#F0B95D"/>
<stop offset="0.6751" stop-color="#F5C76E"/>
<stop offset="0.7338" stop-color="#FBDA85"/>
<stop offset="0.7636" stop-color="#FFE794"/>
<stop offset="1" stop-color="#B77946"/>
</linearGradient>
<radialGradient id="paint5_radial_2148_18206" cx="0" cy="0" r="1" gradientUnits="userSpaceOnUse" gradientTransform="translate(111.614 4.1634) scale(12.517 12.517)">
<stop stop-color="#F3E8DE"/>
<stop offset="0.5391" stop-color="#F6EEE7" stop-opacity="0.3616"/>
<stop offset="0.9624" stop-color="#F8F1EB" stop-opacity="0"/>
</radialGradient>
<linearGradient id="paint6_linear_2148_18206" x1="123.702" y1="18.5431" x2="115.488" y2="6.07334" gradientUnits="userSpaceOnUse">
<stop offset="0.002793" stop-color="#B77946" stop-opacity="0"/>
<stop offset="0.1828" stop-color="#FFF1A3"/>
<stop offset="0.3443" stop-color="#E7C883"/>
<stop offset="0.5097" stop-color="#D2A669"/>
<stop offset="0.6667" stop-color="#C38D56"/>
<stop offset="0.8101" stop-color="#BA7E4A"/>
<stop offset="0.9274" stop-color="#B77946"/>
</linearGradient>
<linearGradient id="paint7_linear_2148_18206" x1="110.612" y1="19.9778" x2="115.098" y2="1.63618" gradientUnits="userSpaceOnUse">
<stop offset="0.002793" stop-color="#B77946" stop-opacity="0"/>
<stop offset="0.1828" stop-color="#FFF1A3"/>
<stop offset="0.3443" stop-color="#E7C883"/>
<stop offset="0.5097" stop-color="#D2A669"/>
<stop offset="0.6667" stop-color="#C38D56"/>
<stop offset="0.8101" stop-color="#BA7E4A"/>
<stop offset="0.9274" stop-color="#B77946"/>
</linearGradient>
<linearGradient id="paint8_linear_2148_18206" x1="92.129" y1="17.1308" x2="92.2791" y2="17.1308" gradientUnits="userSpaceOnUse">
<stop stop-color="#B77946"/>
<stop offset="0.2364" stop-color="#FFE794"/>
<stop offset="0.2662" stop-color="#FBDA85"/>
<stop offset="0.3249" stop-color="#F5C76E"/>
<stop offset="0.3877" stop-color="#F0B95D"/>
<stop offset="0.4568" stop-color="#EEB153"/>
<stop offset="0.5447" stop-color="#EDAE50"/>
<stop offset="0.644" stop-color="#EEB052"/>
<stop offset="0.6982" stop-color="#EFB65A"/>
<stop offset="0.7415" stop-color="#F2C168"/>
<stop offset="0.779" stop-color="#F6D17B"/>
<stop offset="0.8125" stop-color="#FCE594"/>
<stop offset="0.8284" stop-color="#FFF1A3"/>
<stop offset="0.857" stop-color="#F7E398"/>
<stop offset="0.911" stop-color="#E1BF7C"/>
<stop offset="0.984" stop-color="#BE844F"/>
<stop offset="0.9972" stop-color="#B77946"/>
</linearGradient>
<linearGradient id="paint9_linear_2148_18206" x1="30.2647" y1="74.0497" x2="143.526" y2="74.0497" gradientUnits="userSpaceOnUse">
<stop offset="0.002793" stop-color="#B77946"/>
<stop offset="0.1828" stop-color="#FFF1A3"/>
<stop offset="0.1899" stop-color="#F2DC93"/>
<stop offset="0.2026" stop-color="#E0BE7B"/>
<stop offset="0.2165" stop-color="#D1A468"/>
<stop offset="0.2319" stop-color="#C59159"/>
<stop offset="0.2497" stop-color="#BD834E"/>
<stop offset="0.272" stop-color="#B87B48"/>
<stop offset="0.3128" stop-color="#B77946"/>
<stop offset="0.3308" stop-color="#BF8148"/>
<stop offset="0.4113" stop-color="#E0A24E"/>
<stop offset="0.4553" stop-color="#EDAE50"/>
<stop offset="1" stop-color="#613F1B"/>
</linearGradient>
<linearGradient id="paint10_linear_2148_18206" x1="32.2644" y1="74.6964" x2="141.526" y2="74.6964" gradientUnits="userSpaceOnUse">
<stop stop-color="#B77946"/>
<stop offset="0.2364" stop-color="#FFE794"/>
<stop offset="0.2662" stop-color="#FBDA85"/>
<stop offset="0.3249" stop-color="#F5C76E"/>
<stop offset="0.3877" stop-color="#F0B95D"/>
<stop offset="0.4568" stop-color="#EEB153"/>
<stop offset="0.5447" stop-color="#EDAE50"/>
<stop offset="0.644" stop-color="#EEB052"/>
<stop offset="0.6982" stop-color="#EFB65A"/>
<stop offset="0.7415" stop-color="#F2C168"/>
<stop offset="0.779" stop-color="#F6D17B"/>
<stop offset="0.8125" stop-color="#FCE594"/>
<stop offset="0.8284" stop-color="#FFF1A3"/>
<stop offset="0.857" stop-color="#F7E398"/>
<stop offset="0.911" stop-color="#E1BF7C"/>
<stop offset="0.984" stop-color="#BE844F"/>
<stop offset="0.9972" stop-color="#B77946"/>
</linearGradient>
<linearGradient id="paint11_linear_2148_18206" x1="86.8944" y1="133.562" x2="86.8944" y2="99.0959" gradientUnits="userSpaceOnUse">
<stop offset="0.002793" stop-color="#B77946" stop-opacity="0"/>
<stop offset="0.9274" stop-color="#B77946"/>
</linearGradient>
<linearGradient id="paint12_linear_2148_18206" x1="31.8584" y1="74.5642" x2="141.932" y2="74.5642" gradientUnits="userSpaceOnUse">
<stop stop-color="#B77946"/>
<stop offset="0.2364" stop-color="#FFE794"/>
<stop offset="0.2662" stop-color="#FBDA85"/>
<stop offset="0.3249" stop-color="#F5C76E"/>
<stop offset="0.3877" stop-color="#F0B95D"/>
<stop offset="0.4568" stop-color="#EEB153"/>
<stop offset="0.5447" stop-color="#EDAE50"/>
<stop offset="0.644" stop-color="#EEB052"/>
<stop offset="0.6982" stop-color="#EFB65A"/>
<stop offset="0.7415" stop-color="#F2C168"/>
<stop offset="0.779" stop-color="#F6D17B"/>
<stop offset="0.8125" stop-color="#FCE594"/>
<stop offset="0.8284" stop-color="#FFF1A3"/>
<stop offset="0.857" stop-color="#F7E398"/>
<stop offset="0.911" stop-color="#E1BF7C"/>
<stop offset="0.984" stop-color="#BE844F"/>
<stop offset="0.9972" stop-color="#B77946"/>
</linearGradient>
<linearGradient id="paint13_linear_2148_18206" x1="38.2644" y1="75.8894" x2="135.526" y2="75.8894" gradientUnits="userSpaceOnUse">
<stop stop-color="#B77946"/>
<stop offset="0.4497" stop-color="#EDAE50"/>
<stop offset="0.5105" stop-color="#EBAC4F"/>
<stop offset="0.5436" stop-color="#E3A54D"/>
<stop offset="0.5701" stop-color="#D59A49"/>
<stop offset="0.5931" stop-color="#C28A44"/>
<stop offset="0.6136" stop-color="#A9753D"/>
<stop offset="0.6324" stop-color="#8A5C35"/>
<stop offset="0.6341" stop-color="#875934"/>
<stop offset="1" stop-color="#FFF1A3"/>
</linearGradient>
<radialGradient id="paint14_radial_2148_18206" cx="0" cy="0" r="1" gradientUnits="userSpaceOnUse" gradientTransform="translate(86.8953 76.1065) scale(49.7444)">
<stop stop-color="#FEFEFE"/>
<stop offset="0.3868" stop-color="#EBDFD2"/>
<stop offset="0.7903" stop-color="#DAC3AA"/>
<stop offset="1" stop-color="#D4B89B"/>
</radialGradient>
<radialGradient id="paint15_radial_2148_18206" cx="0" cy="0" r="1" gradientUnits="userSpaceOnUse" gradientTransform="translate(60.4868 31.6694) scale(81.4419 81.4419)">
<stop stop-color="#FAF7F4"/>
<stop offset="0.9972" stop-color="#F5F0E8" stop-opacity="0"/>
</radialGradient>
<radialGradient id="paint16_radial_2148_18206" cx="0" cy="0" r="1" gradientUnits="userSpaceOnUse" gradientTransform="translate(139.558 67.9912) scale(50.8568 50.8569)">
<stop stop-color="#EDAE50"/>
<stop offset="0.1105" stop-color="#DFA44B" stop-opacity="0.8892"/>
<stop offset="0.3188" stop-color="#BB893F" stop-opacity="0.6803"/>
<stop offset="0.6028" stop-color="#805D2C" stop-opacity="0.3955"/>
<stop offset="0.9483" stop-color="#2F2111" stop-opacity="0.0491"/>
<stop offset="0.9972" stop-color="#23180D" stop-opacity="0"/>
</radialGradient>
<linearGradient id="paint17_linear_2148_18206" x1="40.0144" y1="76.0794" x2="133.776" y2="76.0794" gradientUnits="userSpaceOnUse">
<stop stop-color="#B77946"/>
<stop offset="0.1034" stop-color="#EDAE50"/>
<stop offset="0.1954" stop-color="#E2A54D"/>
<stop offset="0.355" stop-color="#C68E45"/>
<stop offset="0.5617" stop-color="#996839"/>
<stop offset="0.6341" stop-color="#875934"/>
<stop offset="0.6378" stop-color="#8A5D37"/>
<stop offset="0.6745" stop-color="#A98454"/>
<stop offset="0.7138" stop-color="#C4A66C"/>
<stop offset="0.7555" stop-color="#D9C180"/>
<stop offset="0.8006" stop-color="#EAD790"/>
<stop offset="0.8507" stop-color="#F6E69B"/>
<stop offset="0.9097" stop-color="#FDEEA1"/>
<stop offset="1" stop-color="#FFF1A3"/>
</linearGradient>
<linearGradient id="paint18_linear_2148_18206" x1="87.4835" y1="81.7711" x2="135.931" y2="81.7711" gradientUnits="userSpaceOnUse">
<stop stop-color="#B77946"/>
<stop offset="0.2364" stop-color="#FFE794"/>
<stop offset="0.2662" stop-color="#FBDA85"/>
<stop offset="0.3249" stop-color="#F5C76E"/>
<stop offset="0.3877" stop-color="#F0B95D"/>
<stop offset="0.4568" stop-color="#EEB153"/>
<stop offset="0.5447" stop-color="#EDAE50"/>
<stop offset="0.644" stop-color="#EEB052"/>
<stop offset="0.6982" stop-color="#EFB65A"/>
<stop offset="0.7415" stop-color="#F2C168"/>
<stop offset="0.779" stop-color="#F6D17B"/>
<stop offset="0.8125" stop-color="#FCE594"/>
<stop offset="0.8284" stop-color="#FFF1A3"/>
<stop offset="0.857" stop-color="#F7E398"/>
<stop offset="0.911" stop-color="#E1BF7C"/>
<stop offset="0.984" stop-color="#BE844F"/>
<stop offset="0.9972" stop-color="#B77946"/>
</linearGradient>
<linearGradient id="paint19_linear_2148_18206" x1="91.969" y1="17.1308" x2="92.1289" y2="17.1308" gradientUnits="userSpaceOnUse">
<stop stop-color="#B77946"/>
<stop offset="0.2364" stop-color="#FFE794"/>
<stop offset="0.2662" stop-color="#FBDA85"/>
<stop offset="0.3249" stop-color="#F5C76E"/>
<stop offset="0.3877" stop-color="#F0B95D"/>
<stop offset="0.4568" stop-color="#EEB153"/>
<stop offset="0.5447" stop-color="#EDAE50"/>
<stop offset="0.644" stop-color="#EEB052"/>
<stop offset="0.6982" stop-color="#EFB65A"/>
<stop offset="0.7415" stop-color="#F2C168"/>
<stop offset="0.779" stop-color="#F6D17B"/>
<stop offset="0.8125" stop-color="#FCE594"/>
<stop offset="0.8284" stop-color="#FFF1A3"/>
<stop offset="0.857" stop-color="#F7E398"/>
<stop offset="0.911" stop-color="#E1BF7C"/>
<stop offset="0.984" stop-color="#BE844F"/>
<stop offset="0.9972" stop-color="#B77946"/>
</linearGradient>
<linearGradient id="paint20_linear_2148_18206" x1="30.6095" y1="66.6405" x2="46.0195" y2="66.6405" gradientUnits="userSpaceOnUse">
<stop offset="0.002793" stop-color="#B77946" stop-opacity="0"/>
<stop offset="0.0411" stop-color="#B77946" stop-opacity="0.0414"/>
<stop offset="0.9274" stop-color="#B77946"/>
</linearGradient>
<linearGradient id="paint21_linear_2148_18206" x1="32.8204" y1="80.9758" x2="48.4904" y2="80.9758" gradientUnits="userSpaceOnUse">
<stop offset="0.002793" stop-color="#B77946" stop-opacity="0"/>
<stop offset="0.0411" stop-color="#B77946" stop-opacity="0.0414"/>
<stop offset="0.9274" stop-color="#B77946"/>
</linearGradient>
<linearGradient id="paint22_linear_2148_18206" x1="37.26" y1="92.7205" x2="50.0399" y2="92.7205" gradientUnits="userSpaceOnUse">
<stop offset="0.002793" stop-color="#B77946" stop-opacity="0"/>
<stop offset="0.0411" stop-color="#B77946" stop-opacity="0.0414"/>
<stop offset="0.9274" stop-color="#B77946"/>
</linearGradient>
<linearGradient id="paint23_linear_2148_18206" x1="13.9014" y1="47.1167" x2="55.2995" y2="97.2962" gradientUnits="userSpaceOnUse">
<stop offset="0.2364" stop-color="#FFE794"/>
<stop offset="0.2662" stop-color="#FBDA85"/>
<stop offset="0.3249" stop-color="#F5C76E"/>
<stop offset="0.3877" stop-color="#F0B95D"/>
<stop offset="0.4568" stop-color="#EEB153"/>
<stop offset="0.5447" stop-color="#EDAE50"/>
<stop offset="0.644" stop-color="#EEB052"/>
<stop offset="0.6982" stop-color="#EFB65A"/>
<stop offset="0.7415" stop-color="#F2C168"/>
<stop offset="0.779" stop-color="#F6D17B"/>
<stop offset="0.8125" stop-color="#FCE594"/>
<stop offset="0.8284" stop-color="#FFF1A3"/>
<stop offset="0.857" stop-color="#F7E398"/>
<stop offset="0.911" stop-color="#E1BF7C"/>
<stop offset="0.984" stop-color="#BE844F"/>
<stop offset="0.9972" stop-color="#B77946"/>
</linearGradient>
<linearGradient id="paint24_linear_2148_18206" x1="12.043" y1="56.3311" x2="52.6624" y2="101.355" gradientUnits="userSpaceOnUse">
<stop offset="0.2364" stop-color="#FFE794"/>
<stop offset="0.2662" stop-color="#FBDA85"/>
<stop offset="0.3249" stop-color="#F5C76E"/>
<stop offset="0.3877" stop-color="#F0B95D"/>
<stop offset="0.4568" stop-color="#EEB153"/>
<stop offset="0.5447" stop-color="#EDAE50"/>
<stop offset="0.644" stop-color="#EEB052"/>
<stop offset="0.6982" stop-color="#EFB65A"/>
<stop offset="0.7415" stop-color="#F2C168"/>
<stop offset="0.779" stop-color="#F6D17B"/>
<stop offset="0.8125" stop-color="#FCE594"/>
<stop offset="0.8284" stop-color="#FFF1A3"/>
<stop offset="0.857" stop-color="#F7E398"/>
<stop offset="0.911" stop-color="#E1BF7C"/>
<stop offset="0.984" stop-color="#BE844F"/>
<stop offset="0.9972" stop-color="#B77946"/>
</linearGradient>
<linearGradient id="paint25_linear_2148_18206" x1="27.1299" y1="76.8609" x2="52.18" y2="110.1" gradientUnits="userSpaceOnUse">
<stop offset="0.2364" stop-color="#FFE794"/>
<stop offset="0.2662" stop-color="#FBDA85"/>
<stop offset="0.3249" stop-color="#F5C76E"/>
<stop offset="0.3877" stop-color="#F0B95D"/>
<stop offset="0.4568" stop-color="#EEB153"/>
<stop offset="0.5447" stop-color="#EDAE50"/>
<stop offset="0.644" stop-color="#EEB052"/>
<stop offset="0.6982" stop-color="#EFB65A"/>
<stop offset="0.7415" stop-color="#F2C168"/>
<stop offset="0.779" stop-color="#F6D17B"/>
<stop offset="0.8125" stop-color="#FCE594"/>
<stop offset="0.8284" stop-color="#FFF1A3"/>
<stop offset="0.857" stop-color="#F7E398"/>
<stop offset="0.911" stop-color="#E1BF7C"/>
<stop offset="0.984" stop-color="#BE844F"/>
<stop offset="0.9972" stop-color="#B77946"/>
</linearGradient>
<linearGradient id="paint26_linear_2148_18206" x1="5.79846" y1="65.8025" x2="45.1333" y2="65.8025" gradientUnits="userSpaceOnUse">
<stop offset="0.002793" stop-color="#B77946"/>
<stop offset="0.1828" stop-color="#FFF1A3"/>
<stop offset="0.1899" stop-color="#F2DC93"/>
<stop offset="0.2026" stop-color="#E0BE7B"/>
<stop offset="0.2165" stop-color="#D1A468"/>
<stop offset="0.2319" stop-color="#C59159"/>
<stop offset="0.2497" stop-color="#BD834E"/>
<stop offset="0.272" stop-color="#B87B48"/>
<stop offset="0.3128" stop-color="#B77946"/>
<stop offset="0.3308" stop-color="#BF8148"/>
<stop offset="0.4113" stop-color="#E0A24E"/>
<stop offset="0.4553" stop-color="#EDAE50"/>
<stop offset="1" stop-color="#613F1B"/>
</linearGradient>
<linearGradient id="paint27_linear_2148_18206" x1="16.3789" y1="82.8214" x2="47.6679" y2="82.8214" gradientUnits="userSpaceOnUse">
<stop offset="0.002793" stop-color="#B77946"/>
<stop offset="0.1828" stop-color="#FFF1A3"/>
<stop offset="0.1899" stop-color="#F2DC93"/>
<stop offset="0.2026" stop-color="#E0BE7B"/>
<stop offset="0.2165" stop-color="#D1A468"/>
<stop offset="0.2319" stop-color="#C59159"/>
<stop offset="0.2497" stop-color="#BD834E"/>
<stop offset="0.272" stop-color="#B87B48"/>
<stop offset="0.3128" stop-color="#B77946"/>
<stop offset="0.3308" stop-color="#BF8148"/>
<stop offset="0.4113" stop-color="#E0A24E"/>
<stop offset="0.4553" stop-color="#EDAE50"/>
<stop offset="1" stop-color="#613F1B"/>
</linearGradient>
<linearGradient id="paint28_linear_2148_18206" x1="27.873" y1="94.2882" x2="49.3797" y2="94.2882" gradientUnits="userSpaceOnUse">
<stop offset="0.002793" stop-color="#B77946"/>
<stop offset="0.1828" stop-color="#FFF1A3"/>
<stop offset="0.1899" stop-color="#F2DC93"/>
<stop offset="0.2026" stop-color="#E0BE7B"/>
<stop offset="0.2165" stop-color="#D1A468"/>
<stop offset="0.2319" stop-color="#C59159"/>
<stop offset="0.2497" stop-color="#BD834E"/>
<stop offset="0.272" stop-color="#B87B48"/>
<stop offset="0.3128" stop-color="#B77946"/>
<stop offset="0.3308" stop-color="#BF8148"/>
<stop offset="0.4113" stop-color="#E0A24E"/>
<stop offset="0.4553" stop-color="#EDAE50"/>
<stop offset="1" stop-color="#613F1B"/>
</linearGradient>
<radialGradient id="paint29_radial_2148_18206" cx="0" cy="0" r="1" gradientUnits="userSpaceOnUse" gradientTransform="translate(23.2027 53.8473) scale(16.1935 21.5908)">
<stop stop-color="#F3E8DE"/>
<stop offset="0.5391" stop-color="#F6EEE7" stop-opacity="0.3616"/>
<stop offset="0.9624" stop-color="#F8F1EB" stop-opacity="0"/>
</radialGradient>
<radialGradient id="paint30_radial_2148_18206" cx="0" cy="0" r="1" gradientUnits="userSpaceOnUse" gradientTransform="translate(30.1806 73.0941) scale(12.0836 16.1111)">
<stop stop-color="#F3E8DE"/>
<stop offset="0.5391" stop-color="#F6EEE7" stop-opacity="0.3616"/>
<stop offset="0.9624" stop-color="#F8F1EB" stop-opacity="0"/>
</radialGradient>
<radialGradient id="paint31_radial_2148_18206" cx="0" cy="0" r="1" gradientUnits="userSpaceOnUse" gradientTransform="translate(37.3847 88.4903) scale(8.07929 10.7721)">
<stop stop-color="#F3E8DE"/>
<stop offset="0.5391" stop-color="#F6EEE7" stop-opacity="0.3616"/>
<stop offset="0.9624" stop-color="#F8F1EB" stop-opacity="0"/>
</radialGradient>
<linearGradient id="paint32_linear_2148_18206" x1="143.181" y1="66.6405" x2="127.77" y2="66.6405" gradientUnits="userSpaceOnUse">
<stop offset="0.002793" stop-color="#B77946" stop-opacity="0"/>
<stop offset="0.0411" stop-color="#B77946" stop-opacity="0.0414"/>
<stop offset="0.9274" stop-color="#B77946"/>
</linearGradient>
<linearGradient id="paint33_linear_2148_18206" x1="140.972" y1="80.9758" x2="125.302" y2="80.9758" gradientUnits="userSpaceOnUse">
<stop offset="0.002793" stop-color="#B77946" stop-opacity="0"/>
<stop offset="0.0411" stop-color="#B77946" stop-opacity="0.0414"/>
<stop offset="0.9274" stop-color="#B77946"/>
</linearGradient>
<linearGradient id="paint34_linear_2148_18206" x1="136.531" y1="92.7205" x2="123.751" y2="92.7205" gradientUnits="userSpaceOnUse">
<stop offset="0.002793" stop-color="#B77946" stop-opacity="0"/>
<stop offset="0.0411" stop-color="#B77946" stop-opacity="0.0414"/>
<stop offset="0.9274" stop-color="#B77946"/>
</linearGradient>
<linearGradient id="paint35_linear_2148_18206" x1="159.89" y1="47.1167" x2="118.492" y2="97.2963" gradientUnits="userSpaceOnUse">
<stop offset="0.2364" stop-color="#FFE794"/>
<stop offset="0.2662" stop-color="#FBDA85"/>
<stop offset="0.3249" stop-color="#F5C76E"/>
<stop offset="0.3877" stop-color="#F0B95D"/>
<stop offset="0.4568" stop-color="#EEB153"/>
<stop offset="0.5447" stop-color="#EDAE50"/>
<stop offset="0.644" stop-color="#EEB052"/>
<stop offset="0.6982" stop-color="#EFB65A"/>
<stop offset="0.7415" stop-color="#F2C168"/>
<stop offset="0.779" stop-color="#F6D17B"/>
<stop offset="0.8125" stop-color="#FCE594"/>
<stop offset="0.8284" stop-color="#FFF1A3"/>
<stop offset="0.857" stop-color="#F7E398"/>
<stop offset="0.911" stop-color="#E1BF7C"/>
<stop offset="0.984" stop-color="#BE844F"/>
<stop offset="0.9972" stop-color="#B77946"/>
</linearGradient>
<linearGradient id="paint36_linear_2148_18206" x1="161.75" y1="56.3311" x2="121.131" y2="101.355" gradientUnits="userSpaceOnUse">
<stop offset="0.2364" stop-color="#FFE794"/>
<stop offset="0.2662" stop-color="#FBDA85"/>
<stop offset="0.3249" stop-color="#F5C76E"/>
<stop offset="0.3877" stop-color="#F0B95D"/>
<stop offset="0.4568" stop-color="#EEB153"/>
<stop offset="0.5447" stop-color="#EDAE50"/>
<stop offset="0.644" stop-color="#EEB052"/>
<stop offset="0.6982" stop-color="#EFB65A"/>
<stop offset="0.7415" stop-color="#F2C168"/>
<stop offset="0.779" stop-color="#F6D17B"/>
<stop offset="0.8125" stop-color="#FCE594"/>
<stop offset="0.8284" stop-color="#FFF1A3"/>
<stop offset="0.857" stop-color="#F7E398"/>
<stop offset="0.911" stop-color="#E1BF7C"/>
<stop offset="0.984" stop-color="#BE844F"/>
<stop offset="0.9972" stop-color="#B77946"/>
</linearGradient>
<linearGradient id="paint37_linear_2148_18206" x1="146.662" y1="76.8609" x2="121.612" y2="110.1" gradientUnits="userSpaceOnUse">
<stop offset="0.2364" stop-color="#FFE794"/>
<stop offset="0.2662" stop-color="#FBDA85"/>
<stop offset="0.3249" stop-color="#F5C76E"/>
<stop offset="0.3877" stop-color="#F0B95D"/>
<stop offset="0.4568" stop-color="#EEB153"/>
<stop offset="0.5447" stop-color="#EDAE50"/>
<stop offset="0.644" stop-color="#EEB052"/>
<stop offset="0.6982" stop-color="#EFB65A"/>
<stop offset="0.7415" stop-color="#F2C168"/>
<stop offset="0.779" stop-color="#F6D17B"/>
<stop offset="0.8125" stop-color="#FCE594"/>
<stop offset="0.8284" stop-color="#FFF1A3"/>
<stop offset="0.857" stop-color="#F7E398"/>
<stop offset="0.911" stop-color="#E1BF7C"/>
<stop offset="0.984" stop-color="#BE844F"/>
<stop offset="0.9972" stop-color="#B77946"/>
</linearGradient>
<linearGradient id="paint38_linear_2148_18206" x1="167.992" y1="65.8025" x2="128.657" y2="65.8025" gradientUnits="userSpaceOnUse">
<stop offset="0.002793" stop-color="#B77946"/>
<stop offset="0.1828" stop-color="#FFF1A3"/>
<stop offset="0.1899" stop-color="#F2DC93"/>
<stop offset="0.2026" stop-color="#E0BE7B"/>
<stop offset="0.2165" stop-color="#D1A468"/>
<stop offset="0.2319" stop-color="#C59159"/>
<stop offset="0.2497" stop-color="#BD834E"/>
<stop offset="0.272" stop-color="#B87B48"/>
<stop offset="0.3128" stop-color="#B77946"/>
<stop offset="0.3308" stop-color="#BF8148"/>
<stop offset="0.4113" stop-color="#E0A24E"/>
<stop offset="0.4553" stop-color="#EDAE50"/>
<stop offset="1" stop-color="#613F1B"/>
</linearGradient>
<linearGradient id="paint39_linear_2148_18206" x1="157.414" y1="82.8214" x2="126.125" y2="82.8214" gradientUnits="userSpaceOnUse">
<stop offset="0.002793" stop-color="#B77946"/>
<stop offset="0.1828" stop-color="#FFF1A3"/>
<stop offset="0.1899" stop-color="#F2DC93"/>
<stop offset="0.2026" stop-color="#E0BE7B"/>
<stop offset="0.2165" stop-color="#D1A468"/>
<stop offset="0.2319" stop-color="#C59159"/>
<stop offset="0.2497" stop-color="#BD834E"/>
<stop offset="0.272" stop-color="#B87B48"/>
<stop offset="0.3128" stop-color="#B77946"/>
<stop offset="0.3308" stop-color="#BF8148"/>
<stop offset="0.4113" stop-color="#E0A24E"/>
<stop offset="0.4553" stop-color="#EDAE50"/>
<stop offset="1" stop-color="#613F1B"/>
</linearGradient>
<linearGradient id="paint40_linear_2148_18206" x1="145.917" y1="94.2882" x2="124.411" y2="94.2882" gradientUnits="userSpaceOnUse">
<stop offset="0.002793" stop-color="#B77946"/>
<stop offset="0.1828" stop-color="#FFF1A3"/>
<stop offset="0.1899" stop-color="#F2DC93"/>
<stop offset="0.2026" stop-color="#E0BE7B"/>
<stop offset="0.2165" stop-color="#D1A468"/>
<stop offset="0.2319" stop-color="#C59159"/>
<stop offset="0.2497" stop-color="#BD834E"/>
<stop offset="0.272" stop-color="#B87B48"/>
<stop offset="0.3128" stop-color="#B77946"/>
<stop offset="0.3308" stop-color="#BF8148"/>
<stop offset="0.4113" stop-color="#E0A24E"/>
<stop offset="0.4553" stop-color="#EDAE50"/>
<stop offset="1" stop-color="#613F1B"/>
</linearGradient>
<radialGradient id="paint41_radial_2148_18206" cx="0" cy="0" r="1" gradientUnits="userSpaceOnUse" gradientTransform="translate(150.589 53.8473) rotate(180) scale(16.1935 21.5908)">
<stop stop-color="#F3E8DE"/>
<stop offset="0.5391" stop-color="#F6EEE7" stop-opacity="0.3616"/>
<stop offset="0.9624" stop-color="#F8F1EB" stop-opacity="0"/>
</radialGradient>
<radialGradient id="paint42_radial_2148_18206" cx="0" cy="0" r="1" gradientUnits="userSpaceOnUse" gradientTransform="translate(143.612 73.0941) rotate(180) scale(12.0837 16.1112)">
<stop stop-color="#F3E8DE"/>
<stop offset="0.5391" stop-color="#F6EEE7" stop-opacity="0.3616"/>
<stop offset="0.9624" stop-color="#F8F1EB" stop-opacity="0"/>
</radialGradient>
<radialGradient id="paint43_radial_2148_18206" cx="0" cy="0" r="1" gradientUnits="userSpaceOnUse" gradientTransform="translate(136.407 88.4903) rotate(180) scale(8.07931 10.7721)">
<stop stop-color="#F3E8DE"/>
<stop offset="0.5391" stop-color="#F6EEE7" stop-opacity="0.3616"/>
<stop offset="0.9624" stop-color="#F8F1EB" stop-opacity="0"/>
</radialGradient>
<radialGradient id="paint44_radial_2148_18206" cx="0" cy="0" r="1" gradientUnits="userSpaceOnUse" gradientTransform="translate(90.9318 69) rotate(86.0885) scale(25.987 12.4936)">
<stop stop-color="#FEF1B1"/>
<stop offset="0.366" stop-color="#EEAF51"/>
<stop offset="0.981" stop-color="#A17234"/>
</radialGradient>
</defs>
</svg>
