<svg width="200" height="174" viewBox="0 0 200 174" fill="none" xmlns="http://www.w3.org/2000/svg">
<path d="M72.8996 31.82L68.2296 34.35L69.1996 29.13L65.3496 25.48L70.6096 24.79L72.8996 20L75.1796 24.79L80.4396 25.48L76.5896 29.13L77.5596 34.35L72.8996 31.82Z" fill="url(#paint0_linear_2148_18991)"/>
<path d="M65.3496 25.48L72.8996 27.18V20L70.6096 24.79L65.3496 25.48Z" fill="url(#paint1_radial_2148_18991)"/>
<path d="M72.9004 27.18L80.4404 25.48L76.5904 29.13L77.5604 34.35L72.9004 27.18Z" fill="url(#paint2_linear_2148_18991)"/>
<path d="M72.9005 27.1802L68.2305 34.3502L72.9005 31.8202V27.1802Z" fill="url(#paint3_linear_2148_18991)"/>
<path d="M126.89 31.82L122.23 34.35L123.2 29.13L119.35 25.48L124.61 24.79L126.89 20L129.18 24.79L134.44 25.48L130.59 29.13L131.56 34.35L126.89 31.82Z" fill="url(#paint4_linear_2148_18991)"/>
<path d="M119.35 25.48L126.89 27.18V20L124.61 24.79L119.35 25.48Z" fill="url(#paint5_radial_2148_18991)"/>
<path d="M126.889 27.18L134.439 25.48L130.589 29.13L131.559 34.35L126.889 27.18Z" fill="url(#paint6_linear_2148_18991)"/>
<path d="M126.89 27.1802L122.23 34.3502L126.89 31.8202V27.1802Z" fill="url(#paint7_linear_2148_18991)"/>
<path d="M105.279 33.9102V34.3502C105.219 34.2602 105.169 34.1902 105.129 34.1302C105.229 33.9902 105.279 33.9102 105.279 33.9102Z" fill="url(#paint8_linear_2148_18991)"/>
<path d="M99.5098 156.29C99.3598 156.26 99.1797 156.21 99.0197 156.15C94.8697 154.68 90.6497 152.76 86.5397 150.46C59.8397 135.53 43.2598 106.85 43.2598 75.6202V39.6502L45.7297 40.2402C51.9697 41.7402 57.9797 42.5002 63.5897 42.5002C86.0097 42.5002 96.2298 30.5902 98.1198 28.1002C98.2098 27.9702 98.2797 27.8702 98.3597 27.7802L100.08 25.7402L101.64 28.1002C103.53 30.5902 113.74 42.5102 136.18 42.5102C141.79 42.5102 147.8 41.7502 154.05 40.2502L156.52 39.6602V75.6202C156.52 106.85 139.93 135.53 113.23 150.46C109.12 152.76 104.9 154.68 100.69 156.17C100.61 156.21 100.44 156.26 100.28 156.29L99.8897 156.37L99.5098 156.29Z" fill="url(#paint9_linear_2148_18991)"/>
<path d="M154.53 42.1903V75.6103C154.53 105.78 138.6 133.98 112.27 148.7C108.42 150.85 104.34 152.75 100.03 154.28C99.9895 154.3 99.9395 154.32 99.8995 154.32C99.8595 154.31 99.7996 154.29 99.7596 154.28C95.4496 152.75 91.3695 150.86 87.5295 148.71C61.1995 133.99 45.2695 105.79 45.2695 75.6203V42.1903C81.7495 50.9603 97.5296 32.2203 99.7596 29.2703C99.8096 29.1903 99.8595 29.1303 99.8995 29.0703C99.9395 29.1203 99.9795 29.1903 100.03 29.2703C102.26 32.2203 118.03 50.9503 154.53 42.1903Z" fill="url(#paint10_linear_2148_18991)"/>
<path d="M55.8906 116.81C63.1806 129.97 73.9706 141.12 87.5206 148.7C91.3606 150.85 95.4407 152.75 99.7507 154.27C99.7907 154.29 99.8506 154.31 99.8906 154.31C99.9306 154.3 99.9806 154.28 100.021 154.27C104.331 152.74 108.411 150.85 112.261 148.69C125.821 141.11 136.611 129.95 143.891 116.8H55.8906V116.81Z" fill="url(#paint11_linear_2148_18991)"/>
<path d="M154.53 42.1903V75.6103C154.53 105.78 138.6 133.98 112.27 148.7C108.42 150.85 104.34 152.75 100.03 154.28C99.9895 154.3 99.9395 154.32 99.8995 154.32C99.8595 154.31 99.7996 154.29 99.7596 154.28C95.4496 152.75 91.3695 150.86 87.5295 148.71C61.1995 133.99 45.2695 105.79 45.2695 75.6203V42.1903C81.7495 50.9603 97.5296 32.2203 99.7596 29.2703C99.8096 29.1903 99.8595 29.1303 99.8995 29.0703C99.9395 29.1203 99.9795 29.1903 100.03 29.2703C102.26 32.2203 118.03 50.9503 154.53 42.1903Z" stroke="url(#paint12_linear_2148_18991)" stroke-width="0.8119" stroke-miterlimit="10"/>
<g opacity="0.7">
<path d="M99.8895 42.9903C107.01 48.4703 118.8 54.5103 136.19 54.5103C138.89 54.5103 141.69 54.3603 144.53 54.0603V75.6103C144.53 102.5 130.3 127.16 107.39 139.98C104.93 141.36 102.41 142.58 99.8995 143.63C97.3895 142.59 94.8795 141.36 92.4095 139.99C69.4995 127.18 55.2695 102.52 55.2695 75.6203V54.0603C58.1095 54.3603 60.8995 54.5103 63.5995 54.5103C80.9795 54.5003 92.7695 48.4603 99.8895 42.9903ZM99.8895 37.8403L98.6196 38.8803C92.1796 44.1803 80.8695 50.5003 63.5995 50.5003C60.3595 50.5003 56.9695 50.2703 53.5295 49.8203L51.2695 49.5203V75.6103C51.2695 103.95 66.2895 129.95 90.4595 143.47C93.3095 145.07 96.2395 146.47 99.1595 147.64L99.8995 147.94L100.65 147.64C103.57 146.47 106.5 145.06 109.35 143.47C133.52 129.95 148.54 103.95 148.54 75.6103V49.5303L146.28 49.8203C142.84 50.2703 139.45 50.5003 136.2 50.5003C118.92 50.5003 107.61 44.1803 101.17 38.8803L99.8895 37.8403Z" fill="url(#paint13_linear_2148_18991)"/>
</g>
<path d="M99.8895 145.78C97.0495 144.64 94.2096 143.28 91.4296 141.72C67.8896 128.56 53.2695 103.23 53.2695 75.6102V51.8002C56.8095 52.2602 60.2595 52.5002 63.5995 52.5002C81.5495 52.5002 93.2995 45.8502 99.8895 40.4302C106.48 45.8502 118.23 52.5002 136.19 52.5002C139.53 52.5002 142.99 52.2702 146.53 51.8002V75.6002C146.53 103.21 131.91 128.55 108.36 141.71C105.57 143.28 102.73 144.64 99.8895 145.78Z" fill="url(#paint14_radial_2148_18991)"/>
<path d="M63.5995 54.5002C60.8995 54.5002 58.1095 54.3502 55.2695 54.0502V75.6102C55.2695 102.5 69.4995 127.17 92.4095 139.97C94.7895 141.3 97.2095 142.48 99.6395 143.5V43.1802C92.4895 48.6002 80.7695 54.5002 63.5995 54.5002Z" fill="url(#paint15_radial_2148_18991)"/>
<path d="M136.189 54.5005C118.809 54.5005 107.009 48.4605 99.8889 42.9805C99.8089 43.0405 99.7089 43.1105 99.6289 43.1705V143.5C99.7189 143.54 99.7989 143.58 99.8889 143.61C102.399 142.57 104.919 141.34 107.379 139.96C130.289 127.15 144.519 102.49 144.519 75.5905V54.0405C141.689 54.3505 138.889 54.5005 136.189 54.5005Z" fill="url(#paint16_radial_2148_18991)"/>
<path d="M99.8895 145.78C97.0495 144.64 94.2096 143.28 91.4296 141.72C67.8896 128.56 53.2695 103.23 53.2695 75.6102V51.8002C56.8095 52.2602 60.2595 52.5002 63.5995 52.5002C81.5495 52.5002 93.2995 45.8502 99.8895 40.4302C106.48 45.8502 118.23 52.5002 136.19 52.5002C139.53 52.5002 142.99 52.2702 146.53 51.8002V75.6002C146.53 103.21 131.91 128.55 108.36 141.71C105.57 143.28 102.73 144.64 99.8895 145.78Z" stroke="url(#paint17_linear_2148_18991)" stroke-width="0.5" stroke-miterlimit="10"/>
<path d="M148.529 49.5303V75.6103C148.529 103.95 133.509 129.95 109.339 143.47C106.489 145.07 103.559 146.47 100.639 147.64" stroke="url(#paint18_linear_2148_18991)" stroke-width="0.8119" stroke-miterlimit="10"/>
<path d="M105.129 34.1302C105.079 34.1902 105.029 34.2602 104.969 34.3502V33.9102C104.969 33.9102 105.019 33.9902 105.129 34.1302Z" fill="url(#paint19_linear_2148_18991)"/>
<path d="M59.0193 86.9199C59.0193 86.9199 58.0794 90.0299 54.6194 90.0899L44.1594 88.0899C44.1594 88.0899 44.1594 88.0799 44.1494 88.0699C43.9294 86.5199 43.7394 84.9599 43.6094 83.3899C43.6194 83.3699 43.6294 83.3599 43.6494 83.3399C45.0894 81.8799 52.9694 82.7999 52.9694 82.7999L56.5694 77.1899L57.4094 77.8399L59.0193 86.9199Z" fill="url(#paint20_linear_2148_18991)"/>
<path d="M61.4903 100.95C61.4903 100.95 61.2403 102.84 58.6303 103.96L47.8003 103.44C47.0503 101.21 46.3903 98.9502 45.8203 96.6602C47.4703 96.1702 49.2503 96.1002 49.8103 96.1302C50.8803 96.1902 59.0303 91.9902 59.0303 91.9902L59.7303 92.5802L61.4903 100.95Z" fill="url(#paint21_linear_2148_18991)"/>
<path d="M63.0397 110.92C63.0397 110.92 62.5797 112.4 60.6697 113.08C60.6697 113.08 54.4297 113.83 52.4197 114.54H52.4097C51.6497 113.01 50.9298 111.46 50.2598 109.88C51.7798 107.88 53.7198 107.39 55.0098 107.54C56.3398 107.7 61.1097 104.9 61.1097 104.9L61.7097 105.49L63.0397 110.92Z" fill="url(#paint22_linear_2148_18991)"/>
<path d="M58.13 86.9201L56.57 77.1901L15 59.3101L18.8 77.1901L58.13 86.9201Z" fill="url(#paint23_linear_2148_18991)"/>
<path d="M59.0309 91.9899L26.6309 84.4399L29.3809 97.1499L60.6709 100.73L59.0309 91.9899Z" fill="url(#paint24_linear_2148_18991)"/>
<path d="M61.1105 104.9L39.0605 103.44L40.8705 111.65L62.3806 110.56L61.1105 104.9Z" fill="url(#paint25_linear_2148_18991)"/>
<path d="M58.1291 86.9199C57.3391 88.1499 55.8191 88.7099 54.4191 88.2699L18.7891 77.1899L58.1291 86.9199Z" fill="url(#paint26_linear_2148_18991)"/>
<path d="M60.6709 100.73C59.8109 102.05 58.2408 102.72 56.7008 102.42L29.3809 97.1499L60.6709 100.73Z" fill="url(#paint27_linear_2148_18991)"/>
<path d="M62.3792 110.56C61.5792 111.5 60.3991 112.04 59.1591 112.01L40.8691 111.65L62.3792 110.56Z" fill="url(#paint28_linear_2148_18991)"/>
<path d="M15 59.3101L16.77 67.6401L57.41 82.3901L56.57 77.1901L15 59.3101Z" fill="url(#paint29_radial_2148_18991)"/>
<path d="M26.6309 84.4399L59.0309 91.9899L59.7309 95.7499L27.9509 90.5599L26.6309 84.4399Z" fill="url(#paint30_radial_2148_18991)"/>
<path d="M39.0605 103.44L61.1105 104.9L61.7105 107.55H39.9705L39.0605 103.44Z" fill="url(#paint31_radial_2148_18991)"/>
<path d="M140.77 86.9199C140.77 86.9199 141.71 90.0299 145.17 90.0899L155.63 88.0899C155.63 88.0899 155.63 88.0799 155.64 88.0699C155.86 86.5199 156.05 84.9599 156.18 83.3899C156.17 83.3699 156.16 83.3599 156.14 83.3399C154.7 81.8799 146.82 82.7999 146.82 82.7999L143.22 77.1899L142.38 77.8399L140.77 86.9199Z" fill="url(#paint32_linear_2148_18991)"/>
<path d="M138.301 100.95C138.301 100.95 138.551 102.84 141.161 103.96L151.991 103.44C152.741 101.21 153.401 98.9502 153.971 96.6602C152.321 96.1702 150.541 96.1002 149.981 96.1302C148.911 96.1902 140.761 91.9902 140.761 91.9902L140.061 92.5802L138.301 100.95Z" fill="url(#paint33_linear_2148_18991)"/>
<path d="M136.75 110.92C136.75 110.92 137.21 112.4 139.12 113.08C139.12 113.08 145.36 113.83 147.37 114.54H147.38C148.14 113.01 148.86 111.46 149.53 109.88C148.01 107.88 146.07 107.39 144.78 107.54C143.45 107.7 138.68 104.9 138.68 104.9L138.08 105.49L136.75 110.92Z" fill="url(#paint34_linear_2148_18991)"/>
<path d="M141.66 86.9201L143.22 77.1901L184.79 59.3101L180.99 77.1901L141.66 86.9201Z" fill="url(#paint35_linear_2148_18991)"/>
<path d="M140.761 91.9899L173.171 84.4399L170.411 97.1499L139.121 100.73L140.761 91.9899Z" fill="url(#paint36_linear_2148_18991)"/>
<path d="M138.68 104.9L160.73 103.44L158.92 111.65L137.41 110.56L138.68 104.9Z" fill="url(#paint37_linear_2148_18991)"/>
<path d="M141.66 86.9199C142.45 88.1499 143.97 88.7099 145.37 88.2699L181 77.1899L141.66 86.9199Z" fill="url(#paint38_linear_2148_18991)"/>
<path d="M139.121 100.73C139.981 102.05 141.551 102.72 143.091 102.42L170.411 97.1499L139.121 100.73Z" fill="url(#paint39_linear_2148_18991)"/>
<path d="M137.41 110.56C138.21 111.5 139.39 112.04 140.63 112.01L158.91 111.65L137.41 110.56Z" fill="url(#paint40_linear_2148_18991)"/>
<path d="M184.791 59.3101L183.021 67.6401L142.391 82.3901L143.221 77.1901L184.791 59.3101Z" fill="url(#paint41_radial_2148_18991)"/>
<path d="M173.171 84.4399L140.761 91.9899L140.061 95.7499L171.841 90.5599L173.171 84.4399Z" fill="url(#paint42_radial_2148_18991)"/>
<path d="M160.73 103.44L138.68 104.9L138.09 107.55H159.82L160.73 103.44Z" fill="url(#paint43_radial_2148_18991)"/>
<defs>
<linearGradient id="paint0_linear_2148_18991" x1="69.8016" y1="22.5175" x2="76.1739" y2="32.9145" gradientUnits="userSpaceOnUse">
<stop offset="0.1716" stop-color="#FFF1A3"/>
<stop offset="0.1875" stop-color="#FCE594"/>
<stop offset="0.221" stop-color="#F6D17B"/>
<stop offset="0.2585" stop-color="#F2C168"/>
<stop offset="0.3018" stop-color="#EFB65A"/>
<stop offset="0.356" stop-color="#EEB052"/>
<stop offset="0.4553" stop-color="#EDAE50"/>
<stop offset="0.5432" stop-color="#EEB153"/>
<stop offset="0.6123" stop-color="#F0B95D"/>
<stop offset="0.6751" stop-color="#F5C76E"/>
<stop offset="0.7338" stop-color="#FBDA85"/>
<stop offset="0.7636" stop-color="#FFE794"/>
<stop offset="1" stop-color="#B77946"/>
</linearGradient>
<radialGradient id="paint1_radial_2148_18991" cx="0" cy="0" r="1" gradientUnits="userSpaceOnUse" gradientTransform="translate(70.6165 21.1634) scale(12.5169 12.5169)">
<stop stop-color="#F3E8DE"/>
<stop offset="0.5391" stop-color="#F6EEE7" stop-opacity="0.3616"/>
<stop offset="0.9624" stop-color="#F8F1EB" stop-opacity="0"/>
</radialGradient>
<linearGradient id="paint2_linear_2148_18991" x1="82.7056" y1="35.5431" x2="74.4914" y2="23.0733" gradientUnits="userSpaceOnUse">
<stop offset="0.002793" stop-color="#B77946" stop-opacity="0"/>
<stop offset="0.1828" stop-color="#FFF1A3"/>
<stop offset="0.3443" stop-color="#E7C883"/>
<stop offset="0.5097" stop-color="#D2A669"/>
<stop offset="0.6667" stop-color="#C38D56"/>
<stop offset="0.8101" stop-color="#BA7E4A"/>
<stop offset="0.9274" stop-color="#B77946"/>
</linearGradient>
<linearGradient id="paint3_linear_2148_18991" x1="69.6139" y1="36.9778" x2="74.1003" y2="18.6362" gradientUnits="userSpaceOnUse">
<stop offset="0.002793" stop-color="#B77946" stop-opacity="0"/>
<stop offset="0.1828" stop-color="#FFF1A3"/>
<stop offset="0.3443" stop-color="#E7C883"/>
<stop offset="0.5097" stop-color="#D2A669"/>
<stop offset="0.6667" stop-color="#C38D56"/>
<stop offset="0.8101" stop-color="#BA7E4A"/>
<stop offset="0.9274" stop-color="#B77946"/>
</linearGradient>
<linearGradient id="paint4_linear_2148_18991" x1="123.8" y1="22.5175" x2="130.172" y2="32.9145" gradientUnits="userSpaceOnUse">
<stop offset="0.1716" stop-color="#FFF1A3"/>
<stop offset="0.1875" stop-color="#FCE594"/>
<stop offset="0.221" stop-color="#F6D17B"/>
<stop offset="0.2585" stop-color="#F2C168"/>
<stop offset="0.3018" stop-color="#EFB65A"/>
<stop offset="0.356" stop-color="#EEB052"/>
<stop offset="0.4553" stop-color="#EDAE50"/>
<stop offset="0.5432" stop-color="#EEB153"/>
<stop offset="0.6123" stop-color="#F0B95D"/>
<stop offset="0.6751" stop-color="#F5C76E"/>
<stop offset="0.7338" stop-color="#FBDA85"/>
<stop offset="0.7636" stop-color="#FFE794"/>
<stop offset="1" stop-color="#B77946"/>
</linearGradient>
<radialGradient id="paint5_radial_2148_18991" cx="0" cy="0" r="1" gradientUnits="userSpaceOnUse" gradientTransform="translate(124.614 21.1634) scale(12.517 12.517)">
<stop stop-color="#F3E8DE"/>
<stop offset="0.5391" stop-color="#F6EEE7" stop-opacity="0.3616"/>
<stop offset="0.9624" stop-color="#F8F1EB" stop-opacity="0"/>
</radialGradient>
<linearGradient id="paint6_linear_2148_18991" x1="136.702" y1="35.5431" x2="128.488" y2="23.0733" gradientUnits="userSpaceOnUse">
<stop offset="0.002793" stop-color="#B77946" stop-opacity="0"/>
<stop offset="0.1828" stop-color="#FFF1A3"/>
<stop offset="0.3443" stop-color="#E7C883"/>
<stop offset="0.5097" stop-color="#D2A669"/>
<stop offset="0.6667" stop-color="#C38D56"/>
<stop offset="0.8101" stop-color="#BA7E4A"/>
<stop offset="0.9274" stop-color="#B77946"/>
</linearGradient>
<linearGradient id="paint7_linear_2148_18991" x1="123.612" y1="36.9778" x2="128.098" y2="18.6362" gradientUnits="userSpaceOnUse">
<stop offset="0.002793" stop-color="#B77946" stop-opacity="0"/>
<stop offset="0.1828" stop-color="#FFF1A3"/>
<stop offset="0.3443" stop-color="#E7C883"/>
<stop offset="0.5097" stop-color="#D2A669"/>
<stop offset="0.6667" stop-color="#C38D56"/>
<stop offset="0.8101" stop-color="#BA7E4A"/>
<stop offset="0.9274" stop-color="#B77946"/>
</linearGradient>
<linearGradient id="paint8_linear_2148_18991" x1="105.129" y1="34.1308" x2="105.279" y2="34.1308" gradientUnits="userSpaceOnUse">
<stop stop-color="#B77946"/>
<stop offset="0.2364" stop-color="#FFE794"/>
<stop offset="0.2662" stop-color="#FBDA85"/>
<stop offset="0.3249" stop-color="#F5C76E"/>
<stop offset="0.3877" stop-color="#F0B95D"/>
<stop offset="0.4568" stop-color="#EEB153"/>
<stop offset="0.5447" stop-color="#EDAE50"/>
<stop offset="0.644" stop-color="#EEB052"/>
<stop offset="0.6982" stop-color="#EFB65A"/>
<stop offset="0.7415" stop-color="#F2C168"/>
<stop offset="0.779" stop-color="#F6D17B"/>
<stop offset="0.8125" stop-color="#FCE594"/>
<stop offset="0.8284" stop-color="#FFF1A3"/>
<stop offset="0.857" stop-color="#F7E398"/>
<stop offset="0.911" stop-color="#E1BF7C"/>
<stop offset="0.984" stop-color="#BE844F"/>
<stop offset="0.9972" stop-color="#B77946"/>
</linearGradient>
<linearGradient id="paint9_linear_2148_18991" x1="43.2647" y1="91.0497" x2="156.526" y2="91.0497" gradientUnits="userSpaceOnUse">
<stop offset="0.002793" stop-color="#B77946"/>
<stop offset="0.1828" stop-color="#FFF1A3"/>
<stop offset="0.1899" stop-color="#F2DC93"/>
<stop offset="0.2026" stop-color="#E0BE7B"/>
<stop offset="0.2165" stop-color="#D1A468"/>
<stop offset="0.2319" stop-color="#C59159"/>
<stop offset="0.2497" stop-color="#BD834E"/>
<stop offset="0.272" stop-color="#B87B48"/>
<stop offset="0.3128" stop-color="#B77946"/>
<stop offset="0.3308" stop-color="#BF8148"/>
<stop offset="0.4113" stop-color="#E0A24E"/>
<stop offset="0.4553" stop-color="#EDAE50"/>
<stop offset="1" stop-color="#613F1B"/>
</linearGradient>
<linearGradient id="paint10_linear_2148_18991" x1="45.2644" y1="91.6964" x2="154.526" y2="91.6964" gradientUnits="userSpaceOnUse">
<stop stop-color="#B77946"/>
<stop offset="0.2364" stop-color="#FFE794"/>
<stop offset="0.2662" stop-color="#FBDA85"/>
<stop offset="0.3249" stop-color="#F5C76E"/>
<stop offset="0.3877" stop-color="#F0B95D"/>
<stop offset="0.4568" stop-color="#EEB153"/>
<stop offset="0.5447" stop-color="#EDAE50"/>
<stop offset="0.644" stop-color="#EEB052"/>
<stop offset="0.6982" stop-color="#EFB65A"/>
<stop offset="0.7415" stop-color="#F2C168"/>
<stop offset="0.779" stop-color="#F6D17B"/>
<stop offset="0.8125" stop-color="#FCE594"/>
<stop offset="0.8284" stop-color="#FFF1A3"/>
<stop offset="0.857" stop-color="#F7E398"/>
<stop offset="0.911" stop-color="#E1BF7C"/>
<stop offset="0.984" stop-color="#BE844F"/>
<stop offset="0.9972" stop-color="#B77946"/>
</linearGradient>
<linearGradient id="paint11_linear_2148_18991" x1="99.8944" y1="150.562" x2="99.8944" y2="116.096" gradientUnits="userSpaceOnUse">
<stop offset="0.002793" stop-color="#B77946" stop-opacity="0"/>
<stop offset="0.9274" stop-color="#B77946"/>
</linearGradient>
<linearGradient id="paint12_linear_2148_18991" x1="44.8584" y1="91.5642" x2="154.932" y2="91.5642" gradientUnits="userSpaceOnUse">
<stop stop-color="#B77946"/>
<stop offset="0.2364" stop-color="#FFE794"/>
<stop offset="0.2662" stop-color="#FBDA85"/>
<stop offset="0.3249" stop-color="#F5C76E"/>
<stop offset="0.3877" stop-color="#F0B95D"/>
<stop offset="0.4568" stop-color="#EEB153"/>
<stop offset="0.5447" stop-color="#EDAE50"/>
<stop offset="0.644" stop-color="#EEB052"/>
<stop offset="0.6982" stop-color="#EFB65A"/>
<stop offset="0.7415" stop-color="#F2C168"/>
<stop offset="0.779" stop-color="#F6D17B"/>
<stop offset="0.8125" stop-color="#FCE594"/>
<stop offset="0.8284" stop-color="#FFF1A3"/>
<stop offset="0.857" stop-color="#F7E398"/>
<stop offset="0.911" stop-color="#E1BF7C"/>
<stop offset="0.984" stop-color="#BE844F"/>
<stop offset="0.9972" stop-color="#B77946"/>
</linearGradient>
<linearGradient id="paint13_linear_2148_18991" x1="51.2644" y1="92.8894" x2="148.526" y2="92.8894" gradientUnits="userSpaceOnUse">
<stop stop-color="#B77946"/>
<stop offset="0.4497" stop-color="#EDAE50"/>
<stop offset="0.5105" stop-color="#EBAC4F"/>
<stop offset="0.5436" stop-color="#E3A54D"/>
<stop offset="0.5701" stop-color="#D59A49"/>
<stop offset="0.5931" stop-color="#C28A44"/>
<stop offset="0.6136" stop-color="#A9753D"/>
<stop offset="0.6324" stop-color="#8A5C35"/>
<stop offset="0.6341" stop-color="#875934"/>
<stop offset="1" stop-color="#FFF1A3"/>
</linearGradient>
<radialGradient id="paint14_radial_2148_18991" cx="0" cy="0" r="1" gradientUnits="userSpaceOnUse" gradientTransform="translate(99.8953 93.1065) scale(49.7444)">
<stop stop-color="#FEFEFE"/>
<stop offset="0.3868" stop-color="#EBDFD2"/>
<stop offset="0.7903" stop-color="#DAC3AA"/>
<stop offset="1" stop-color="#D4B89B"/>
</radialGradient>
<radialGradient id="paint15_radial_2148_18991" cx="0" cy="0" r="1" gradientUnits="userSpaceOnUse" gradientTransform="translate(73.4868 48.6694) scale(81.4419 81.4419)">
<stop stop-color="#FAF7F4"/>
<stop offset="0.9972" stop-color="#F5F0E8" stop-opacity="0"/>
</radialGradient>
<radialGradient id="paint16_radial_2148_18991" cx="0" cy="0" r="1" gradientUnits="userSpaceOnUse" gradientTransform="translate(152.558 84.9912) scale(50.8568 50.8569)">
<stop stop-color="#EDAE50"/>
<stop offset="0.1105" stop-color="#DFA44B" stop-opacity="0.8892"/>
<stop offset="0.3188" stop-color="#BB893F" stop-opacity="0.6803"/>
<stop offset="0.6028" stop-color="#805D2C" stop-opacity="0.3955"/>
<stop offset="0.9483" stop-color="#2F2111" stop-opacity="0.0491"/>
<stop offset="0.9972" stop-color="#23180D" stop-opacity="0"/>
</radialGradient>
<linearGradient id="paint17_linear_2148_18991" x1="53.0144" y1="93.0794" x2="146.776" y2="93.0794" gradientUnits="userSpaceOnUse">
<stop stop-color="#B77946"/>
<stop offset="0.1034" stop-color="#EDAE50"/>
<stop offset="0.1954" stop-color="#E2A54D"/>
<stop offset="0.355" stop-color="#C68E45"/>
<stop offset="0.5617" stop-color="#996839"/>
<stop offset="0.6341" stop-color="#875934"/>
<stop offset="0.6378" stop-color="#8A5D37"/>
<stop offset="0.6745" stop-color="#A98454"/>
<stop offset="0.7138" stop-color="#C4A66C"/>
<stop offset="0.7555" stop-color="#D9C180"/>
<stop offset="0.8006" stop-color="#EAD790"/>
<stop offset="0.8507" stop-color="#F6E69B"/>
<stop offset="0.9097" stop-color="#FDEEA1"/>
<stop offset="1" stop-color="#FFF1A3"/>
</linearGradient>
<linearGradient id="paint18_linear_2148_18991" x1="100.483" y1="98.7711" x2="148.931" y2="98.7711" gradientUnits="userSpaceOnUse">
<stop stop-color="#B77946"/>
<stop offset="0.2364" stop-color="#FFE794"/>
<stop offset="0.2662" stop-color="#FBDA85"/>
<stop offset="0.3249" stop-color="#F5C76E"/>
<stop offset="0.3877" stop-color="#F0B95D"/>
<stop offset="0.4568" stop-color="#EEB153"/>
<stop offset="0.5447" stop-color="#EDAE50"/>
<stop offset="0.644" stop-color="#EEB052"/>
<stop offset="0.6982" stop-color="#EFB65A"/>
<stop offset="0.7415" stop-color="#F2C168"/>
<stop offset="0.779" stop-color="#F6D17B"/>
<stop offset="0.8125" stop-color="#FCE594"/>
<stop offset="0.8284" stop-color="#FFF1A3"/>
<stop offset="0.857" stop-color="#F7E398"/>
<stop offset="0.911" stop-color="#E1BF7C"/>
<stop offset="0.984" stop-color="#BE844F"/>
<stop offset="0.9972" stop-color="#B77946"/>
</linearGradient>
<linearGradient id="paint19_linear_2148_18991" x1="104.969" y1="34.1308" x2="105.129" y2="34.1308" gradientUnits="userSpaceOnUse">
<stop stop-color="#B77946"/>
<stop offset="0.2364" stop-color="#FFE794"/>
<stop offset="0.2662" stop-color="#FBDA85"/>
<stop offset="0.3249" stop-color="#F5C76E"/>
<stop offset="0.3877" stop-color="#F0B95D"/>
<stop offset="0.4568" stop-color="#EEB153"/>
<stop offset="0.5447" stop-color="#EDAE50"/>
<stop offset="0.644" stop-color="#EEB052"/>
<stop offset="0.6982" stop-color="#EFB65A"/>
<stop offset="0.7415" stop-color="#F2C168"/>
<stop offset="0.779" stop-color="#F6D17B"/>
<stop offset="0.8125" stop-color="#FCE594"/>
<stop offset="0.8284" stop-color="#FFF1A3"/>
<stop offset="0.857" stop-color="#F7E398"/>
<stop offset="0.911" stop-color="#E1BF7C"/>
<stop offset="0.984" stop-color="#BE844F"/>
<stop offset="0.9972" stop-color="#B77946"/>
</linearGradient>
<linearGradient id="paint20_linear_2148_18991" x1="43.6095" y1="83.6405" x2="59.0195" y2="83.6405" gradientUnits="userSpaceOnUse">
<stop offset="0.002793" stop-color="#B77946" stop-opacity="0"/>
<stop offset="0.0411" stop-color="#B77946" stop-opacity="0.0414"/>
<stop offset="0.9274" stop-color="#B77946"/>
</linearGradient>
<linearGradient id="paint21_linear_2148_18991" x1="45.8204" y1="97.9758" x2="61.4904" y2="97.9758" gradientUnits="userSpaceOnUse">
<stop offset="0.002793" stop-color="#B77946" stop-opacity="0"/>
<stop offset="0.0411" stop-color="#B77946" stop-opacity="0.0414"/>
<stop offset="0.9274" stop-color="#B77946"/>
</linearGradient>
<linearGradient id="paint22_linear_2148_18991" x1="50.26" y1="109.721" x2="63.0399" y2="109.721" gradientUnits="userSpaceOnUse">
<stop offset="0.002793" stop-color="#B77946" stop-opacity="0"/>
<stop offset="0.0411" stop-color="#B77946" stop-opacity="0.0414"/>
<stop offset="0.9274" stop-color="#B77946"/>
</linearGradient>
<linearGradient id="paint23_linear_2148_18991" x1="26.9014" y1="64.1167" x2="68.2995" y2="114.296" gradientUnits="userSpaceOnUse">
<stop offset="0.2364" stop-color="#FFE794"/>
<stop offset="0.2662" stop-color="#FBDA85"/>
<stop offset="0.3249" stop-color="#F5C76E"/>
<stop offset="0.3877" stop-color="#F0B95D"/>
<stop offset="0.4568" stop-color="#EEB153"/>
<stop offset="0.5447" stop-color="#EDAE50"/>
<stop offset="0.644" stop-color="#EEB052"/>
<stop offset="0.6982" stop-color="#EFB65A"/>
<stop offset="0.7415" stop-color="#F2C168"/>
<stop offset="0.779" stop-color="#F6D17B"/>
<stop offset="0.8125" stop-color="#FCE594"/>
<stop offset="0.8284" stop-color="#FFF1A3"/>
<stop offset="0.857" stop-color="#F7E398"/>
<stop offset="0.911" stop-color="#E1BF7C"/>
<stop offset="0.984" stop-color="#BE844F"/>
<stop offset="0.9972" stop-color="#B77946"/>
</linearGradient>
<linearGradient id="paint24_linear_2148_18991" x1="25.043" y1="73.3311" x2="65.6624" y2="118.355" gradientUnits="userSpaceOnUse">
<stop offset="0.2364" stop-color="#FFE794"/>
<stop offset="0.2662" stop-color="#FBDA85"/>
<stop offset="0.3249" stop-color="#F5C76E"/>
<stop offset="0.3877" stop-color="#F0B95D"/>
<stop offset="0.4568" stop-color="#EEB153"/>
<stop offset="0.5447" stop-color="#EDAE50"/>
<stop offset="0.644" stop-color="#EEB052"/>
<stop offset="0.6982" stop-color="#EFB65A"/>
<stop offset="0.7415" stop-color="#F2C168"/>
<stop offset="0.779" stop-color="#F6D17B"/>
<stop offset="0.8125" stop-color="#FCE594"/>
<stop offset="0.8284" stop-color="#FFF1A3"/>
<stop offset="0.857" stop-color="#F7E398"/>
<stop offset="0.911" stop-color="#E1BF7C"/>
<stop offset="0.984" stop-color="#BE844F"/>
<stop offset="0.9972" stop-color="#B77946"/>
</linearGradient>
<linearGradient id="paint25_linear_2148_18991" x1="40.1299" y1="93.8609" x2="65.18" y2="127.1" gradientUnits="userSpaceOnUse">
<stop offset="0.2364" stop-color="#FFE794"/>
<stop offset="0.2662" stop-color="#FBDA85"/>
<stop offset="0.3249" stop-color="#F5C76E"/>
<stop offset="0.3877" stop-color="#F0B95D"/>
<stop offset="0.4568" stop-color="#EEB153"/>
<stop offset="0.5447" stop-color="#EDAE50"/>
<stop offset="0.644" stop-color="#EEB052"/>
<stop offset="0.6982" stop-color="#EFB65A"/>
<stop offset="0.7415" stop-color="#F2C168"/>
<stop offset="0.779" stop-color="#F6D17B"/>
<stop offset="0.8125" stop-color="#FCE594"/>
<stop offset="0.8284" stop-color="#FFF1A3"/>
<stop offset="0.857" stop-color="#F7E398"/>
<stop offset="0.911" stop-color="#E1BF7C"/>
<stop offset="0.984" stop-color="#BE844F"/>
<stop offset="0.9972" stop-color="#B77946"/>
</linearGradient>
<linearGradient id="paint26_linear_2148_18991" x1="18.7985" y1="82.8025" x2="58.1333" y2="82.8025" gradientUnits="userSpaceOnUse">
<stop offset="0.002793" stop-color="#B77946"/>
<stop offset="0.1828" stop-color="#FFF1A3"/>
<stop offset="0.1899" stop-color="#F2DC93"/>
<stop offset="0.2026" stop-color="#E0BE7B"/>
<stop offset="0.2165" stop-color="#D1A468"/>
<stop offset="0.2319" stop-color="#C59159"/>
<stop offset="0.2497" stop-color="#BD834E"/>
<stop offset="0.272" stop-color="#B87B48"/>
<stop offset="0.3128" stop-color="#B77946"/>
<stop offset="0.3308" stop-color="#BF8148"/>
<stop offset="0.4113" stop-color="#E0A24E"/>
<stop offset="0.4553" stop-color="#EDAE50"/>
<stop offset="1" stop-color="#613F1B"/>
</linearGradient>
<linearGradient id="paint27_linear_2148_18991" x1="29.3789" y1="99.8214" x2="60.6679" y2="99.8214" gradientUnits="userSpaceOnUse">
<stop offset="0.002793" stop-color="#B77946"/>
<stop offset="0.1828" stop-color="#FFF1A3"/>
<stop offset="0.1899" stop-color="#F2DC93"/>
<stop offset="0.2026" stop-color="#E0BE7B"/>
<stop offset="0.2165" stop-color="#D1A468"/>
<stop offset="0.2319" stop-color="#C59159"/>
<stop offset="0.2497" stop-color="#BD834E"/>
<stop offset="0.272" stop-color="#B87B48"/>
<stop offset="0.3128" stop-color="#B77946"/>
<stop offset="0.3308" stop-color="#BF8148"/>
<stop offset="0.4113" stop-color="#E0A24E"/>
<stop offset="0.4553" stop-color="#EDAE50"/>
<stop offset="1" stop-color="#613F1B"/>
</linearGradient>
<linearGradient id="paint28_linear_2148_18991" x1="40.873" y1="111.288" x2="62.3797" y2="111.288" gradientUnits="userSpaceOnUse">
<stop offset="0.002793" stop-color="#B77946"/>
<stop offset="0.1828" stop-color="#FFF1A3"/>
<stop offset="0.1899" stop-color="#F2DC93"/>
<stop offset="0.2026" stop-color="#E0BE7B"/>
<stop offset="0.2165" stop-color="#D1A468"/>
<stop offset="0.2319" stop-color="#C59159"/>
<stop offset="0.2497" stop-color="#BD834E"/>
<stop offset="0.272" stop-color="#B87B48"/>
<stop offset="0.3128" stop-color="#B77946"/>
<stop offset="0.3308" stop-color="#BF8148"/>
<stop offset="0.4113" stop-color="#E0A24E"/>
<stop offset="0.4553" stop-color="#EDAE50"/>
<stop offset="1" stop-color="#613F1B"/>
</linearGradient>
<radialGradient id="paint29_radial_2148_18991" cx="0" cy="0" r="1" gradientUnits="userSpaceOnUse" gradientTransform="translate(36.2027 70.8473) scale(16.1935 21.5908)">
<stop stop-color="#F3E8DE"/>
<stop offset="0.5391" stop-color="#F6EEE7" stop-opacity="0.3616"/>
<stop offset="0.9624" stop-color="#F8F1EB" stop-opacity="0"/>
</radialGradient>
<radialGradient id="paint30_radial_2148_18991" cx="0" cy="0" r="1" gradientUnits="userSpaceOnUse" gradientTransform="translate(43.1806 90.0941) scale(12.0836 16.1111)">
<stop stop-color="#F3E8DE"/>
<stop offset="0.5391" stop-color="#F6EEE7" stop-opacity="0.3616"/>
<stop offset="0.9624" stop-color="#F8F1EB" stop-opacity="0"/>
</radialGradient>
<radialGradient id="paint31_radial_2148_18991" cx="0" cy="0" r="1" gradientUnits="userSpaceOnUse" gradientTransform="translate(50.3847 105.49) scale(8.07929 10.7721)">
<stop stop-color="#F3E8DE"/>
<stop offset="0.5391" stop-color="#F6EEE7" stop-opacity="0.3616"/>
<stop offset="0.9624" stop-color="#F8F1EB" stop-opacity="0"/>
</radialGradient>
<linearGradient id="paint32_linear_2148_18991" x1="156.181" y1="83.6405" x2="140.77" y2="83.6405" gradientUnits="userSpaceOnUse">
<stop offset="0.002793" stop-color="#B77946" stop-opacity="0"/>
<stop offset="0.0411" stop-color="#B77946" stop-opacity="0.0414"/>
<stop offset="0.9274" stop-color="#B77946"/>
</linearGradient>
<linearGradient id="paint33_linear_2148_18991" x1="153.972" y1="97.9758" x2="138.302" y2="97.9758" gradientUnits="userSpaceOnUse">
<stop offset="0.002793" stop-color="#B77946" stop-opacity="0"/>
<stop offset="0.0411" stop-color="#B77946" stop-opacity="0.0414"/>
<stop offset="0.9274" stop-color="#B77946"/>
</linearGradient>
<linearGradient id="paint34_linear_2148_18991" x1="149.531" y1="109.721" x2="136.751" y2="109.721" gradientUnits="userSpaceOnUse">
<stop offset="0.002793" stop-color="#B77946" stop-opacity="0"/>
<stop offset="0.0411" stop-color="#B77946" stop-opacity="0.0414"/>
<stop offset="0.9274" stop-color="#B77946"/>
</linearGradient>
<linearGradient id="paint35_linear_2148_18991" x1="172.89" y1="64.1167" x2="131.492" y2="114.296" gradientUnits="userSpaceOnUse">
<stop offset="0.2364" stop-color="#FFE794"/>
<stop offset="0.2662" stop-color="#FBDA85"/>
<stop offset="0.3249" stop-color="#F5C76E"/>
<stop offset="0.3877" stop-color="#F0B95D"/>
<stop offset="0.4568" stop-color="#EEB153"/>
<stop offset="0.5447" stop-color="#EDAE50"/>
<stop offset="0.644" stop-color="#EEB052"/>
<stop offset="0.6982" stop-color="#EFB65A"/>
<stop offset="0.7415" stop-color="#F2C168"/>
<stop offset="0.779" stop-color="#F6D17B"/>
<stop offset="0.8125" stop-color="#FCE594"/>
<stop offset="0.8284" stop-color="#FFF1A3"/>
<stop offset="0.857" stop-color="#F7E398"/>
<stop offset="0.911" stop-color="#E1BF7C"/>
<stop offset="0.984" stop-color="#BE844F"/>
<stop offset="0.9972" stop-color="#B77946"/>
</linearGradient>
<linearGradient id="paint36_linear_2148_18991" x1="174.75" y1="73.3311" x2="134.131" y2="118.355" gradientUnits="userSpaceOnUse">
<stop offset="0.2364" stop-color="#FFE794"/>
<stop offset="0.2662" stop-color="#FBDA85"/>
<stop offset="0.3249" stop-color="#F5C76E"/>
<stop offset="0.3877" stop-color="#F0B95D"/>
<stop offset="0.4568" stop-color="#EEB153"/>
<stop offset="0.5447" stop-color="#EDAE50"/>
<stop offset="0.644" stop-color="#EEB052"/>
<stop offset="0.6982" stop-color="#EFB65A"/>
<stop offset="0.7415" stop-color="#F2C168"/>
<stop offset="0.779" stop-color="#F6D17B"/>
<stop offset="0.8125" stop-color="#FCE594"/>
<stop offset="0.8284" stop-color="#FFF1A3"/>
<stop offset="0.857" stop-color="#F7E398"/>
<stop offset="0.911" stop-color="#E1BF7C"/>
<stop offset="0.984" stop-color="#BE844F"/>
<stop offset="0.9972" stop-color="#B77946"/>
</linearGradient>
<linearGradient id="paint37_linear_2148_18991" x1="159.662" y1="93.8609" x2="134.612" y2="127.1" gradientUnits="userSpaceOnUse">
<stop offset="0.2364" stop-color="#FFE794"/>
<stop offset="0.2662" stop-color="#FBDA85"/>
<stop offset="0.3249" stop-color="#F5C76E"/>
<stop offset="0.3877" stop-color="#F0B95D"/>
<stop offset="0.4568" stop-color="#EEB153"/>
<stop offset="0.5447" stop-color="#EDAE50"/>
<stop offset="0.644" stop-color="#EEB052"/>
<stop offset="0.6982" stop-color="#EFB65A"/>
<stop offset="0.7415" stop-color="#F2C168"/>
<stop offset="0.779" stop-color="#F6D17B"/>
<stop offset="0.8125" stop-color="#FCE594"/>
<stop offset="0.8284" stop-color="#FFF1A3"/>
<stop offset="0.857" stop-color="#F7E398"/>
<stop offset="0.911" stop-color="#E1BF7C"/>
<stop offset="0.984" stop-color="#BE844F"/>
<stop offset="0.9972" stop-color="#B77946"/>
</linearGradient>
<linearGradient id="paint38_linear_2148_18991" x1="180.992" y1="82.8025" x2="141.657" y2="82.8025" gradientUnits="userSpaceOnUse">
<stop offset="0.002793" stop-color="#B77946"/>
<stop offset="0.1828" stop-color="#FFF1A3"/>
<stop offset="0.1899" stop-color="#F2DC93"/>
<stop offset="0.2026" stop-color="#E0BE7B"/>
<stop offset="0.2165" stop-color="#D1A468"/>
<stop offset="0.2319" stop-color="#C59159"/>
<stop offset="0.2497" stop-color="#BD834E"/>
<stop offset="0.272" stop-color="#B87B48"/>
<stop offset="0.3128" stop-color="#B77946"/>
<stop offset="0.3308" stop-color="#BF8148"/>
<stop offset="0.4113" stop-color="#E0A24E"/>
<stop offset="0.4553" stop-color="#EDAE50"/>
<stop offset="1" stop-color="#613F1B"/>
</linearGradient>
<linearGradient id="paint39_linear_2148_18991" x1="170.414" y1="99.8214" x2="139.125" y2="99.8214" gradientUnits="userSpaceOnUse">
<stop offset="0.002793" stop-color="#B77946"/>
<stop offset="0.1828" stop-color="#FFF1A3"/>
<stop offset="0.1899" stop-color="#F2DC93"/>
<stop offset="0.2026" stop-color="#E0BE7B"/>
<stop offset="0.2165" stop-color="#D1A468"/>
<stop offset="0.2319" stop-color="#C59159"/>
<stop offset="0.2497" stop-color="#BD834E"/>
<stop offset="0.272" stop-color="#B87B48"/>
<stop offset="0.3128" stop-color="#B77946"/>
<stop offset="0.3308" stop-color="#BF8148"/>
<stop offset="0.4113" stop-color="#E0A24E"/>
<stop offset="0.4553" stop-color="#EDAE50"/>
<stop offset="1" stop-color="#613F1B"/>
</linearGradient>
<linearGradient id="paint40_linear_2148_18991" x1="158.917" y1="111.288" x2="137.411" y2="111.288" gradientUnits="userSpaceOnUse">
<stop offset="0.002793" stop-color="#B77946"/>
<stop offset="0.1828" stop-color="#FFF1A3"/>
<stop offset="0.1899" stop-color="#F2DC93"/>
<stop offset="0.2026" stop-color="#E0BE7B"/>
<stop offset="0.2165" stop-color="#D1A468"/>
<stop offset="0.2319" stop-color="#C59159"/>
<stop offset="0.2497" stop-color="#BD834E"/>
<stop offset="0.272" stop-color="#B87B48"/>
<stop offset="0.3128" stop-color="#B77946"/>
<stop offset="0.3308" stop-color="#BF8148"/>
<stop offset="0.4113" stop-color="#E0A24E"/>
<stop offset="0.4553" stop-color="#EDAE50"/>
<stop offset="1" stop-color="#613F1B"/>
</linearGradient>
<radialGradient id="paint41_radial_2148_18991" cx="0" cy="0" r="1" gradientUnits="userSpaceOnUse" gradientTransform="translate(163.589 70.8473) rotate(180) scale(16.1935 21.5908)">
<stop stop-color="#F3E8DE"/>
<stop offset="0.5391" stop-color="#F6EEE7" stop-opacity="0.3616"/>
<stop offset="0.9624" stop-color="#F8F1EB" stop-opacity="0"/>
</radialGradient>
<radialGradient id="paint42_radial_2148_18991" cx="0" cy="0" r="1" gradientUnits="userSpaceOnUse" gradientTransform="translate(156.612 90.0941) rotate(180) scale(12.0837 16.1112)">
<stop stop-color="#F3E8DE"/>
<stop offset="0.5391" stop-color="#F6EEE7" stop-opacity="0.3616"/>
<stop offset="0.9624" stop-color="#F8F1EB" stop-opacity="0"/>
</radialGradient>
<radialGradient id="paint43_radial_2148_18991" cx="0" cy="0" r="1" gradientUnits="userSpaceOnUse" gradientTransform="translate(149.407 105.49) rotate(180) scale(8.07931 10.7721)">
<stop stop-color="#F3E8DE"/>
<stop offset="0.5391" stop-color="#F6EEE7" stop-opacity="0.3616"/>
<stop offset="0.9624" stop-color="#F8F1EB" stop-opacity="0"/>
</radialGradient>
</defs>
</svg>
