<svg width="200" height="167" viewBox="0 0 200 167" fill="none" xmlns="http://www.w3.org/2000/svg">
<path d="M155.766 78.54C152.066 119.58 97.5355 146.54 97.5355 146.54C97.5355 146.54 43.0155 119.59 39.3155 78.54C35.6155 37.5 65.6756 29.23 65.6756 29.23C69.9656 44.24 97.5255 29.23 97.5255 29.23C97.5255 29.23 125.096 44.24 129.376 29.23C129.396 29.23 159.466 37.5 155.766 78.54Z" fill="url(#paint0_linear_2148_18847)"/>
<path d="M97.5464 106.34V146.54C97.5464 146.54 43.0264 119.59 39.3264 78.55C35.6464 37.81 65.2464 29.36 65.6764 29.25C65.5264 29.44 63.1164 32.65 62.8864 38.29C55.9564 42.33 44.1864 52.95 46.4464 77.92C48.1264 96.54 62.0664 112.29 75.4064 123.28C77.5664 125.07 80.7564 124.83 82.6364 122.75L97.5464 106.34Z" fill="url(#paint1_linear_2148_18847)"/>
<path d="M97.5448 29.23V37.22C92.7348 39.47 83.8148 43.05 75.8548 43.05C70.4448 43.05 65.9948 41.37 62.8848 38.28C63.1248 32.65 65.5348 29.44 65.6748 29.24C65.6848 29.23 65.6848 29.23 65.6848 29.23C69.9748 44.24 97.5448 29.23 97.5448 29.23Z" fill="url(#paint2_linear_2148_18847)"/>
<path d="M132.195 38.2702C129.085 41.3602 124.635 43.0402 119.225 43.0402C111.265 43.0402 102.355 39.4602 97.5449 37.2102V29.2202C97.5449 29.2202 125.105 44.2302 129.395 29.2202C129.395 29.2202 129.395 29.2202 129.405 29.2302C129.545 29.4302 131.955 32.6402 132.195 38.2702Z" fill="url(#paint3_linear_2148_18847)"/>
<path d="M155.765 78.54C152.065 119.59 97.5352 146.53 97.5352 146.53V106.33L112.465 122.75C114.345 124.83 117.535 125.06 119.695 123.28C133.015 112.3 146.955 96.57 148.635 77.9C150.895 52.91 139.095 42.29 132.185 38.27C131.945 32.64 129.535 29.43 129.385 29.23C129.825 29.35 159.445 37.8 155.765 78.54Z" fill="url(#paint4_linear_2148_18847)"/>
<path d="M155.765 78.54C152.065 119.59 97.5352 146.53 97.5352 146.53V106.33L112.465 122.75C114.345 124.83 117.535 125.06 119.695 123.28C133.015 112.3 146.955 96.57 148.635 77.9C150.895 52.91 139.095 42.29 132.185 38.27C131.945 32.64 129.535 29.43 129.385 29.23C129.825 29.35 159.445 37.8 155.765 78.54Z" fill="url(#paint5_linear_2148_18847)"/>
<path d="M132.196 38.27C129.086 41.36 124.636 43.04 119.226 43.04C111.266 43.04 102.356 39.46 97.5459 37.21C92.7359 39.46 83.8159 43.04 75.8559 43.04C70.4459 43.04 65.9959 41.36 62.8859 38.27C55.9559 42.31 44.1859 52.93 46.4459 77.9C48.1259 96.51 62.0459 112.25 75.3759 123.24C77.5559 125.03 80.7459 124.82 82.6359 122.74L96.0859 107.94C96.8659 107.08 98.2159 107.08 98.9859 107.94L112.466 122.76C114.366 124.85 117.556 125.06 119.726 123.26C133.036 112.28 146.956 96.55 148.636 77.9C150.906 52.91 139.106 42.29 132.196 38.27Z" fill="url(#paint6_linear_2148_18847)"/>
<path d="M132.196 38.27C129.086 41.36 124.636 43.04 119.226 43.04C111.266 43.04 102.356 39.46 97.5459 37.21C92.7359 39.46 83.8159 43.04 75.8559 43.04C70.4459 43.04 65.9959 41.36 62.8859 38.27C55.9559 42.31 44.1859 52.93 46.4459 77.9C48.1259 96.51 62.0459 112.25 75.3759 123.24C77.5559 125.03 80.7459 124.82 82.6359 122.74L96.0859 107.94C96.8659 107.08 98.2159 107.08 98.9859 107.94L112.466 122.76C114.366 124.85 117.556 125.06 119.726 123.26C133.036 112.28 146.956 96.55 148.636 77.9C150.906 52.91 139.106 42.29 132.196 38.27Z" stroke="url(#paint7_linear_2148_18847)" stroke-width="0.8119" stroke-miterlimit="10"/>
<path d="M116.365 122.48C115.435 122.48 114.575 122.1 113.955 121.41L100.475 106.59C99.7254 105.77 98.6554 105.29 97.5454 105.29C96.4354 105.29 95.3654 105.76 94.6154 106.59L81.1654 121.38C80.5354 122.07 79.6854 122.45 78.7554 122.45C77.9954 122.45 77.2454 122.18 76.6554 121.69C64.7054 111.84 50.1154 96.2102 48.4454 77.7202C46.4254 55.4102 55.9554 45.1501 62.6654 40.7601C66.0854 43.5701 70.6054 45.0402 75.8554 45.0402C83.7954 45.0402 92.5454 41.6802 97.5454 39.4102C102.545 41.6802 111.305 45.0402 119.225 45.0402C124.485 45.0402 129.005 43.5602 132.425 40.7502C139.135 45.1302 148.675 55.3702 146.655 77.7102C144.985 96.2402 130.405 111.87 118.465 121.71C117.865 122.21 117.125 122.48 116.365 122.48Z" fill="url(#paint8_radial_2148_18847)"/>
<path d="M132.487 43.2299C128.887 45.7299 124.337 47.0499 119.237 47.0499C111.587 47.0499 103.366 44.1799 97.5565 41.6099C91.7365 44.1699 83.5165 47.0499 75.8665 47.0499C70.7665 47.0499 66.2265 45.7399 62.6265 43.2299C55.8265 48.1799 48.6865 58.0599 50.4465 77.5399C50.8165 81.6599 51.8765 85.6399 53.4065 89.4499C83.6865 82.2799 114.127 68.2399 137.217 47.5799C135.687 45.8199 134.077 44.3799 132.487 43.2299Z" fill="url(#paint9_radial_2148_18847)"/>
<path d="M53.3867 89.4498C58.4867 102.08 68.9567 112.77 77.9167 120.15C78.1467 120.34 78.4467 120.45 78.7467 120.45C79.1167 120.45 79.4367 120.31 79.6767 120.04L93.1267 105.25C94.2567 104.01 95.8667 103.3 97.5367 103.3C99.2067 103.3 100.817 104.01 101.947 105.25L115.427 120.07C115.677 120.34 115.997 120.48 116.357 120.48C116.657 120.48 116.947 120.37 117.187 120.18C128.837 110.58 143.047 95.3899 144.657 77.5499C146.007 62.6099 142.127 53.3398 137.187 47.5898C114.117 68.2398 83.6667 82.2698 53.3867 89.4498Z" fill="url(#paint10_radial_2148_18847)"/>
<path d="M99.9658 135.26L105.376 128.53C106.296 127.38 106.286 125.74 105.346 124.6L99.9358 118.07C98.6958 116.57 96.3958 116.57 95.1558 118.07L89.7458 124.6C88.8058 125.74 88.7958 127.38 89.7158 128.53L95.1258 135.26C96.3658 136.8 98.7158 136.8 99.9658 135.26Z" fill="url(#paint11_linear_2148_18847)"/>
<path d="M97.5458 134.42C97.3458 134.42 96.9758 134.37 96.6858 134.01L91.2758 127.28C90.9458 126.87 90.9558 126.28 91.2858 125.88L96.6958 119.35C96.9858 119 97.3558 118.95 97.5458 118.95C97.7358 118.95 98.1058 119 98.3958 119.35L103.806 125.88C104.136 126.28 104.146 126.87 103.816 127.28L98.4058 134.01C98.1158 134.36 97.7358 134.42 97.5458 134.42Z" fill="url(#paint12_radial_2148_18847)"/>
<path d="M97.6257 119.98H97.4657L92.0557 126.51C92.0257 126.55 92.0257 126.61 92.0557 126.64L93.0157 127.83C96.0957 127.28 99.0057 126.3 101.626 124.79L97.6257 119.98Z" fill="url(#paint13_radial_2148_18847)"/>
<path d="M97.5458 134.42C97.3458 134.42 96.9758 134.37 96.6858 134.01L91.2758 127.28C90.9458 126.87 90.9558 126.28 91.2858 125.88L96.6958 119.35C96.9858 119 97.3558 118.95 97.5458 118.95C97.7358 118.95 98.1058 119 98.3958 119.35L103.806 125.88C104.136 126.28 104.146 126.87 103.816 127.28L98.4058 134.01C98.1158 134.36 97.7358 134.42 97.5458 134.42Z" stroke="url(#paint14_linear_2148_18847)" stroke-width="0.5" stroke-miterlimit="10"/>
<path d="M67.7155 68.22C80.7549 68.22 91.3255 57.6494 91.3255 44.61C91.3255 31.5706 80.7549 21 67.7155 21C54.676 21 44.1055 31.5706 44.1055 44.61C44.1055 57.6494 54.676 68.22 67.7155 68.22Z" fill="url(#paint15_radial_2148_18847)"/>
<path d="M94.6854 139.1C105.819 139.1 114.845 130.074 114.845 118.94C114.845 107.806 105.819 98.7798 94.6854 98.7798C83.5513 98.7798 74.5254 107.806 74.5254 118.94C74.5254 130.074 83.5513 139.1 94.6854 139.1Z" fill="url(#paint16_radial_2148_18847)"/>
<defs>
<linearGradient id="paint0_linear_2148_18847" x1="39.0063" y1="87.8821" x2="156.082" y2="87.8821" gradientUnits="userSpaceOnUse">
<stop stop-color="#B77946"/>
<stop offset="0.2364" stop-color="#FFE794"/>
<stop offset="0.2662" stop-color="#FBDA85"/>
<stop offset="0.3249" stop-color="#F5C76E"/>
<stop offset="0.3877" stop-color="#F0B95D"/>
<stop offset="0.4568" stop-color="#EEB153"/>
<stop offset="0.5447" stop-color="#EDAE50"/>
<stop offset="0.644" stop-color="#EEB052"/>
<stop offset="0.6982" stop-color="#EFB65A"/>
<stop offset="0.7415" stop-color="#F2C168"/>
<stop offset="0.779" stop-color="#F6D17B"/>
<stop offset="0.8125" stop-color="#FCE594"/>
<stop offset="0.8284" stop-color="#FFF1A3"/>
<stop offset="0.857" stop-color="#F7E398"/>
<stop offset="0.911" stop-color="#E1BF7C"/>
<stop offset="0.984" stop-color="#BE844F"/>
<stop offset="0.9972" stop-color="#B77946"/>
</linearGradient>
<linearGradient id="paint1_linear_2148_18847" x1="59.0476" y1="166.436" x2="83.8352" y2="5.9062" gradientUnits="userSpaceOnUse">
<stop stop-color="#B77946"/>
<stop offset="0.2364" stop-color="#FFE794"/>
<stop offset="0.2662" stop-color="#FBDA85"/>
<stop offset="0.3249" stop-color="#F5C76E"/>
<stop offset="0.3877" stop-color="#F0B95D"/>
<stop offset="0.4568" stop-color="#EEB153"/>
<stop offset="0.5447" stop-color="#EDAE50"/>
<stop offset="0.644" stop-color="#EEB052"/>
<stop offset="0.6982" stop-color="#EFB65A"/>
<stop offset="0.7415" stop-color="#F2C168"/>
<stop offset="0.779" stop-color="#F6D17B"/>
<stop offset="0.8125" stop-color="#FCE594"/>
<stop offset="0.8284" stop-color="#FFF1A3"/>
<stop offset="0.857" stop-color="#F7E398"/>
<stop offset="0.911" stop-color="#E1BF7C"/>
<stop offset="0.984" stop-color="#BE844F"/>
<stop offset="0.9972" stop-color="#B77946"/>
</linearGradient>
<linearGradient id="paint2_linear_2148_18847" x1="105.579" y1="35.7785" x2="66.598" y2="36.1804" gradientUnits="userSpaceOnUse">
<stop stop-color="#B77946"/>
<stop offset="0.2364" stop-color="#FFE794"/>
<stop offset="0.2662" stop-color="#FBDA85"/>
<stop offset="0.3249" stop-color="#F5C76E"/>
<stop offset="0.3877" stop-color="#F0B95D"/>
<stop offset="0.4568" stop-color="#EEB153"/>
<stop offset="0.5447" stop-color="#EDAE50"/>
<stop offset="0.638" stop-color="#F4C870"/>
<stop offset="0.7624" stop-color="#FCE695"/>
<stop offset="0.8284" stop-color="#FFF1A3"/>
<stop offset="0.857" stop-color="#F7E398"/>
<stop offset="0.911" stop-color="#E1BF7C"/>
<stop offset="0.984" stop-color="#BE844F"/>
<stop offset="0.9972" stop-color="#B77946"/>
</linearGradient>
<linearGradient id="paint3_linear_2148_18847" x1="97.5411" y1="36.1369" x2="134.108" y2="36.1369" gradientUnits="userSpaceOnUse">
<stop stop-color="#B77946"/>
<stop offset="0.3662" stop-color="#FFE794"/>
<stop offset="0.473" stop-color="#F6C970"/>
<stop offset="0.5644" stop-color="#EFB559"/>
<stop offset="0.6212" stop-color="#EDAE50"/>
<stop offset="0.6717" stop-color="#F0BA5F"/>
<stop offset="0.7689" stop-color="#F9DB87"/>
<stop offset="0.8284" stop-color="#FFF1A3"/>
<stop offset="0.857" stop-color="#F7E398"/>
<stop offset="0.911" stop-color="#E1BF7C"/>
<stop offset="0.984" stop-color="#BE844F"/>
<stop offset="0.9972" stop-color="#B77946"/>
</linearGradient>
<linearGradient id="paint4_linear_2148_18847" x1="156.838" y1="169.529" x2="101.123" y2="46.1001" gradientUnits="userSpaceOnUse">
<stop stop-color="#B77946"/>
<stop offset="0.2364" stop-color="#FFE794"/>
<stop offset="0.2662" stop-color="#FBDA85"/>
<stop offset="0.3249" stop-color="#F5C76E"/>
<stop offset="0.3877" stop-color="#F0B95D"/>
<stop offset="0.4568" stop-color="#EEB153"/>
<stop offset="0.5447" stop-color="#EDAE50"/>
<stop offset="0.644" stop-color="#EEB052"/>
<stop offset="0.6982" stop-color="#EFB65A"/>
<stop offset="0.7415" stop-color="#F2C168"/>
<stop offset="0.779" stop-color="#F6D17B"/>
<stop offset="0.8125" stop-color="#FCE594"/>
<stop offset="0.8284" stop-color="#FFF1A3"/>
<stop offset="0.857" stop-color="#F7E398"/>
<stop offset="0.911" stop-color="#E1BF7C"/>
<stop offset="0.984" stop-color="#BE844F"/>
<stop offset="0.9972" stop-color="#B77946"/>
</linearGradient>
<linearGradient id="paint5_linear_2148_18847" x1="156.838" y1="169.529" x2="101.123" y2="46.1001" gradientUnits="userSpaceOnUse">
<stop offset="0.002793" stop-color="#B77946" stop-opacity="0"/>
<stop offset="0.9274" stop-color="#B77946"/>
</linearGradient>
<linearGradient id="paint6_linear_2148_18847" x1="46.1605" y1="80.8458" x2="148.931" y2="80.8458" gradientUnits="userSpaceOnUse">
<stop stop-color="#613F1B"/>
<stop offset="0.5447" stop-color="#EDAE50"/>
<stop offset="0.5887" stop-color="#E0A24E"/>
<stop offset="0.6692" stop-color="#BF8148"/>
<stop offset="0.6872" stop-color="#B77946"/>
<stop offset="0.728" stop-color="#B87B48"/>
<stop offset="0.7503" stop-color="#BD834E"/>
<stop offset="0.7681" stop-color="#C59159"/>
<stop offset="0.7835" stop-color="#D1A468"/>
<stop offset="0.7974" stop-color="#E0BE7B"/>
<stop offset="0.8101" stop-color="#F2DC93"/>
<stop offset="0.8172" stop-color="#FFF1A3"/>
<stop offset="0.9972" stop-color="#B77946"/>
</linearGradient>
<linearGradient id="paint7_linear_2148_18847" x1="45.7546" y1="80.8248" x2="149.337" y2="80.8248" gradientUnits="userSpaceOnUse">
<stop stop-color="#B77946"/>
<stop offset="0.2364" stop-color="#FFE794"/>
<stop offset="0.2662" stop-color="#FBDA85"/>
<stop offset="0.3249" stop-color="#F5C76E"/>
<stop offset="0.3877" stop-color="#F0B95D"/>
<stop offset="0.4568" stop-color="#EEB153"/>
<stop offset="0.5447" stop-color="#EDAE50"/>
<stop offset="0.644" stop-color="#EEB052"/>
<stop offset="0.6982" stop-color="#EFB65A"/>
<stop offset="0.7415" stop-color="#F2C168"/>
<stop offset="0.779" stop-color="#F6D17B"/>
<stop offset="0.8125" stop-color="#FCE594"/>
<stop offset="0.8284" stop-color="#FFF1A3"/>
<stop offset="0.857" stop-color="#F7E398"/>
<stop offset="0.911" stop-color="#E1BF7C"/>
<stop offset="0.984" stop-color="#BE844F"/>
<stop offset="0.9972" stop-color="#B77946"/>
</linearGradient>
<radialGradient id="paint8_radial_2148_18847" cx="0" cy="0" r="1" gradientUnits="userSpaceOnUse" gradientTransform="translate(139.898 120.185) scale(153.97 153.97)">
<stop stop-color="#593B22"/>
<stop offset="0.1525" stop-color="#402B18"/>
<stop offset="0.3634" stop-color="#24180E"/>
<stop offset="0.5755" stop-color="#100B06"/>
<stop offset="0.7876" stop-color="#040402"/>
<stop offset="1" stop-color="#000100"/>
</radialGradient>
<radialGradient id="paint9_radial_2148_18847" cx="0" cy="0" r="1" gradientUnits="userSpaceOnUse" gradientTransform="translate(68.8766 7.04046) scale(92.3886 92.3886)">
<stop stop-color="#55BAFF"/>
<stop offset="0.0216" stop-color="#59BBFE" stop-opacity="0.9767"/>
<stop offset="0.4634" stop-color="#ADD8F2" stop-opacity="0.5005"/>
<stop offset="0.7756" stop-color="#E1E9EB" stop-opacity="0.1639"/>
<stop offset="0.9277" stop-color="#F5F0E8" stop-opacity="0"/>
</radialGradient>
<radialGradient id="paint10_radial_2148_18847" cx="0" cy="0" r="1" gradientUnits="userSpaceOnUse" gradientTransform="translate(151.591 136.041) scale(96.0863 96.0863)">
<stop stop-color="#EDAE50"/>
<stop offset="0.1105" stop-color="#DFA44B" stop-opacity="0.8892"/>
<stop offset="0.3188" stop-color="#BB893F" stop-opacity="0.6803"/>
<stop offset="0.6028" stop-color="#805D2C" stop-opacity="0.3955"/>
<stop offset="0.9483" stop-color="#2F2111" stop-opacity="0.0491"/>
<stop offset="0.9972" stop-color="#23180D" stop-opacity="0"/>
</radialGradient>
<linearGradient id="paint11_linear_2148_18847" x1="89.0262" y1="126.679" x2="110.021" y2="126.679" gradientUnits="userSpaceOnUse">
<stop stop-color="#613F1B"/>
<stop offset="0.4207" stop-color="#EDAE50"/>
<stop offset="0.4684" stop-color="#F0B85D"/>
<stop offset="0.5556" stop-color="#F7D37E"/>
<stop offset="0.6388" stop-color="#FFF1A3"/>
<stop offset="0.6934" stop-color="#FCEB9F"/>
<stop offset="0.7643" stop-color="#F2DB92"/>
<stop offset="0.8443" stop-color="#E2C07D"/>
<stop offset="0.9302" stop-color="#CB9B60"/>
<stop offset="0.9972" stop-color="#B77946"/>
</linearGradient>
<radialGradient id="paint12_radial_2148_18847" cx="0" cy="0" r="1" gradientUnits="userSpaceOnUse" gradientTransform="translate(94.9557 122.837) scale(13.5978 13.5978)">
<stop stop-color="#FEFEFE"/>
<stop offset="0.3868" stop-color="#EBDFD2"/>
<stop offset="0.7903" stop-color="#DAC3AA"/>
<stop offset="1" stop-color="#D4B89B"/>
</radialGradient>
<radialGradient id="paint13_radial_2148_18847" cx="0" cy="0" r="1" gradientUnits="userSpaceOnUse" gradientTransform="translate(97.9116 122.112) scale(12.1293)">
<stop stop-color="#FAF7F4"/>
<stop offset="0.9972" stop-color="#F5F0E8" stop-opacity="0"/>
</radialGradient>
<linearGradient id="paint14_linear_2148_18847" x1="90.7769" y1="126.679" x2="104.307" y2="126.679" gradientUnits="userSpaceOnUse">
<stop stop-color="#B77946"/>
<stop offset="0.1034" stop-color="#EDAE50"/>
<stop offset="0.1954" stop-color="#E2A54D"/>
<stop offset="0.355" stop-color="#C68E45"/>
<stop offset="0.5617" stop-color="#996839"/>
<stop offset="0.6341" stop-color="#875934"/>
<stop offset="0.6378" stop-color="#8A5D37"/>
<stop offset="0.6745" stop-color="#A98454"/>
<stop offset="0.7138" stop-color="#C4A66C"/>
<stop offset="0.7555" stop-color="#D9C180"/>
<stop offset="0.8006" stop-color="#EAD790"/>
<stop offset="0.8507" stop-color="#F6E69B"/>
<stop offset="0.9097" stop-color="#FDEEA1"/>
<stop offset="1" stop-color="#FFF1A3"/>
</linearGradient>
<radialGradient id="paint15_radial_2148_18847" cx="0" cy="0" r="1" gradientUnits="userSpaceOnUse" gradientTransform="translate(67.7138 44.6148) rotate(-12.0515) scale(23.6142)">
<stop stop-color="#F3E8DE"/>
<stop offset="0.5391" stop-color="#F6EEE7" stop-opacity="0.3616"/>
<stop offset="0.9624" stop-color="#F8F1EB" stop-opacity="0"/>
</radialGradient>
<radialGradient id="paint16_radial_2148_18847" cx="0" cy="0" r="1" gradientUnits="userSpaceOnUse" gradientTransform="translate(94.6823 118.943) rotate(-12.0515) scale(20.1572 20.1572)">
<stop stop-color="#F3E8DE"/>
<stop offset="0.5391" stop-color="#F6EEE7" stop-opacity="0.3616"/>
<stop offset="0.9624" stop-color="#F8F1EB" stop-opacity="0"/>
</radialGradient>
</defs>
</svg>
