<svg width="200" height="167" viewBox="0 0 200 167" fill="none" xmlns="http://www.w3.org/2000/svg">
<path d="M111.359 148.05C110.359 148.01 108.709 147.48 105.439 146.37C104.499 146.05 103.339 145.66 103.039 145.59C102.119 145.4 91.7692 143.6 84.0392 143.29C76.3092 142.98 75.0292 142.24 71.3392 138.21L70.6992 137.52C69.1892 135.88 67.5892 135.08 65.7392 134.15C63.6492 133.1 61.2792 131.92 58.8792 129.41C55.9692 126.38 53.2692 122.74 51.4792 120.33C50.7292 119.32 50.0192 118.36 49.7292 118.04C48.1092 116.28 44.5992 109.14 43.2492 104.87C42.3992 102.18 42.3892 100.93 42.3892 99.9198C42.3792 99.2098 42.3792 98.7398 41.9892 97.5298C41.6392 96.4498 41.3092 95.7198 41.0092 95.0698C40.4092 93.7398 39.7892 92.3698 40.4792 90.3598C40.5992 89.8698 40.7492 87.7498 40.2092 79.5798L40.1592 78.7498C40.0092 76.2098 43.3492 72.1198 46.1892 69.1398C46.7892 68.5098 48.2392 66.0298 49.3292 63.9498C49.7192 61.2198 50.7392 56.9298 53.3192 55.6598C54.0692 55.2398 56.4592 52.5698 57.8792 50.9698C59.6692 48.9598 61.2192 47.2298 62.3492 46.3598C75.9892 35.8898 78.5492 35.9898 79.5092 36.0298C79.6492 36.0398 79.7892 36.0498 79.9192 36.0698C81.1892 36.0798 86.5492 34.4498 89.7692 33.4798C93.9692 32.2098 96.6192 31.4198 97.9892 31.2998C98.3492 31.2698 98.7892 31.2698 99.3392 31.2898C102.579 31.4198 109.639 32.4898 113.849 33.1198C115.199 33.3198 116.219 33.4798 116.689 33.5398C118.359 33.7498 119.159 34.2998 119.999 34.8898C120.659 35.3498 121.489 35.9198 123.349 36.7598C126.819 38.3098 133.499 39.5498 135.689 39.9598C136.059 40.0298 136.319 40.0798 136.459 40.1098C139.159 40.6698 143.649 48.2098 144.519 49.7098C144.659 49.9098 145.619 50.7198 148.019 51.6298L149.139 52.0498L149.499 53.1998C149.549 53.3698 150.749 57.3298 151.209 59.1198C151.379 59.6998 152.679 61.3698 153.379 62.2698C154.259 63.3998 155.029 64.3798 155.459 65.2498C156.039 66.3998 157.379 71.1398 160.239 82.1398L160.669 83.7698C161.159 85.6398 160.649 89.2698 159.519 95.2998C159.379 96.0798 159.209 96.9498 159.189 97.1698C158.809 106.71 157.889 112.49 156.449 114.25C155.709 115.15 154.779 118.64 154.369 121.33L154.269 121.96L153.879 122.46C153.549 122.88 151.909 124.86 149.689 125.1C148.999 125.67 147.619 127.39 146.849 128.35C145.689 129.79 145.009 130.63 144.369 131.14C143.799 131.59 142.779 132.18 140.859 133.26C138.179 134.78 134.499 136.87 132.699 138.43C129.649 141.08 124.749 145.54 123.929 146.3C121.939 148.13 111.459 148.06 111.359 148.05Z" fill="url(#paint0_linear_2148_18742)"/>
<path d="M145.709 52.0497C145.189 51.8797 141.779 50.7497 140.839 49.2697C138.799 46.0497 135.099 41.2697 134.059 41.0897C133.019 40.9197 124.669 39.8697 120.319 38.1297C115.969 36.3897 116.319 35.5197 114.229 35.3497C112.139 35.1797 98.7488 33.5097 95.9588 33.8497C93.1788 34.1997 79.7789 39.6897 77.5189 39.3497C75.2589 38.9997 64.2988 48.0497 62.2088 49.7897C60.1188 51.5297 55.0789 58.6597 53.1589 59.7097C51.2489 60.7497 50.7189 66.6697 50.7189 66.6697C50.7189 66.6697 48.4589 71.5397 47.2389 72.9297C46.0189 74.3197 42.0189 79.1897 42.1889 80.9297C42.3589 82.6697 43.4088 91.7197 42.8888 93.4597C42.3688 95.1997 43.4089 95.7197 44.6289 99.0297C45.8489 102.34 44.6288 101.99 46.1988 106.34C47.7688 110.69 51.4188 117.13 52.6388 118.34C53.8588 119.56 57.8588 125.12 62.2088 129.3C66.5588 133.48 70.5588 133.13 74.3888 136.95C78.2188 140.78 78.3888 141.47 86.2188 141.47C94.0488 141.47 104.659 142.86 105.699 143.04C106.739 143.21 112.479 145.13 113.699 145.13C114.919 145.13 123.619 144.43 124.489 143.56C125.359 142.69 130.029 138.08 132.989 135.3C135.949 132.52 143.219 128.52 144.439 127.47C145.659 126.43 149.109 120.69 150.499 120.69C151.889 120.69 153.199 118.86 153.199 118.86C153.199 118.86 153.899 112.6 155.459 110.51C157.029 108.42 157.029 95.5897 157.029 94.7197C157.029 93.8497 158.769 84.3297 158.069 82.0597C157.369 79.7997 153.199 65.7897 152.329 64.2297C151.459 62.6597 148.149 59.5297 147.629 57.7897C147.099 56.0497 145.709 52.0497 145.709 52.0497Z" fill="url(#paint1_linear_2148_18742)"/>
<path d="M56.5691 56.2598C55.1891 57.8898 53.9291 59.2798 53.1591 59.6998C51.2491 60.7398 50.7191 66.6598 50.7191 66.6598C50.7191 66.6598 50.4491 67.2498 50.0391 68.0698C62.7391 66.3098 75.2691 64.3998 87.5691 61.7198C77.1991 59.9298 66.8491 58.0698 56.5691 56.2598Z" fill="url(#paint2_radial_2148_18742)"/>
<path d="M87.5695 61.7197C75.2695 64.3997 62.7395 66.3097 50.0395 68.0697C49.3595 69.4497 48.2995 71.4997 47.5195 72.5697C60.3495 78.6397 73.5295 83.8297 86.9295 88.4097C91.4095 85.7497 95.8795 83.0997 100.32 80.4297C98.2195 74.5897 96.1795 68.7297 94.1495 62.8597C91.9595 62.4797 89.7695 62.0997 87.5695 61.7197Z" fill="url(#paint3_radial_2148_18742)"/>
<path d="M85.1086 37.3496C81.6586 38.5196 78.5086 39.4996 77.5086 39.3496C75.2486 38.9996 64.2886 48.0496 62.1986 49.7896C60.9486 50.8296 58.6286 53.8196 56.5586 56.2696C66.8486 58.0696 77.1886 59.9296 87.5686 61.7296C89.4886 61.3096 91.3986 60.8696 93.3086 60.4096C90.6486 52.7196 87.9686 45.0196 85.1086 37.3496Z" fill="url(#paint4_radial_2148_18742)"/>
<path d="M93.3084 60.4097C91.3984 60.8697 89.4884 61.3097 87.5684 61.7297C89.7584 62.1097 91.9584 62.4897 94.1584 62.8597C93.8784 62.0397 93.5884 61.2197 93.3084 60.4097Z" fill="url(#paint5_radial_2148_18742)"/>
<path d="M86.9297 88.4097C93.0897 90.5097 99.2797 92.4997 105.53 94.3597C103.73 89.7397 102.01 85.0897 100.33 80.4297C95.8797 83.0997 91.4197 85.7497 86.9297 88.4097Z" fill="url(#paint6_radial_2148_18742)"/>
<path d="M140.839 49.2699C139.889 47.7799 138.589 45.9499 137.359 44.3999C123.169 51.8299 108.429 56.7799 93.3086 60.4099C93.5886 61.2299 93.8786 62.0399 94.1586 62.8599C103.349 64.4099 112.569 65.8799 121.799 67.1799C129.549 62.2299 137.189 57.1099 144.689 51.6899C143.459 51.2099 141.519 50.3299 140.839 49.2699Z" fill="url(#paint7_radial_2148_18742)"/>
<path d="M134.059 41.0897C133.019 40.9197 124.669 39.8697 120.319 38.1297C115.969 36.3897 116.319 35.5197 114.229 35.3497C112.139 35.1797 98.7491 33.5097 95.9591 33.8497C94.3991 34.0397 89.5091 35.8597 85.1191 37.3497C87.9791 45.0197 90.6591 52.7197 93.3191 60.4097C108.439 56.7797 123.179 51.8297 137.369 44.3997C135.939 42.6097 134.619 41.1797 134.059 41.0897Z" fill="url(#paint8_radial_2148_18742)"/>
<path d="M100.328 80.4299C107.558 76.0899 114.728 71.6999 121.808 67.1799C112.578 65.8799 103.358 64.4099 94.168 62.8599C96.188 68.7199 98.228 74.5899 100.328 80.4299Z" fill="url(#paint9_radial_2148_18742)"/>
<path d="M145.709 52.0499C145.559 51.9999 145.179 51.8699 144.689 51.6899C137.189 57.1099 129.549 62.2299 121.799 67.1799C126.879 67.8899 131.959 68.5599 137.039 69.1499C140.479 65.0499 143.899 60.9399 147.309 56.8199C146.689 54.8799 145.709 52.0499 145.709 52.0499Z" fill="url(#paint10_radial_2148_18742)"/>
<path d="M100.328 80.4297C102.008 85.0897 103.728 89.7397 105.528 94.3597C108.198 95.1597 110.878 95.9397 113.568 96.6997C121.498 87.5997 129.308 78.3997 137.048 69.1497C131.968 68.5597 126.888 67.8997 121.808 67.1797C114.718 71.6997 107.558 76.0897 100.328 80.4297Z" fill="url(#paint11_radial_2148_18742)"/>
<path d="M158.059 82.0596C157.649 80.7396 156.059 75.4096 154.629 70.8896C148.769 70.4196 142.899 69.8196 137.039 69.1396C129.299 78.3896 121.489 87.5996 113.559 96.6896C127.229 100.56 141.069 103.95 154.959 107.11C155.469 106.86 155.979 106.6 156.479 106.34C157.019 101.8 157.019 95.3196 157.019 94.7096C157.019 93.8496 158.759 84.3196 158.059 82.0596Z" fill="url(#paint12_radial_2148_18742)"/>
<path d="M156.479 106.34C155.979 106.6 155.469 106.86 154.959 107.11C155.419 107.21 155.879 107.32 156.329 107.42C156.389 107.08 156.429 106.72 156.479 106.34Z" fill="url(#paint13_radial_2148_18742)"/>
<path d="M152.319 64.2296C151.449 62.6596 148.139 59.5296 147.619 57.7896C147.539 57.5096 147.429 57.1796 147.309 56.8096C143.899 60.9296 140.469 65.0396 137.039 69.1396C142.899 69.8196 148.759 70.4096 154.629 70.8896C153.619 67.6796 152.679 64.8796 152.319 64.2296Z" fill="url(#paint14_radial_2148_18742)"/>
<path d="M46.1989 106.33C46.7789 107.95 47.6589 109.86 48.5889 111.69C55.1289 107.52 61.6789 103.51 68.2089 99.5699C59.7689 96.6599 51.3689 93.5099 42.9989 90.1099C43.0689 91.6399 43.0589 92.9099 42.8989 93.4499C42.3789 95.1899 43.4189 95.7099 44.6389 99.0199C45.8489 102.33 44.6289 101.98 46.1989 106.33Z" fill="url(#paint15_radial_2148_18742)"/>
<path d="M47.2389 72.9298C46.0189 74.3198 42.0189 79.1898 42.1889 80.9298C42.3089 82.1198 42.8389 86.7598 42.9889 90.1098C51.3489 93.5098 59.7488 96.6498 68.1988 99.5698C74.4588 95.7998 80.7088 92.0998 86.9288 88.4098C73.5288 83.8298 60.3489 78.6398 47.5189 72.5698C47.4289 72.6998 47.3289 72.8298 47.2389 72.9298Z" fill="url(#paint16_radial_2148_18742)"/>
<path d="M62.2098 129.29C66.5598 133.47 70.5598 133.12 74.3898 136.94C74.8298 137.38 75.2098 137.77 75.5698 138.13C82.2698 131.26 88.8398 124.25 95.3098 117.15C81.9498 118.73 68.6098 120.22 55.2598 121.49C57.0998 123.76 59.5898 126.78 62.2098 129.29Z" fill="url(#paint17_radial_2148_18742)"/>
<path d="M68.2079 99.5698C61.6779 103.51 55.1279 107.52 48.5879 111.69C50.1479 114.76 51.8679 117.57 52.6379 118.34C53.1179 118.82 54.0479 120 55.2579 121.5C68.5979 120.23 81.9379 118.74 95.3079 117.16C97.4879 114.77 99.6579 112.37 101.808 109.97C90.5379 106.85 79.3379 103.41 68.2079 99.5698Z" fill="url(#paint18_radial_2148_18742)"/>
<path d="M108.689 102.23C107.609 99.6197 106.549 96.9897 105.529 94.3597C99.2892 92.4997 93.0892 90.5097 86.9292 88.4097C80.7092 92.0997 74.4592 95.7997 68.1992 99.5697C79.3292 103.41 90.5292 106.85 101.799 109.96C104.109 107.39 106.409 104.81 108.689 102.23Z" fill="url(#paint19_radial_2148_18742)"/>
<path d="M113.56 96.6896C110.87 95.9296 108.2 95.1496 105.52 94.3496C106.55 96.9796 107.6 99.5996 108.68 102.22C110.32 100.38 111.95 98.5496 113.56 96.6896Z" fill="url(#paint20_radial_2148_18742)"/>
<path d="M75.5586 138.13C78.3386 140.92 79.2686 141.47 86.2086 141.47C94.0386 141.47 104.649 142.86 105.689 143.04C106.729 143.21 112.469 145.13 113.689 145.13C114.909 145.13 123.609 144.43 124.479 143.56C124.739 143.3 125.339 142.7 126.139 141.92C124.469 136.56 122.729 131.2 119.929 126.29C117.919 122.51 116.049 118.7 114.249 114.86C107.929 115.64 101.609 116.4 95.2986 117.15C88.8286 124.25 82.2586 131.26 75.5586 138.13Z" fill="url(#paint21_radial_2148_18742)"/>
<path d="M101.809 109.96C99.6486 112.37 97.4786 114.77 95.3086 117.15C101.619 116.4 107.929 115.64 114.259 114.86C113.979 114.25 113.689 113.64 113.409 113.03C109.529 112.05 105.669 111.02 101.809 109.96Z" fill="url(#paint22_radial_2148_18742)"/>
<path d="M108.689 102.23C106.409 104.82 104.109 107.39 101.809 109.96C105.669 111.02 109.529 112.05 113.399 113.03C111.759 109.45 110.189 105.85 108.689 102.23Z" fill="url(#paint23_radial_2148_18742)"/>
<path d="M113.398 113.03C113.678 113.64 113.968 114.25 114.248 114.86C115.708 114.68 117.168 114.5 118.638 114.32C116.888 113.89 115.138 113.47 113.398 113.03Z" fill="url(#paint24_radial_2148_18742)"/>
<path d="M114.248 114.86C116.038 118.7 117.918 122.51 119.928 126.29C122.728 131.2 124.478 136.56 126.138 141.92C127.998 140.09 130.908 137.25 132.978 135.3C135.938 132.52 143.208 128.52 144.428 127.47C145.428 126.61 147.948 122.57 149.588 121.17C139.208 119.12 128.898 116.84 118.638 114.33C117.178 114.5 115.718 114.68 114.248 114.86Z" fill="url(#paint25_radial_2148_18742)"/>
<path d="M154.959 107.11C141.069 103.95 127.239 100.56 113.559 96.6899C111.949 98.5399 110.309 100.38 108.689 102.22C110.189 105.84 111.759 109.44 113.399 113.02C115.139 113.46 116.889 113.88 118.639 114.31C125.819 113.43 133.019 112.54 140.229 111.66C145.219 111.12 150.219 109.43 154.959 107.11Z" fill="url(#paint26_radial_2148_18742)"/>
<path d="M140.229 111.68C133.019 112.55 125.829 113.44 118.639 114.33C128.899 116.84 139.209 119.12 149.589 121.17C149.939 120.87 150.249 120.69 150.499 120.69C151.889 120.69 153.199 118.86 153.199 118.86C153.199 118.86 153.899 112.6 155.459 110.51C155.839 110.01 156.119 108.87 156.339 107.43C155.879 107.33 155.419 107.22 154.969 107.12C150.219 109.43 145.219 111.12 140.229 111.68Z" fill="url(#paint27_radial_2148_18742)"/>
<path d="M140.839 49.2699C139.889 47.7799 138.589 45.9499 137.359 44.3999C123.169 51.8299 108.429 56.7799 93.3086 60.4099C93.5886 61.2299 93.8786 62.0399 94.1586 62.8599C103.349 64.4099 112.569 65.8799 121.799 67.1799C129.549 62.2299 137.189 57.1099 144.689 51.6899C143.459 51.2099 141.519 50.3299 140.839 49.2699Z" fill="url(#paint28_linear_2148_18742)"/>
<path d="M158.059 82.0601C157.649 80.7401 156.059 75.4101 154.629 70.8901C148.769 70.4201 142.899 69.8201 137.039 69.1401C129.299 78.3901 121.489 87.6001 113.559 96.6901C127.229 100.56 141.069 103.95 154.959 107.11C155.469 106.86 155.979 106.6 156.479 106.34C157.019 101.8 157.019 95.3201 157.019 94.7101C157.019 93.8501 158.759 84.3201 158.059 82.0601Z" fill="url(#paint29_linear_2148_18742)"/>
<path d="M47.2389 72.9298C46.0189 74.3198 42.0189 79.1898 42.1889 80.9298C42.3089 82.1198 42.8389 86.7598 42.9889 90.1098C51.3489 93.5098 59.7488 96.6498 68.1988 99.5698C74.4588 95.7998 80.7088 92.0998 86.9288 88.4098C73.5288 83.8298 60.3489 78.6398 47.5189 72.5698C47.4289 72.6998 47.3289 72.8298 47.2389 72.9298Z" fill="url(#paint30_linear_2148_18742)"/>
<path d="M75.5586 138.13C78.3386 140.92 79.2686 141.47 86.2086 141.47C94.0386 141.47 104.649 142.86 105.689 143.04C106.729 143.21 112.469 145.13 113.689 145.13C114.909 145.13 123.609 144.43 124.479 143.56C124.739 143.3 125.339 142.7 126.139 141.92C124.469 136.56 122.729 131.2 119.929 126.29C117.919 122.51 116.049 118.7 114.249 114.86C107.929 115.64 101.609 116.4 95.2986 117.15C88.8286 124.25 82.2586 131.26 75.5586 138.13Z" fill="url(#paint31_linear_2148_18742)"/>
<path d="M114.248 114.86C116.038 118.7 117.918 122.51 119.928 126.29C122.728 131.2 124.478 136.56 126.138 141.92C127.998 140.09 130.908 137.25 132.978 135.3C135.938 132.52 143.208 128.52 144.428 127.47C145.428 126.61 147.948 122.57 149.588 121.17C139.208 119.12 128.898 116.84 118.638 114.33C117.178 114.5 115.718 114.68 114.248 114.86Z" fill="url(#paint32_linear_2148_18742)"/>
<path d="M145.709 52.0497C145.189 51.8797 141.779 50.7497 140.839 49.2697C138.799 46.0497 135.099 41.2697 134.059 41.0897C133.019 40.9197 124.669 39.8697 120.319 38.1297C115.969 36.3897 116.319 35.5197 114.229 35.3497C112.139 35.1797 98.7488 33.5097 95.9588 33.8497C93.1788 34.1997 79.7789 39.6897 77.5189 39.3497C75.2589 38.9997 64.2988 48.0497 62.2088 49.7897C60.1188 51.5297 55.0789 58.6597 53.1589 59.7097C51.2489 60.7497 50.7189 66.6697 50.7189 66.6697C50.7189 66.6697 48.4589 71.5397 47.2389 72.9297C46.0189 74.3197 42.0189 79.1897 42.1889 80.9297C42.3589 82.6697 43.4088 91.7197 42.8888 93.4597C42.3688 95.1997 43.4089 95.7197 44.6289 99.0297C45.8489 102.34 44.6288 101.99 46.1988 106.34C47.7688 110.69 51.4188 117.13 52.6388 118.34C53.8588 119.56 57.8588 125.12 62.2088 129.3C66.5588 133.48 70.5588 133.13 74.3888 136.95C78.2188 140.78 78.3888 141.47 86.2188 141.47C94.0488 141.47 104.659 142.86 105.699 143.04C106.739 143.21 112.479 145.13 113.699 145.13C114.919 145.13 123.619 144.43 124.489 143.56C125.359 142.69 130.029 138.08 132.989 135.3C135.949 132.52 143.219 128.52 144.439 127.47C145.659 126.43 149.109 120.69 150.499 120.69C151.889 120.69 153.199 118.86 153.199 118.86C153.199 118.86 153.899 112.6 155.459 110.51C157.029 108.42 157.029 95.5897 157.029 94.7197C157.029 93.8497 158.769 84.3297 158.069 82.0597C157.369 79.7997 153.199 65.7897 152.329 64.2297C151.459 62.6597 148.149 59.5297 147.629 57.7897C147.099 56.0497 145.709 52.0497 145.709 52.0497Z" stroke="url(#paint33_linear_2148_18742)" stroke-width="0.8119" stroke-miterlimit="10"/>
<path d="M108.87 133.37C107.71 133.53 106.63 133.49 105.59 133.45C105.02 133.43 104.48 133.41 103.96 133.43C103.44 133.44 102.91 133.5 102.34 133.55C101.31 133.65 100.24 133.75 99.0701 133.66C97.9201 133.57 96.8801 133.25 95.9601 132.97C95.3701 132.79 94.8201 132.62 94.3001 132.53C93.9601 132.47 93.3701 132.55 92.8001 132.63C91.8001 132.76 90.5601 132.93 89.2701 132.58C88.1801 132.28 87.2001 131.84 86.2501 131.41C85.7001 131.16 85.1901 130.93 84.6801 130.74C84.1901 130.56 83.6201 130.42 83.0201 130.27C82.1201 130.05 81.1101 129.81 80.1101 129.35C78.0901 128.61 77.1901 126.73 76.5301 125.35C76.3901 125.05 76.2501 124.76 76.1101 124.5C74.8301 123.81 73.5001 123.09 72.3101 122.14L71.7501 121.7C70.6801 120.85 69.5701 119.97 68.5601 118.87C67.7401 117.97 67.2401 116.98 66.7901 116.1C66.5201 115.58 66.2701 115.08 65.9901 114.69C65.8301 114.46 65.3001 114.11 64.8701 113.83C64.0001 113.25 62.9301 112.54 62.2401 111.35C61.4401 109.96 60.6701 108.49 59.9701 107.09L59.9301 107.01L59.8901 106.92C59.3801 105.69 59.0901 104.43 58.8101 103.21C58.7001 102.72 58.5901 102.23 58.4601 101.75C58.1301 100.52 58.1401 99.3199 58.1501 98.2599C58.1501 97.6099 58.1601 96.9999 58.0801 96.4799C57.8101 94.5299 57.6601 92.8899 57.6201 91.3199C57.6101 90.7899 57.4901 90.1699 57.3701 89.5199C57.1801 88.4999 56.9601 87.3399 57.0601 86.0899C57.1001 85.5399 57.1201 84.9499 57.1301 84.3399C57.1501 83.2099 57.1801 82.0399 57.4001 80.8399C57.6301 79.5999 58.0001 78.4299 58.3701 77.3099C58.5401 76.7999 58.7001 76.2899 58.8501 75.7899C59.0001 75.2699 59.1301 74.7599 59.2501 74.2399C59.5201 73.1299 59.8001 71.9899 60.2701 70.8699C60.7501 69.7399 61.4601 68.7999 62.0801 67.9799C62.4501 67.4899 62.8101 67.0199 63.0601 66.5799L63.2101 66.3099C63.9801 64.9699 64.7701 63.5899 65.7401 62.2899C66.4601 61.3199 67.3301 60.5299 68.0901 59.8299C68.5201 59.4399 68.9301 59.0599 69.2801 58.6899C70.4201 57.4799 71.5601 56.2699 72.8601 55.1799C73.7801 54.4099 74.7801 53.8799 75.6701 53.4199C76.2101 53.1399 76.7101 52.8799 77.1501 52.5899C77.5401 52.3299 77.9601 51.9199 78.4101 51.4799C79.1401 50.7699 79.9601 49.9599 81.0701 49.3999C82.5301 48.6499 84.0801 47.9599 85.6801 47.3599C86.1501 47.1799 86.6201 46.9799 87.1001 46.7799C88.1401 46.3299 89.2301 45.8699 90.4201 45.5699C91.9401 45.1799 93.4901 44.8699 95.0101 44.6399L95.3901 44.5799C96.7601 44.3899 98.0001 44.7799 99.0001 45.0899C99.5601 45.2599 100.13 45.4399 100.48 45.4299C100.66 45.4299 100.87 45.4099 101.11 45.3699C101.45 45.3199 101.78 45.2499 102.12 45.1799C102.54 45.0899 102.97 45.0099 103.39 44.9499C104.17 44.8299 104.83 44.8099 105.48 44.8599C107.16 45.0099 108.83 45.2499 110.44 45.5899C110.94 45.6899 111.46 45.7699 111.97 45.8499C113.07 46.0199 114.21 46.1999 115.38 46.5799L116.01 46.7799C117.41 47.2299 118.86 47.6999 120.27 48.3599C121.46 48.9099 122.32 49.7599 123.08 50.5099C123.54 50.9599 123.97 51.3799 124.36 51.6199C125.65 52.4099 126.93 53.3199 128.51 54.5499C128.84 54.7999 129.4 55.0299 129.99 55.2799C131 55.6899 132.14 56.1599 133.1 57.0999C134.17 58.1499 135.11 59.2899 136.02 60.3999L136.52 60.9999C137.36 62.0199 137.76 63.1799 138.1 64.1899C138.31 64.7899 138.5 65.3599 138.74 65.7299C139.04 66.1799 139.41 66.6399 139.81 67.1199C140.46 67.9099 141.2 68.7999 141.75 69.8899L142.18 70.7299C142.8 71.9399 143.45 73.1999 143.94 74.5599C144.39 75.7899 144.62 76.9999 144.85 78.1699C144.94 78.6399 145.03 79.1199 145.14 79.5799C145.26 80.0799 145.41 80.6099 145.58 81.1599C145.89 82.1999 146.25 83.3699 146.37 84.6299C146.42 85.1299 146.49 85.6299 146.56 86.1399C146.73 87.3299 146.9 88.5599 146.84 89.8699C146.78 91.1499 146.39 92.3099 146.04 93.3299C145.84 93.9299 145.64 94.4899 145.55 94.9999L145.24 96.6499C145.37 97.8199 145.48 99.1199 145.13 100.48C144.8 101.77 144.27 102.89 143.76 103.97C143.48 104.56 143.21 105.13 143 105.68C142.59 106.74 142.25 107.84 141.88 109.01C141.71 109.55 141.54 110.08 141.37 110.62L141.25 110.99C141.25 110.99 140.6 111.86 140.4 112.12C139.4 113.44 138.74 114.32 138.39 115.38L138.29 115.69L138.11 115.96C137.41 117.02 136.48 117.77 135.67 118.43C135.19 118.82 134.74 119.19 134.45 119.53C133.66 120.46 132.75 121.15 131.95 121.76C131.5 122.1 131.07 122.43 130.71 122.76C130.32 123.11 129.97 123.48 129.61 123.85C128.86 124.62 128.09 125.41 127.1 126.11C126.68 126.4 126.27 126.76 125.82 127.14C125.05 127.8 124.18 128.55 123.12 129.11C122.01 129.7 120.88 129.91 119.89 130.1C119.3 130.21 118.74 130.31 118.31 130.48C117.83 130.66 117.34 130.91 116.82 131.17C115.93 131.61 114.92 132.11 113.76 132.41C112.3 132.78 110.89 133.07 109.43 133.28L108.87 133.37Z" fill="url(#paint34_linear_2148_18742)"/>
<path opacity="0.43" d="M108.87 133.37C107.71 133.53 106.63 133.49 105.59 133.45C105.02 133.43 104.48 133.41 103.96 133.43C103.44 133.44 102.91 133.5 102.34 133.55C101.31 133.65 100.24 133.75 99.0701 133.66C97.9201 133.57 96.8801 133.25 95.9601 132.97C95.3701 132.79 94.8201 132.62 94.3001 132.53C93.9601 132.47 93.3701 132.55 92.8001 132.63C91.8001 132.76 90.5601 132.93 89.2701 132.58C88.1801 132.28 87.2001 131.84 86.2501 131.41C85.7001 131.16 85.1901 130.93 84.6801 130.74C84.1901 130.56 83.6201 130.42 83.0201 130.27C82.1201 130.05 81.1101 129.81 80.1101 129.35C78.0901 128.61 77.1901 126.73 76.5301 125.35C76.3901 125.05 76.2501 124.76 76.1101 124.5C74.8301 123.81 73.5001 123.09 72.3101 122.14L71.7501 121.7C70.6801 120.85 69.5701 119.97 68.5601 118.87C67.7401 117.97 67.2401 116.98 66.7901 116.1C66.5201 115.58 66.2701 115.08 65.9901 114.69C65.8301 114.46 65.3001 114.11 64.8701 113.83C64.0001 113.25 62.9301 112.54 62.2401 111.35C61.4401 109.96 60.6701 108.49 59.9701 107.09L59.9301 107.01L59.8901 106.92C59.3801 105.69 59.0901 104.43 58.8101 103.21C58.7001 102.72 58.5901 102.23 58.4601 101.75C58.1301 100.52 58.1401 99.3199 58.1501 98.2599C58.1501 97.6099 58.1601 96.9999 58.0801 96.4799C57.8101 94.5299 57.6601 92.8899 57.6201 91.3199C57.6101 90.7899 57.4901 90.1699 57.3701 89.5199C57.1801 88.4999 56.9601 87.3399 57.0601 86.0899C57.1001 85.5399 57.1201 84.9499 57.1301 84.3399C57.1501 83.2099 57.1801 82.0399 57.4001 80.8399C57.6301 79.5999 58.0001 78.4299 58.3701 77.3099C58.5401 76.7999 58.7001 76.2899 58.8501 75.7899C59.0001 75.2699 59.1301 74.7599 59.2501 74.2399C59.5201 73.1299 59.8001 71.9899 60.2701 70.8699C60.7501 69.7399 61.4601 68.7999 62.0801 67.9799C62.4501 67.4899 62.8101 67.0199 63.0601 66.5799L63.2101 66.3099C63.9801 64.9699 64.7701 63.5899 65.7401 62.2899C66.4601 61.3199 67.3301 60.5299 68.0901 59.8299C68.5201 59.4399 68.9301 59.0599 69.2801 58.6899C70.4201 57.4799 71.5601 56.2699 72.8601 55.1799C73.7801 54.4099 74.7801 53.8799 75.6701 53.4199C76.2101 53.1399 76.7101 52.8799 77.1501 52.5899C77.5401 52.3299 77.9601 51.9199 78.4101 51.4799C79.1401 50.7699 79.9601 49.9599 81.0701 49.3999C82.5301 48.6499 84.0801 47.9599 85.6801 47.3599C86.1501 47.1799 86.6201 46.9799 87.1001 46.7799C88.1401 46.3299 89.2301 45.8699 90.4201 45.5699C91.9401 45.1799 93.4901 44.8699 95.0101 44.6399L95.3901 44.5799C96.7601 44.3899 98.0001 44.7799 99.0001 45.0899C99.5601 45.2599 100.13 45.4399 100.48 45.4299C100.66 45.4299 100.87 45.4099 101.11 45.3699C101.45 45.3199 101.78 45.2499 102.12 45.1799C102.54 45.0899 102.97 45.0099 103.39 44.9499C104.17 44.8299 104.83 44.8099 105.48 44.8599C107.16 45.0099 108.83 45.2499 110.44 45.5899C110.94 45.6899 111.46 45.7699 111.97 45.8499C113.07 46.0199 114.21 46.1999 115.38 46.5799L116.01 46.7799C117.41 47.2299 118.86 47.6999 120.27 48.3599C121.46 48.9099 122.32 49.7599 123.08 50.5099C123.54 50.9599 123.97 51.3799 124.36 51.6199C125.65 52.4099 126.93 53.3199 128.51 54.5499C128.84 54.7999 129.4 55.0299 129.99 55.2799C131 55.6899 132.14 56.1599 133.1 57.0999C134.17 58.1499 135.11 59.2899 136.02 60.3999L136.52 60.9999C137.36 62.0199 137.76 63.1799 138.1 64.1899C138.31 64.7899 138.5 65.3599 138.74 65.7299C139.04 66.1799 139.41 66.6399 139.81 67.1199C140.46 67.9099 141.2 68.7999 141.75 69.8899L142.18 70.7299C142.8 71.9399 143.45 73.1999 143.94 74.5599C144.39 75.7899 144.62 76.9999 144.85 78.1699C144.94 78.6399 145.03 79.1199 145.14 79.5799C145.26 80.0799 145.41 80.6099 145.58 81.1599C145.89 82.1999 146.25 83.3699 146.37 84.6299C146.42 85.1299 146.49 85.6299 146.56 86.1399C146.73 87.3299 146.9 88.5599 146.84 89.8699C146.78 91.1499 146.39 92.3099 146.04 93.3299C145.84 93.9299 145.64 94.4899 145.55 94.9999L145.24 96.6499C145.37 97.8199 145.48 99.1199 145.13 100.48C144.8 101.77 144.27 102.89 143.76 103.97C143.48 104.56 143.21 105.13 143 105.68C142.59 106.74 142.25 107.84 141.88 109.01C141.71 109.55 141.54 110.08 141.37 110.62L141.25 110.99C141.25 110.99 140.6 111.86 140.4 112.12C139.4 113.44 138.74 114.32 138.39 115.38L138.29 115.69L138.11 115.96C137.41 117.02 136.48 117.77 135.67 118.43C135.19 118.82 134.74 119.19 134.45 119.53C133.66 120.46 132.75 121.15 131.95 121.76C131.5 122.1 131.07 122.43 130.71 122.76C130.32 123.11 129.97 123.48 129.61 123.85C128.86 124.62 128.09 125.41 127.1 126.11C126.68 126.4 126.27 126.76 125.82 127.14C125.05 127.8 124.18 128.55 123.12 129.11C122.01 129.7 120.88 129.91 119.89 130.1C119.3 130.21 118.74 130.31 118.31 130.48C117.83 130.66 117.34 130.91 116.82 131.17C115.93 131.61 114.92 132.11 113.76 132.41C112.3 132.78 110.89 133.07 109.43 133.28L108.87 133.37Z" stroke="url(#paint35_linear_2148_18742)" stroke-width="0.8119" stroke-miterlimit="10"/>
<path d="M142.199 100.67C142.739 99.1098 143.849 97.6798 144.159 96.0798C144.469 94.4698 144.339 92.7398 144.429 91.1098C144.519 89.4798 144.089 87.8398 143.959 86.2098C143.829 84.5798 143.879 82.9198 143.549 81.3198C143.219 79.7198 142.649 78.1798 142.129 76.6198C141.619 75.0698 140.539 73.7698 139.849 72.2798C139.169 70.7998 139.309 68.8798 138.459 67.4698C137.619 66.0698 136.779 64.5898 135.779 63.2898C134.789 61.9898 132.879 61.4598 131.749 60.2798C130.619 59.0998 129.499 57.9798 128.239 56.9298C126.989 55.8798 126.239 54.1498 124.869 53.2398C123.509 52.3398 121.979 51.6198 120.509 50.8798C119.069 50.1598 117.459 49.8098 115.979 49.2698C114.469 48.7198 112.939 48.2598 111.399 47.8898C109.839 47.5098 108.179 47.9598 106.609 47.7698C105.019 47.5698 103.519 46.1998 101.939 46.1898C100.339 46.1798 98.6894 46.2598 97.1094 46.4198C95.5194 46.5798 93.9494 47.1298 92.3894 47.4698C90.8294 47.8098 89.2594 48.2398 87.7594 48.7498C86.2494 49.2598 85.0694 50.5698 83.6294 51.2498C82.1894 51.9298 80.5694 52.2298 79.2094 53.0698C77.8594 53.9098 76.6094 54.8898 75.3494 55.8798C74.0994 56.8598 72.6294 57.6298 71.4994 58.7598C70.3794 59.8798 69.3794 61.1598 68.3894 62.4198C67.4094 63.6598 65.9794 64.6798 65.1394 66.0498C64.3194 67.3898 63.8094 69.0098 63.1294 70.4798C62.4494 71.9798 61.5694 73.4898 61.0294 75.0798C60.4994 76.6498 60.3594 78.3998 59.9794 80.0298C59.6094 81.6498 60.0194 83.4198 59.8194 85.0698C59.6194 86.7198 59.5494 88.3498 59.5294 90.0098C59.5194 91.6698 58.9194 93.3698 59.1094 95.0198C59.2994 96.6698 59.3094 98.4498 59.7094 100.06C60.1994 101.53 60.7194 103.06 61.2994 104.51C61.8694 105.96 63.7494 106.82 64.4494 108.2C65.1494 109.59 65.3794 111.2 66.2394 112.49C67.0994 113.78 68.1794 114.86 69.2494 116.01C70.2894 117.13 71.6094 118.07 72.8894 119.02C73.6994 120.64 73.7994 123.1 75.4294 123.92C76.7394 124.81 78.3494 125.19 79.7194 125.95C81.1094 126.72 82.3894 127.73 83.8194 128.36C85.2694 129 87.1394 128.49 88.6294 128.98C90.1394 129.48 91.4594 130.41 92.9894 130.75C94.5394 131.1 96.1094 131.01 97.6594 131.2C99.2294 131.39 100.739 131.83 102.309 131.85C103.889 131.87 105.439 131.8 106.999 131.64C108.569 131.48 109.999 130.78 111.529 130.44C113.069 130.1 114.749 130.41 116.239 129.88C117.719 129.35 118.959 128.31 120.369 127.59C121.759 126.88 122.879 125.83 124.199 124.94C125.489 124.07 126.959 123.51 128.169 122.46C129.339 121.44 131.069 120.84 132.149 119.64C132.959 118.02 134.199 116.95 135.819 115.32C136.629 113.69 137.369 112.06 138.239 110.52C139.129 108.96 140.319 107.56 141.019 105.91C141.689 104.31 141.389 102.49 141.649 100.63C141.659 100.59 142.199 100.67 142.199 100.67Z" fill="url(#paint36_radial_2148_18742)"/>
<path opacity="0.4" d="M142.199 100.67C142.739 99.1098 143.849 97.6798 144.159 96.0798C144.469 94.4698 144.339 92.7398 144.429 91.1098C144.519 89.4798 144.089 87.8398 143.959 86.2098C143.829 84.5798 143.879 82.9198 143.549 81.3198C143.219 79.7198 142.649 78.1798 142.129 76.6198C141.619 75.0698 140.539 73.7698 139.849 72.2798C139.169 70.7998 139.309 68.8798 138.459 67.4698C137.619 66.0698 136.779 64.5898 135.779 63.2898C134.789 61.9898 132.879 61.4598 131.749 60.2798C130.619 59.0998 129.499 57.9798 128.239 56.9298C126.989 55.8798 126.239 54.1498 124.869 53.2398C123.509 52.3398 121.979 51.6198 120.509 50.8798C119.069 50.1598 117.459 49.8098 115.979 49.2698C114.469 48.7198 112.939 48.2598 111.399 47.8898C109.839 47.5098 108.179 47.9598 106.609 47.7698C105.019 47.5698 103.519 46.1998 101.939 46.1898C100.339 46.1798 98.6894 46.2598 97.1094 46.4198C95.5194 46.5798 93.9494 47.1298 92.3894 47.4698C90.8294 47.8098 89.2594 48.2398 87.7594 48.7498C86.2494 49.2598 85.0694 50.5698 83.6294 51.2498C82.1894 51.9298 80.5694 52.2298 79.2094 53.0698C77.8594 53.9098 76.6094 54.8898 75.3494 55.8798C74.0994 56.8598 72.6294 57.6298 71.4994 58.7598C70.3794 59.8798 69.3794 61.1598 68.3894 62.4198C67.4094 63.6598 65.9794 64.6798 65.1394 66.0498C64.3194 67.3898 63.8094 69.0098 63.1294 70.4798C62.4494 71.9798 61.5694 73.4898 61.0294 75.0798C60.4994 76.6498 60.3594 78.3998 59.9794 80.0298C59.6094 81.6498 60.0194 83.4198 59.8194 85.0698C59.6194 86.7198 59.5494 88.3498 59.5294 90.0098C59.5194 91.6698 58.9194 93.3698 59.1094 95.0198C59.2994 96.6698 59.3094 98.4498 59.7094 100.06C60.1994 101.53 60.7194 103.06 61.2994 104.51C61.8694 105.96 63.7494 106.82 64.4494 108.2C65.1494 109.59 65.3794 111.2 66.2394 112.49C67.0994 113.78 68.1794 114.86 69.2494 116.01C70.2894 117.13 71.6094 118.07 72.8894 119.02C73.6994 120.64 73.7994 123.1 75.4294 123.92C76.7394 124.81 78.3494 125.19 79.7194 125.95C81.1094 126.72 82.3894 127.73 83.8194 128.36C85.2694 129 87.1394 128.49 88.6294 128.98C90.1394 129.48 91.4594 130.41 92.9894 130.75C94.5394 131.1 96.1094 131.01 97.6594 131.2C99.2294 131.39 100.739 131.83 102.309 131.85C103.889 131.87 105.439 131.8 106.999 131.64C108.569 131.48 109.999 130.78 111.529 130.44C113.069 130.1 114.749 130.41 116.239 129.88C117.719 129.35 118.959 128.31 120.369 127.59C121.759 126.88 122.879 125.83 124.199 124.94C125.489 124.07 126.959 123.51 128.169 122.46C129.339 121.44 131.069 120.84 132.149 119.64C132.959 118.02 134.199 116.95 135.819 115.32C136.629 113.69 137.369 112.06 138.239 110.52C139.129 108.96 140.319 107.56 141.019 105.91C141.689 104.31 141.389 102.49 141.649 100.63C141.659 100.59 142.199 100.67 142.199 100.67Z" stroke="url(#paint37_radial_2148_18742)" stroke-width="0.8119" stroke-miterlimit="10"/>
<path d="M133.259 63.37L132.769 62.82C132.259 62.24 131.569 61.75 130.839 61.22C130.259 60.8 129.659 60.37 129.089 59.86C128.389 59.22 127.869 58.44 127.409 57.75C126.959 57.08 126.539 56.44 126.059 56.09L125.409 55.62C124.329 54.84 123.219 54.03 122.109 53.4C121.619 53.12 120.869 53.02 120.079 52.92C119.239 52.81 118.279 52.68 117.379 52.3C115.669 51.56 114.319 51.06 113.009 50.66C112.129 50.39 111.379 49.96 110.639 49.54C109.929 49.13 109.249 48.75 108.639 48.64C107.349 48.41 105.939 48.33 104.579 48.25L103.899 48.21C102.989 48.16 102.049 48.25 101.049 48.36C100.459 48.42 99.869 48.48 99.289 48.51C97.789 48.59 96.249 48.76 94.719 49.02C94.399 49.07 94.049 49.18 93.629 49.37C93.299 49.51 92.969 49.67 92.649 49.83C92.269 50.02 91.899 50.2 91.509 50.36C91.129 50.52 90.779 50.65 90.449 50.75C89.479 51.03 88.489 50.99 87.619 50.95C86.869 50.92 86.159 50.89 85.709 51.07L85.389 51.21C84.089 51.77 82.789 52.41 81.529 53.11C80.719 53.56 79.939 54.16 79.119 54.8C78.669 55.15 78.209 55.5 77.759 55.83C76.489 56.74 75.269 57.71 74.149 58.72C73.669 59.15 73.269 59.81 72.859 60.5C72.459 61.17 72.039 61.87 71.469 62.51C70.979 63.06 70.449 63.54 69.939 64.01C69.289 64.6 68.679 65.16 68.239 65.78C67.389 66.99 66.679 68.29 65.899 69.72C65.579 70.31 65.219 70.86 64.879 71.4C64.369 72.19 63.889 72.94 63.579 73.71C63.059 75 62.669 76.43 62.299 77.82L62.219 78.12C62.019 78.85 61.739 79.54 61.459 80.21C61.119 81.03 60.799 81.81 60.689 82.54C60.559 83.42 60.579 84.39 60.599 85.42C60.609 86.02 60.619 86.62 60.599 87.2C60.589 87.77 60.549 88.36 60.519 88.95C60.459 90.05 60.399 91.1 60.469 92.1C60.539 93 60.769 93.95 61.009 94.94C61.159 95.57 61.319 96.23 61.439 96.89C61.569 97.6 61.919 98.34 62.289 99.13C62.629 99.85 62.989 100.6 63.229 101.42C63.399 102.02 63.609 102.63 63.829 103.26C90.949 97.67 115.779 85.29 133.259 63.37Z" fill="url(#paint38_radial_2148_18742)"/>
<path d="M142.159 86.5199C141.899 85.8599 141.639 85.1899 141.459 84.5099C141.289 83.9699 141.399 83.3099 141.879 82.8399C141.889 82.4199 141.919 82.0099 141.949 81.6099C142.009 80.7199 142.079 79.8799 141.929 79.1799C141.729 78.2599 141.339 77.3199 140.919 76.3299C140.699 75.7899 140.469 75.2599 140.279 74.7299C139.979 73.9099 139.489 73.1199 138.979 72.2699C138.649 71.7399 138.309 71.1799 138.009 70.5999C137.769 70.1299 137.539 69.6599 137.299 69.1799C136.819 68.1899 136.379 67.2599 135.809 66.4399C135.119 65.4499 134.299 64.5299 133.429 63.5499L133.279 63.3799C115.799 85.2999 90.9686 97.6799 63.8086 103.28C64.0986 104.1 64.4286 104.97 64.8286 105.92C65.1486 106.68 65.3486 107.45 65.5386 108.2C65.7586 109.06 65.9686 109.88 66.3286 110.52C66.5986 110.99 66.8586 111.48 67.1086 111.98C67.6286 112.97 68.1186 113.91 68.7086 114.7C69.6986 115.82 70.7586 117 71.8186 118.05C72.1286 118.36 72.8086 118.59 73.4586 118.82C74.3086 119.11 75.2686 119.44 76.0686 120.11C76.6586 120.61 77.1486 121.16 77.6186 121.68C78.1586 122.29 78.6686 122.86 79.2386 123.23C80.2286 123.87 81.3286 124.35 82.4886 124.86L83.1586 125.16C84.2586 125.65 85.5186 125.95 86.8486 126.27L87.7786 126.5L88.0686 126.75C88.6186 127.22 89.0886 127.77 89.5386 128.3C90.1786 129.06 90.8486 129.84 91.3786 129.87L91.4886 129.88L91.5986 129.9C92.3086 130.04 93.1086 130.02 93.9486 130.01C94.6686 130 95.4186 129.98 96.1886 130.06C96.8586 130.13 97.5086 130.24 98.1486 130.35C99.0686 130.51 99.9386 130.65 100.759 130.66C101.279 130.67 101.929 130.4 102.619 130.11C103.399 129.79 104.289 129.42 105.269 129.34C106.049 129.27 106.789 129.31 107.509 129.34C108.339 129.37 109.119 129.41 109.819 129.28C110.639 129.13 111.459 128.83 112.319 128.51C112.899 128.3 113.499 128.08 114.129 127.89C114.759 127.71 115.379 127.57 115.979 127.43C116.879 127.23 117.729 127.04 118.499 126.72L118.929 126.54C120.169 126.01 121.359 125.43 122.559 124.76C123.239 124.38 123.859 123.84 124.519 123.26C125.009 122.83 125.519 122.39 126.089 121.97C126.769 121.48 127.479 121.14 128.169 120.82C128.889 120.48 129.569 120.16 130.039 119.72C130.599 119.2 131.079 118.51 131.589 117.77C131.959 117.23 132.349 116.67 132.799 116.13C133.349 115.48 133.779 114.71 134.249 113.89C134.539 113.38 134.839 112.86 135.159 112.35C135.529 111.77 135.939 111.25 136.329 110.75C136.869 110.05 137.389 109.4 137.729 108.68C138.089 107.94 138.559 107.29 139.019 106.66C139.469 106.04 139.899 105.45 140.139 104.88C140.289 103.19 140.869 101.77 141.539 100.14C141.629 99.9199 141.719 99.6899 141.819 99.4599C141.849 98.9999 141.869 98.5299 141.889 98.0699C141.949 96.8299 142.009 95.5399 142.149 94.2699C142.229 93.5299 142.369 92.8099 142.499 92.1099C142.699 91.0699 142.879 90.0799 142.879 89.1299C142.869 88.3299 142.539 87.4899 142.159 86.5199Z" fill="url(#paint39_radial_2148_18742)"/>
<path d="M65.3984 38.7397C65.8484 40.4797 66.3584 42.1197 66.7284 42.5697C67.5984 43.6097 72.6384 46.1897 72.6384 46.1897C72.6384 46.1897 78.9884 43.3497 79.3384 42.8297C79.4784 42.6197 79.9484 41.6697 80.4484 40.5697C76.1284 41.7397 70.4384 40.2497 65.3984 38.7397Z" fill="url(#paint40_linear_2148_18742)"/>
<path d="M65.3984 38.7397C65.8484 40.4797 66.3584 42.1197 66.7284 42.5697C67.5984 43.6097 72.6384 46.1897 72.6384 46.1897C72.6384 46.1897 78.9884 43.3497 79.3384 42.8297C79.4784 42.6197 79.9484 41.6697 80.4484 40.5697C76.1284 41.7397 70.4384 40.2497 65.3984 38.7397Z" fill="url(#paint41_linear_2148_18742)"/>
<path d="M65.3984 38.7397C65.8484 40.4797 66.3584 42.1197 66.7284 42.5697C67.5984 43.6097 72.6384 46.1897 72.6384 46.1897C72.6384 46.1897 78.9884 43.3497 79.3384 42.8297C79.4784 42.6197 79.9484 41.6697 80.4484 40.5697C76.1284 41.7397 70.4384 40.2497 65.3984 38.7397Z" fill="url(#paint42_linear_2148_18742)"/>
<path d="M70.4388 27.1398C70.3488 27.1098 70.2988 27.0898 70.2988 27.0898C70.2988 27.0898 67.9488 30.2198 67.4288 30.9198C66.9088 31.6198 64.2988 33.6198 64.2988 33.8598C64.2988 33.9798 64.6988 35.9198 65.1988 37.9498C67.8788 36.7598 70.4588 35.3398 72.8488 33.7498C74.1688 33.0698 72.7688 29.6798 70.4388 27.1398Z" fill="url(#paint43_linear_2148_18742)"/>
<path d="M70.4388 27.1398C70.3488 27.1098 70.2988 27.0898 70.2988 27.0898C70.2988 27.0898 67.9488 30.2198 67.4288 30.9198C66.9088 31.6198 64.2988 33.6198 64.2988 33.8598C64.2988 33.9798 64.6988 35.9198 65.1988 37.9498C67.8788 36.7598 70.4588 35.3398 72.8488 33.7498C74.1688 33.0698 72.7688 29.6798 70.4388 27.1398Z" fill="url(#paint44_linear_2148_18742)"/>
<path d="M81.7794 36.6396C81.3494 36.2796 79.5195 33.8496 79.5195 33.8496C79.5195 33.8496 77.4294 30.7296 76.2094 29.7796C75.1094 28.9196 71.2095 27.4296 70.4395 27.1396C72.7795 29.6796 74.1694 33.0796 72.8394 33.7396C70.4494 35.3396 67.8795 36.7496 65.1895 37.9396C65.2595 38.2096 65.3195 38.4696 65.3895 38.7396C70.4295 40.2496 76.1294 41.7396 80.4494 40.5696C81.2194 38.8796 82.0394 36.8596 81.7794 36.6396Z" fill="url(#paint45_linear_2148_18742)"/>
<path d="M92.7395 32.4795C92.7395 32.4795 90.3895 35.6095 90.2195 36.2195C90.0495 36.8295 90.5695 38.1295 91.4795 38.9995C92.3895 39.8695 94.4795 40.9095 95.2595 40.6495C96.0395 40.3895 97.6095 37.6895 97.6995 37.0795C97.7895 36.4695 96.7395 34.6995 95.9595 33.8495C95.1695 32.9995 92.7395 32.4795 92.7395 32.4795Z" fill="url(#paint46_linear_2148_18742)"/>
<path d="M95.9694 40.0599C96.7394 39.1599 97.6294 37.5399 97.6994 37.0899C97.7894 36.4799 96.7394 34.7099 95.9594 33.8599C95.4494 33.3099 94.2494 32.8899 93.4694 32.6699C93.5394 34.1099 93.4994 35.5499 93.1394 36.9899C93.0594 36.9899 92.9594 36.9899 92.8594 36.9899C93.7494 38.2299 94.8094 39.2299 95.9694 40.0599Z" fill="url(#paint47_linear_2148_18742)"/>
<path d="M92.8597 36.9797C92.0997 36.9697 90.9497 36.9097 90.1897 36.4097C90.1497 37.0697 90.6497 38.2097 91.4797 38.9997C92.3897 39.8697 94.4797 40.9097 95.2597 40.6497C95.4597 40.5797 95.7097 40.3597 95.9697 40.0497C94.8097 39.2297 93.7497 38.2297 92.8597 36.9797Z" fill="url(#paint48_linear_2148_18742)"/>
<path d="M93.4692 32.6597C93.0492 32.5397 92.7392 32.4697 92.7392 32.4697C92.7392 32.4697 90.3892 35.5997 90.2192 36.2097C90.1992 36.2697 90.1992 36.3297 90.1992 36.3997C90.9592 36.9097 92.1092 36.9697 92.8692 36.9697C92.9692 36.9697 93.0592 36.9697 93.1492 36.9697C93.4992 35.5497 93.5292 34.0997 93.4692 32.6597Z" fill="url(#paint49_linear_2148_18742)"/>
<path d="M93.4692 32.6597C93.0492 32.5397 92.7392 32.4697 92.7392 32.4697C92.7392 32.4697 90.3892 35.5997 90.2192 36.2097C90.1992 36.2697 90.1992 36.3297 90.1992 36.3997C90.9592 36.9097 92.1092 36.9697 92.8692 36.9697C92.9692 36.9697 93.0592 36.9697 93.1492 36.9697C93.4992 35.5497 93.5292 34.0997 93.4692 32.6597Z" fill="url(#paint50_linear_2148_18742)"/>
<path d="M55.1583 57.1798C55.1383 57.1198 55.0783 57.0698 55.0083 57.0298C55.1283 58.3298 55.5083 59.5698 54.4883 60.3298C54.6583 60.3898 54.8283 60.4598 54.9883 60.5398C54.8283 60.4598 54.6583 60.3998 54.4883 60.3298C53.0483 59.7798 51.1683 59.6598 49.7383 59.0998L52.8983 61.3698C53.3283 61.2798 54.2883 61.5398 55.1583 60.7598C56.0283 59.9598 55.4183 57.9598 55.1583 57.1798Z" fill="url(#paint51_linear_2148_18742)"/>
<path d="M49.0684 56.6597L49.2084 57.2897C50.8484 57.1397 52.4784 56.9897 54.0384 56.7597C52.2884 56.5197 49.0684 56.6597 49.0684 56.6597Z" fill="url(#paint52_linear_2148_18742)"/>
<path d="M54.0488 56.7695C52.4888 56.9995 50.8487 57.1495 49.2188 57.2995L49.5988 58.9995L49.7388 59.0995C51.1688 59.6595 53.0388 59.7795 54.4888 60.3295C55.5188 59.5795 55.1287 58.3395 55.0087 57.0295C54.8187 56.9095 54.4788 56.8295 54.0488 56.7695Z" fill="url(#paint53_linear_2148_18742)"/>
<path d="M48.7179 66.6597C48.7179 66.6597 48.2878 69.4597 49.0678 69.9697C49.8478 70.4797 50.8078 70.1497 51.0678 69.9697C51.3278 69.7897 51.7679 67.4397 51.7679 67.4397L48.7179 66.6597Z" fill="url(#paint54_linear_2148_18742)"/>
<path d="M48.6485 67.2896C48.5685 68.1496 48.5185 69.6196 49.0685 69.9796C49.6785 70.3796 50.3785 70.2696 50.7985 70.1096C49.8785 69.2696 48.9985 68.4096 48.6485 67.2896Z" fill="url(#paint55_linear_2148_18742)"/>
<path d="M51.7682 67.4494L48.7282 66.6694C48.7282 66.6694 48.6882 66.9294 48.6582 67.2994C49.0082 68.4194 49.8882 69.2794 50.8082 70.1194C50.9282 70.0794 51.0282 70.0294 51.0882 69.9894C51.3282 69.7894 51.7682 67.4494 51.7682 67.4494Z" fill="url(#paint56_linear_2148_18742)"/>
<path d="M48.589 114.93C48.679 114.67 51.369 111.8 51.809 110.75C52.239 109.71 52.679 106.05 52.679 106.05C52.679 106.05 51.199 101.86 50.639 101.09C50.069 100.33 43.899 98.6499 43.899 98.6499L41.639 98.1299C41.639 98.1299 38.679 101.78 37.899 102.39C37.119 103 35.459 105.87 35.459 106.13C35.459 106.39 37.719 110.94 38.329 111.53C38.939 112.13 42.239 114.65 42.849 114.91C43.449 115.19 48.589 114.93 48.589 114.93Z" fill="url(#paint57_linear_2148_18742)"/>
<path d="M37.8887 102.4C37.1587 102.97 35.6587 105.53 35.4688 106.06C36.4287 107.05 37.4887 107.84 38.5587 108.55C40.3587 106.47 42.8787 105.18 46.8587 105.18C46.7787 105.1 46.6987 105.02 46.6187 104.94C46.4287 105.01 46.2388 105.09 46.0488 105.18C46.2388 105.08 46.4287 105 46.6187 104.94C44.5687 102.89 42.5588 100.81 41.5488 98.2397C41.1088 98.7797 38.5987 101.85 37.8887 102.4Z" fill="url(#paint58_linear_2148_18742)"/>
<path d="M52.5486 105.71C52.1786 104.69 51.0986 101.73 50.6286 101.1C50.0586 100.34 43.8886 98.6596 43.8886 98.6596L41.6286 98.1396C41.6286 98.1396 41.5986 98.1796 41.5586 98.2296C42.5586 100.81 44.5686 102.88 46.6286 104.93C48.8886 104.1 50.7686 105.16 52.5486 105.71Z" fill="url(#paint59_linear_2148_18742)"/>
<path d="M52.6799 106.06C52.6799 106.06 52.5999 106.71 52.4799 107.55C52.3199 108.69 52.0699 110.16 51.8099 110.76C51.3699 111.81 48.6799 114.68 48.5899 114.94C48.5899 114.94 43.4599 115.2 42.8499 114.94C42.2399 114.68 38.9399 112.16 38.3299 111.55C38.1399 111.37 37.7999 110.82 37.4199 110.14C37.7699 109.57 38.1499 109.04 38.5699 108.56C40.3599 106.48 42.8899 105.19 46.8699 105.19C46.7899 105.11 46.7099 105.03 46.6299 104.95C48.8999 104.11 50.7799 105.17 52.5599 105.71C52.6299 105.92 52.6799 106.06 52.6799 106.06Z" fill="url(#paint60_linear_2148_18742)"/>
<path d="M35.4692 106.07C35.4592 106.11 35.4492 106.13 35.4492 106.15C35.4492 106.33 36.5392 108.58 37.4092 110.14C37.7592 109.57 38.1392 109.04 38.5592 108.56C37.4892 107.84 36.4292 107.06 35.4692 106.07Z" fill="url(#paint61_linear_2148_18742)"/>
<path d="M156.65 63.1499C156.48 63.6699 155.69 67.1499 155.69 67.1499C155.69 67.1499 152.56 70.0199 152.3 70.2799C152.04 70.5399 151.52 72.4499 151.78 72.8899C152.04 73.3199 153.17 77.9399 153.17 77.9399C153.17 77.9399 156.21 79.8499 156.65 80.1099C157.08 80.3699 161.25 77.9999 161.25 77.9999C161.25 77.9999 164.74 76.1999 164.74 75.8499C164.74 75.4999 163.87 71.3299 163.87 71.0699C163.87 70.8099 163.26 67.4199 162.65 66.8099C162.04 66.1999 160.56 65.0699 160.56 65.0699L156.65 63.1499Z" fill="url(#paint62_linear_2148_18742)"/>
<path d="M164.739 75.8497C164.739 76.1997 161.259 77.9997 161.259 77.9997C161.259 77.9997 157.089 80.3697 156.649 80.1097C156.579 80.0597 156.409 79.9597 156.199 79.8297C156.879 78.5397 157.459 77.2397 158.019 75.9697C158.549 74.7797 159.049 73.5897 159.609 72.4297C160.489 70.6197 161.489 68.8497 162.889 67.1597C163.409 68.2197 163.879 70.8497 163.879 71.0697C163.879 71.2797 164.459 74.1497 164.679 75.3497C164.709 75.6097 164.739 75.7797 164.739 75.8497Z" fill="url(#paint63_linear_2148_18742)"/>
<path d="M157.17 63.3999L156.66 63.1499C156.49 63.6699 155.7 67.1499 155.7 67.1499C155.7 67.1499 152.57 70.0199 152.31 70.2799C152.13 70.4599 151.83 71.4099 151.75 72.1399C153.37 74.8699 155.58 75.7999 158.03 75.9599C158.55 74.7699 159.06 73.5799 159.62 72.4199C158.53 69.4999 158.59 66.1999 157.17 63.3999Z" fill="url(#paint64_linear_2148_18742)"/>
<path d="M157.17 63.3999L156.66 63.1499C156.49 63.6699 155.7 67.1499 155.7 67.1499C155.7 67.1499 152.57 70.0199 152.31 70.2799C152.13 70.4599 151.83 71.4099 151.75 72.1399C153.37 74.8699 155.58 75.7999 158.03 75.9599C158.55 74.7699 159.06 73.5799 159.62 72.4199C158.53 69.4999 158.59 66.1999 157.17 63.3999Z" fill="url(#paint65_linear_2148_18742)"/>
<path d="M151.739 72.1401C151.699 72.4701 151.699 72.7501 151.779 72.8901C152.039 73.3201 153.169 77.9401 153.169 77.9401C153.169 77.9401 155.209 79.2301 156.189 79.8301C156.869 78.5301 157.449 77.2401 158.009 75.9601C155.579 75.8001 153.359 74.8701 151.739 72.1401Z" fill="url(#paint66_linear_2148_18742)"/>
<path d="M162.88 67.1499C162.81 66.9999 162.73 66.8799 162.65 66.7999C162.04 66.1899 160.56 65.0599 160.56 65.0599L157.16 63.3999C158.58 66.1999 158.52 69.4999 159.6 72.4199C160.48 70.6099 161.48 68.8399 162.88 67.1499Z" fill="url(#paint67_linear_2148_18742)"/>
<path d="M152.568 116.75L148.998 120.14L144.898 123.53C144.898 123.53 145.078 124.24 145.788 126.21C146.498 128.18 148.638 129.06 149.538 129.6C150.428 130.14 157.748 126.75 157.918 126.21C158.098 125.67 159.168 121.93 157.918 120.5C156.678 119.07 152.568 116.75 152.568 116.75Z" fill="url(#paint68_linear_2148_18742)"/>
<path d="M152.389 116.92L148.999 120.14L144.969 123.47C146.959 124.67 149.009 125.39 151.539 126.06V126.05C150.889 123.01 152.279 119.97 152.389 116.92Z" fill="url(#paint69_linear_2148_18742)"/>
<path d="M152.389 116.92L148.999 120.14L144.969 123.47C146.959 124.67 149.009 125.39 151.539 126.06V126.05C150.889 123.01 152.279 119.97 152.389 116.92Z" fill="url(#paint70_linear_2148_18742)"/>
<path d="M151.539 126.06C151.549 126.07 151.539 126.07 151.539 126.06V126.05C151.539 126.06 151.539 126.06 151.539 126.06Z" fill="url(#paint71_linear_2148_18742)"/>
<path d="M157.918 120.5C156.668 119.07 152.568 116.75 152.568 116.75L152.388 116.92C152.278 119.96 150.888 123.01 151.538 126.05V126.06C151.688 126.1 151.838 126.14 151.988 126.18C154.288 125.59 156.208 125.01 158.338 124.42C158.578 123.09 158.678 121.37 157.918 120.5Z" fill="url(#paint72_linear_2148_18742)"/>
<path d="M144.968 123.47L144.898 123.53C144.898 123.53 145.078 124.24 145.788 126.21C146.498 128.17 148.638 129.06 149.538 129.6C149.618 129.65 149.778 129.66 149.968 129.64C150.678 128.45 151.358 127.26 151.538 126.07C149.008 125.4 146.958 124.68 144.968 123.47Z" fill="url(#paint73_linear_2148_18742)"/>
<path d="M151.999 126.19C151.839 126.15 151.699 126.11 151.539 126.07C151.359 127.26 150.679 128.45 149.969 129.64C151.769 129.5 157.759 126.69 157.919 126.21C157.989 126 158.199 125.29 158.349 124.43C156.219 125.01 154.299 125.6 151.999 126.19Z" fill="url(#paint74_linear_2148_18742)"/>
<path d="M151.999 126.19C151.839 126.15 151.699 126.11 151.539 126.07C151.359 127.26 150.679 128.45 149.969 129.64C151.769 129.5 157.759 126.69 157.919 126.21C157.989 126 158.199 125.29 158.349 124.43C156.219 125.01 154.299 125.6 151.999 126.19Z" fill="url(#paint75_linear_2148_18742)"/>
<path d="M162.289 95.2397C162.289 95.2397 160.569 100.72 160.799 101.37C161.029 102.02 161.719 102.02 162.289 102.15C162.859 102.28 165.989 100.19 165.989 99.6697C165.989 99.1497 165.989 97.3197 165.079 96.6697C164.169 96.0197 162.289 95.2397 162.289 95.2397Z" fill="url(#paint76_linear_2148_18742)"/>
<path d="M161.229 98.8999C162.239 98.9599 163.198 98.8499 164.138 98.6299C163.548 97.5299 162.538 96.6999 162.238 95.3999C162.088 95.8799 161.599 97.4699 161.229 98.8999Z" fill="url(#paint77_linear_2148_18742)"/>
<path d="M165.068 96.67C164.158 96.02 162.288 95.23 162.288 95.23C162.288 95.23 162.268 95.3 162.238 95.39C162.538 96.69 163.548 97.51 164.138 98.62C164.718 98.48 165.288 98.32 165.838 98.1C165.718 97.54 165.498 96.98 165.068 96.67Z" fill="url(#paint78_linear_2148_18742)"/>
<path d="M165.988 99.6701C165.988 100.2 162.858 102.28 162.288 102.15C161.728 102.02 161.028 102.02 160.798 101.36C160.708 101.1 160.928 100.05 161.228 98.8901C162.238 98.9501 163.208 98.8401 164.138 98.6201C164.718 98.4801 165.278 98.3201 165.838 98.1001C165.978 98.7501 165.988 99.3901 165.988 99.6701Z" fill="url(#paint79_linear_2148_18742)"/>
<path d="M165.988 99.6701C165.988 100.2 162.858 102.28 162.288 102.15C161.728 102.02 161.028 102.02 160.798 101.36C160.708 101.1 160.928 100.05 161.228 98.8901C162.238 98.9501 163.208 98.8401 164.138 98.6201C164.718 98.4801 165.278 98.3201 165.838 98.1001C165.978 98.7501 165.988 99.3901 165.988 99.6701Z" fill="url(#paint80_linear_2148_18742)"/>
<path d="M65.1189 76.5398C66.9289 85.0398 61.5189 93.3998 53.0189 95.2098C44.5189 97.0198 36.1589 91.6098 34.3489 83.1098C32.5389 74.6098 37.9489 66.2498 46.4489 64.4398C54.9489 62.6298 63.3089 68.0498 65.1189 76.5398Z" fill="url(#paint81_radial_2148_18742)"/>
<path d="M165.449 106.08C167.259 114.58 161.849 122.94 153.349 124.75C144.849 126.56 136.489 121.15 134.679 112.65C132.869 104.15 138.279 95.7898 146.779 93.9798C155.279 92.1598 163.639 97.5798 165.449 106.08Z" fill="url(#paint82_radial_2148_18742)"/>
<path d="M68.8296 50.46C77.517 50.46 84.5596 43.4174 84.5596 34.73C84.5596 26.0426 77.517 19 68.8296 19C60.1422 19 53.0996 26.0426 53.0996 34.73C53.0996 43.4174 60.1422 50.46 68.8296 50.46Z" fill="url(#paint83_radial_2148_18742)"/>
<path d="M49.8786 101.75C50.7186 105.68 48.2086 109.55 44.2786 110.39C40.3486 111.23 36.4786 108.72 35.6386 104.79C34.7986 100.86 37.3086 96.9902 41.2386 96.1502C45.1686 95.3102 49.0386 97.8102 49.8786 101.75Z" fill="url(#paint84_radial_2148_18742)"/>
<defs>
<linearGradient id="paint0_linear_2148_18742" x1="39.8097" y1="87.0398" x2="160.613" y2="91.8879" gradientUnits="userSpaceOnUse">
<stop offset="0.002793" stop-color="#B77946"/>
<stop offset="0.1828" stop-color="#FFF1A3"/>
<stop offset="0.1899" stop-color="#F2DC93"/>
<stop offset="0.2026" stop-color="#E0BE7B"/>
<stop offset="0.2165" stop-color="#D1A468"/>
<stop offset="0.2319" stop-color="#C59159"/>
<stop offset="0.2497" stop-color="#BD834E"/>
<stop offset="0.272" stop-color="#B87B48"/>
<stop offset="0.3128" stop-color="#B77946"/>
<stop offset="0.3463" stop-color="#BF8148"/>
<stop offset="0.4962" stop-color="#E0A24E"/>
<stop offset="0.5782" stop-color="#EDAE50"/>
<stop offset="1" stop-color="#613F1B"/>
</linearGradient>
<linearGradient id="paint1_linear_2148_18742" x1="226.549" y1="197.989" x2="32.3984" y2="27.3242" gradientUnits="userSpaceOnUse">
<stop stop-color="#B77946"/>
<stop offset="0.4497" stop-color="#EDAE50"/>
<stop offset="0.5105" stop-color="#EBAC4F"/>
<stop offset="0.5436" stop-color="#E3A54D"/>
<stop offset="0.5701" stop-color="#D59A49"/>
<stop offset="0.5931" stop-color="#C28A44"/>
<stop offset="0.6136" stop-color="#A9753D"/>
<stop offset="0.6324" stop-color="#8A5C35"/>
<stop offset="0.6341" stop-color="#875934"/>
<stop offset="1" stop-color="#FFF1A3"/>
</linearGradient>
<radialGradient id="paint2_radial_2148_18742" cx="0" cy="0" r="1" gradientUnits="userSpaceOnUse" gradientTransform="translate(68.8088 62.1674) scale(13.9089 13.9089)">
<stop stop-color="#875934"/>
<stop offset="0.1094" stop-color="#8D5D36"/>
<stop offset="0.2511" stop-color="#9D683C"/>
<stop offset="0.4078" stop-color="#B77946"/>
<stop offset="1" stop-color="#EDAE50"/>
</radialGradient>
<radialGradient id="paint3_radial_2148_18742" cx="0" cy="0" r="1" gradientUnits="userSpaceOnUse" gradientTransform="translate(73.9246 75.0648) scale(20.9178 20.9178)">
<stop stop-color="#875934"/>
<stop offset="0.1094" stop-color="#8D5D36"/>
<stop offset="0.2511" stop-color="#9D683C"/>
<stop offset="0.4078" stop-color="#B77946"/>
<stop offset="1" stop-color="#EDAE50"/>
</radialGradient>
<radialGradient id="paint4_radial_2148_18742" cx="0" cy="0" r="1" gradientUnits="userSpaceOnUse" gradientTransform="translate(74.9376 49.5366) scale(15.5894 15.5894)">
<stop stop-color="#875934"/>
<stop offset="0.1094" stop-color="#8D5D36"/>
<stop offset="0.2511" stop-color="#9D683C"/>
<stop offset="0.4078" stop-color="#B77946"/>
<stop offset="1" stop-color="#EDAE50"/>
</radialGradient>
<radialGradient id="paint5_radial_2148_18742" cx="0" cy="0" r="1" gradientUnits="userSpaceOnUse" gradientTransform="translate(90.8651 61.6307) scale(2.4842 2.4842)">
<stop stop-color="#875934"/>
<stop offset="0.1094" stop-color="#8D5D36"/>
<stop offset="0.2511" stop-color="#9D683C"/>
<stop offset="0.4078" stop-color="#B77946"/>
<stop offset="1" stop-color="#EDAE50"/>
</radialGradient>
<radialGradient id="paint6_radial_2148_18742" cx="0" cy="0" r="1" gradientUnits="userSpaceOnUse" gradientTransform="translate(96.2304 87.3938) scale(8.2149 8.2149)">
<stop stop-color="#875934"/>
<stop offset="0.1094" stop-color="#8D5D36"/>
<stop offset="0.2511" stop-color="#9D683C"/>
<stop offset="0.4078" stop-color="#B77946"/>
<stop offset="1" stop-color="#EDAE50"/>
</radialGradient>
<radialGradient id="paint7_radial_2148_18742" cx="0" cy="0" r="1" gradientUnits="userSpaceOnUse" gradientTransform="translate(119.002 55.7866) scale(19.8712)">
<stop stop-color="#875934"/>
<stop offset="0.1094" stop-color="#8D5D36"/>
<stop offset="0.2511" stop-color="#9D683C"/>
<stop offset="0.4078" stop-color="#B77946"/>
<stop offset="1" stop-color="#EDAE50"/>
</radialGradient>
<radialGradient id="paint8_radial_2148_18742" cx="0" cy="0" r="1" gradientUnits="userSpaceOnUse" gradientTransform="translate(111.236 47.106) scale(20.7298 20.7298)">
<stop stop-color="#875934"/>
<stop offset="0.1094" stop-color="#8D5D36"/>
<stop offset="0.2511" stop-color="#9D683C"/>
<stop offset="0.4078" stop-color="#B77946"/>
<stop offset="1" stop-color="#EDAE50"/>
</radialGradient>
<radialGradient id="paint9_radial_2148_18742" cx="0" cy="0" r="1" gradientUnits="userSpaceOnUse" gradientTransform="translate(107.981 71.6413) scale(11.5817 11.5817)">
<stop stop-color="#875934"/>
<stop offset="0.1094" stop-color="#8D5D36"/>
<stop offset="0.2511" stop-color="#9D683C"/>
<stop offset="0.4078" stop-color="#B77946"/>
<stop offset="1" stop-color="#EDAE50"/>
</radialGradient>
<radialGradient id="paint10_radial_2148_18742" cx="0" cy="0" r="1" gradientUnits="userSpaceOnUse" gradientTransform="translate(134.56 60.4126) scale(10.9297 10.9297)">
<stop stop-color="#875934"/>
<stop offset="0.1094" stop-color="#8D5D36"/>
<stop offset="0.2511" stop-color="#9D683C"/>
<stop offset="0.4078" stop-color="#B77946"/>
<stop offset="1" stop-color="#EDAE50"/>
</radialGradient>
<radialGradient id="paint11_radial_2148_18742" cx="0" cy="0" r="1" gradientUnits="userSpaceOnUse" gradientTransform="translate(118.685 81.9346) scale(16.6569 16.6569)">
<stop stop-color="#875934"/>
<stop offset="0.1094" stop-color="#8D5D36"/>
<stop offset="0.2511" stop-color="#9D683C"/>
<stop offset="0.4078" stop-color="#B77946"/>
<stop offset="1" stop-color="#EDAE50"/>
</radialGradient>
<radialGradient id="paint12_radial_2148_18742" cx="0" cy="0" r="1" gradientUnits="userSpaceOnUse" gradientTransform="translate(135.895 88.1256) scale(20.7258 20.7258)">
<stop stop-color="#875934"/>
<stop offset="0.1094" stop-color="#8D5D36"/>
<stop offset="0.2511" stop-color="#9D683C"/>
<stop offset="0.4078" stop-color="#B77946"/>
<stop offset="1" stop-color="#EDAE50"/>
</radialGradient>
<radialGradient id="paint13_radial_2148_18742" cx="0" cy="0" r="1" gradientUnits="userSpaceOnUse" gradientTransform="translate(155.719 106.884) scale(0.659008 0.659001)">
<stop stop-color="#875934"/>
<stop offset="0.1094" stop-color="#8D5D36"/>
<stop offset="0.2511" stop-color="#9D683C"/>
<stop offset="0.4078" stop-color="#B77946"/>
<stop offset="1" stop-color="#EDAE50"/>
</radialGradient>
<radialGradient id="paint14_radial_2148_18742" cx="0" cy="0" r="1" gradientUnits="userSpaceOnUse" gradientTransform="translate(145.838 63.8492) scale(7.9648 7.9648)">
<stop stop-color="#875934"/>
<stop offset="0.1094" stop-color="#8D5D36"/>
<stop offset="0.2511" stop-color="#9D683C"/>
<stop offset="0.4078" stop-color="#B77946"/>
<stop offset="1" stop-color="#EDAE50"/>
</radialGradient>
<radialGradient id="paint15_radial_2148_18742" cx="0" cy="0" r="1" gradientUnits="userSpaceOnUse" gradientTransform="translate(55.4805 100.899) scale(11.7954 11.7954)">
<stop stop-color="#875934"/>
<stop offset="0.1094" stop-color="#8D5D36"/>
<stop offset="0.2511" stop-color="#9D683C"/>
<stop offset="0.4078" stop-color="#B77946"/>
<stop offset="1" stop-color="#EDAE50"/>
</radialGradient>
<radialGradient id="paint16_radial_2148_18742" cx="0" cy="0" r="1" gradientUnits="userSpaceOnUse" gradientTransform="translate(64.5622 86.0693) scale(18.4744 18.4744)">
<stop stop-color="#875934"/>
<stop offset="0.1094" stop-color="#8D5D36"/>
<stop offset="0.2511" stop-color="#9D683C"/>
<stop offset="0.4078" stop-color="#B77946"/>
<stop offset="1" stop-color="#EDAE50"/>
</radialGradient>
<radialGradient id="paint17_radial_2148_18742" cx="0" cy="0" r="1" gradientUnits="userSpaceOnUse" gradientTransform="translate(75.2837 127.641) scale(15.9847)">
<stop stop-color="#875934"/>
<stop offset="0.1094" stop-color="#8D5D36"/>
<stop offset="0.2511" stop-color="#9D683C"/>
<stop offset="0.4078" stop-color="#B77946"/>
<stop offset="1" stop-color="#EDAE50"/>
</radialGradient>
<radialGradient id="paint18_radial_2148_18742" cx="0" cy="0" r="1" gradientUnits="userSpaceOnUse" gradientTransform="translate(75.1979 110.528) scale(20.3502)">
<stop stop-color="#875934"/>
<stop offset="0.1094" stop-color="#8D5D36"/>
<stop offset="0.2511" stop-color="#9D683C"/>
<stop offset="0.4078" stop-color="#B77946"/>
<stop offset="1" stop-color="#EDAE50"/>
</radialGradient>
<radialGradient id="paint19_radial_2148_18742" cx="0" cy="0" r="1" gradientUnits="userSpaceOnUse" gradientTransform="translate(88.4472 99.1812) scale(16.2146)">
<stop stop-color="#875934"/>
<stop offset="0.1094" stop-color="#8D5D36"/>
<stop offset="0.2511" stop-color="#9D683C"/>
<stop offset="0.4078" stop-color="#B77946"/>
<stop offset="1" stop-color="#EDAE50"/>
</radialGradient>
<radialGradient id="paint20_radial_2148_18742" cx="0" cy="0" r="1" gradientUnits="userSpaceOnUse" gradientTransform="translate(109.546 98.2929) scale(3.9759 3.9759)">
<stop stop-color="#875934"/>
<stop offset="0.1094" stop-color="#8D5D36"/>
<stop offset="0.2511" stop-color="#9D683C"/>
<stop offset="0.4078" stop-color="#B77946"/>
<stop offset="1" stop-color="#EDAE50"/>
</radialGradient>
<radialGradient id="paint21_radial_2148_18742" cx="0" cy="0" r="1" gradientUnits="userSpaceOnUse" gradientTransform="translate(100.852 129.991) scale(20.8392 20.8392)">
<stop stop-color="#875934"/>
<stop offset="0.1094" stop-color="#8D5D36"/>
<stop offset="0.2511" stop-color="#9D683C"/>
<stop offset="0.4078" stop-color="#B77946"/>
<stop offset="1" stop-color="#EDAE50"/>
</radialGradient>
<radialGradient id="paint22_radial_2148_18742" cx="0" cy="0" r="1" gradientUnits="userSpaceOnUse" gradientTransform="translate(104.779 113.552) scale(7.1651 7.16509)">
<stop stop-color="#875934"/>
<stop offset="0.1094" stop-color="#8D5D36"/>
<stop offset="0.2511" stop-color="#9D683C"/>
<stop offset="0.4078" stop-color="#B77946"/>
<stop offset="1" stop-color="#EDAE50"/>
</radialGradient>
<radialGradient id="paint23_radial_2148_18742" cx="0" cy="0" r="1" gradientUnits="userSpaceOnUse" gradientTransform="translate(107.604 107.629) scale(5.6018 5.6018)">
<stop stop-color="#875934"/>
<stop offset="0.1094" stop-color="#8D5D36"/>
<stop offset="0.2511" stop-color="#9D683C"/>
<stop offset="0.4078" stop-color="#B77946"/>
<stop offset="1" stop-color="#EDAE50"/>
</radialGradient>
<radialGradient id="paint24_radial_2148_18742" cx="0" cy="0" r="1" gradientUnits="userSpaceOnUse" gradientTransform="translate(116.019 113.945) scale(1.9623 1.96229)">
<stop stop-color="#875934"/>
<stop offset="0.1094" stop-color="#8D5D36"/>
<stop offset="0.2511" stop-color="#9D683C"/>
<stop offset="0.4078" stop-color="#B77946"/>
<stop offset="1" stop-color="#EDAE50"/>
</radialGradient>
<radialGradient id="paint25_radial_2148_18742" cx="0" cy="0" r="1" gradientUnits="userSpaceOnUse" gradientTransform="translate(131.92 128.119) scale(15.8515)">
<stop stop-color="#875934"/>
<stop offset="0.1094" stop-color="#8D5D36"/>
<stop offset="0.2511" stop-color="#9D683C"/>
<stop offset="0.4078" stop-color="#B77946"/>
<stop offset="1" stop-color="#EDAE50"/>
</radialGradient>
<radialGradient id="paint26_radial_2148_18742" cx="0" cy="0" r="1" gradientUnits="userSpaceOnUse" gradientTransform="translate(131.825 105.508) scale(17.5061 17.5061)">
<stop stop-color="#875934"/>
<stop offset="0.1094" stop-color="#8D5D36"/>
<stop offset="0.2511" stop-color="#9D683C"/>
<stop offset="0.4078" stop-color="#B77946"/>
<stop offset="1" stop-color="#EDAE50"/>
</radialGradient>
<radialGradient id="paint27_radial_2148_18742" cx="0" cy="0" r="1" gradientUnits="userSpaceOnUse" gradientTransform="translate(137.487 114.137) scale(14.2234 14.2234)">
<stop stop-color="#875934"/>
<stop offset="0.1094" stop-color="#8D5D36"/>
<stop offset="0.2511" stop-color="#9D683C"/>
<stop offset="0.4078" stop-color="#B77946"/>
<stop offset="1" stop-color="#EDAE50"/>
</radialGradient>
<linearGradient id="paint28_linear_2148_18742" x1="127.04" y1="32.7074" x2="116.254" y2="64.0221" gradientUnits="userSpaceOnUse">
<stop offset="0.2364" stop-color="#FFE794"/>
<stop offset="0.2702" stop-color="#FFE896" stop-opacity="0.9429"/>
<stop offset="0.5159" stop-color="#FFEFA0" stop-opacity="0.5278"/>
<stop offset="0.8284" stop-color="#FFF1A3" stop-opacity="0"/>
</linearGradient>
<linearGradient id="paint29_linear_2148_18742" x1="133.061" y1="104.125" x2="159.157" y2="69.4176" gradientUnits="userSpaceOnUse">
<stop offset="0.2364" stop-color="#FFE794"/>
<stop offset="0.2702" stop-color="#FFE896" stop-opacity="0.9429"/>
<stop offset="0.5159" stop-color="#FFEFA0" stop-opacity="0.5278"/>
<stop offset="0.8284" stop-color="#FFF1A3" stop-opacity="0"/>
</linearGradient>
<linearGradient id="paint30_linear_2148_18742" x1="55.8157" y1="67.5302" x2="68.3417" y2="97.2791" gradientUnits="userSpaceOnUse">
<stop offset="0.2364" stop-color="#FFE794"/>
<stop offset="0.2702" stop-color="#FFE896" stop-opacity="0.9429"/>
<stop offset="0.5159" stop-color="#FFEFA0" stop-opacity="0.5278"/>
<stop offset="0.8284" stop-color="#FFF1A3" stop-opacity="0"/>
</linearGradient>
<linearGradient id="paint31_linear_2148_18742" x1="84.6937" y1="116.821" x2="118.444" y2="148.832" gradientUnits="userSpaceOnUse">
<stop offset="0.2364" stop-color="#FFE794"/>
<stop offset="0.2702" stop-color="#FFE896" stop-opacity="0.9429"/>
<stop offset="0.5159" stop-color="#FFEFA0" stop-opacity="0.5278"/>
<stop offset="0.8284" stop-color="#FFF1A3" stop-opacity="0"/>
</linearGradient>
<linearGradient id="paint32_linear_2148_18742" x1="134.905" y1="111.324" x2="116.116" y2="153.425" gradientUnits="userSpaceOnUse">
<stop offset="0.002793" stop-color="#B77946" stop-opacity="0"/>
<stop offset="0.9274" stop-color="#B77946"/>
</linearGradient>
<linearGradient id="paint33_linear_2148_18742" x1="41.7868" y1="89.4635" x2="158.632" y2="89.4635" gradientUnits="userSpaceOnUse">
<stop stop-color="#B77946"/>
<stop offset="0.2364" stop-color="#FFE794"/>
<stop offset="0.2662" stop-color="#FBDA85"/>
<stop offset="0.3249" stop-color="#F5C76E"/>
<stop offset="0.3877" stop-color="#F0B95D"/>
<stop offset="0.4568" stop-color="#EEB153"/>
<stop offset="0.5447" stop-color="#EDAE50"/>
<stop offset="0.7245" stop-color="#EBAC50"/>
<stop offset="0.8226" stop-color="#E3A44E"/>
<stop offset="0.901" stop-color="#D5964C"/>
<stop offset="0.9686" stop-color="#C28448"/>
<stop offset="0.9972" stop-color="#B77946"/>
</linearGradient>
<linearGradient id="paint34_linear_2148_18742" x1="57.4941" y1="95.6088" x2="146.013" y2="82.4531" gradientUnits="userSpaceOnUse">
<stop stop-color="#321C0C"/>
<stop offset="0.5447" stop-color="#EDAE50"/>
<stop offset="0.5887" stop-color="#E0A24E"/>
<stop offset="0.6692" stop-color="#BF8148"/>
<stop offset="0.6872" stop-color="#B77946"/>
<stop offset="0.8111" stop-color="#B97B46"/>
<stop offset="0.8787" stop-color="#C18348"/>
<stop offset="0.9327" stop-color="#CF914B"/>
<stop offset="0.9793" stop-color="#E2A34E"/>
<stop offset="0.9972" stop-color="#ECAD50"/>
</linearGradient>
<linearGradient id="paint35_linear_2148_18742" x1="56.6203" y1="89.1151" x2="147.21" y2="89.1151" gradientUnits="userSpaceOnUse">
<stop stop-color="#B77946"/>
<stop offset="0.2364" stop-color="#FFE794"/>
<stop offset="0.2662" stop-color="#FBDA85"/>
<stop offset="0.3249" stop-color="#F5C76E"/>
<stop offset="0.3877" stop-color="#F0B95D"/>
<stop offset="0.4568" stop-color="#EEB153"/>
<stop offset="0.5447" stop-color="#EDAE50"/>
<stop offset="0.644" stop-color="#EEB052"/>
<stop offset="0.6982" stop-color="#EFB65A"/>
<stop offset="0.7415" stop-color="#F2C168"/>
<stop offset="0.779" stop-color="#F6D17B"/>
<stop offset="0.8125" stop-color="#FCE594"/>
<stop offset="0.8284" stop-color="#FFF1A3"/>
<stop offset="0.857" stop-color="#F7E398"/>
<stop offset="0.911" stop-color="#E1BF7C"/>
<stop offset="0.984" stop-color="#BE844F"/>
<stop offset="0.9972" stop-color="#B77946"/>
</linearGradient>
<radialGradient id="paint36_radial_2148_18742" cx="0" cy="0" r="1" gradientUnits="userSpaceOnUse" gradientTransform="translate(153.1 119.679) scale(135.595 135.595)">
<stop stop-color="#593B22"/>
<stop offset="0.1525" stop-color="#402B18"/>
<stop offset="0.3634" stop-color="#24180E"/>
<stop offset="0.5755" stop-color="#100B06"/>
<stop offset="0.7876" stop-color="#040402"/>
<stop offset="1" stop-color="#000100"/>
</radialGradient>
<radialGradient id="paint37_radial_2148_18742" cx="0" cy="0" r="1" gradientUnits="userSpaceOnUse" gradientTransform="translate(101.753 89.0309) scale(43.1659 43.1659)">
<stop stop-color="#593B22"/>
<stop offset="0.1525" stop-color="#402B18"/>
<stop offset="0.3634" stop-color="#24180E"/>
<stop offset="0.5755" stop-color="#100B06"/>
<stop offset="0.7876" stop-color="#040402"/>
<stop offset="1" stop-color="#000100"/>
</radialGradient>
<radialGradient id="paint38_radial_2148_18742" cx="0" cy="0" r="1" gradientUnits="userSpaceOnUse" gradientTransform="translate(67.1028 25.341) scale(88.4163 88.4163)">
<stop stop-color="#55BAFF"/>
<stop offset="0.0216" stop-color="#59BBFE" stop-opacity="0.9767"/>
<stop offset="0.4634" stop-color="#ADD8F2" stop-opacity="0.5005"/>
<stop offset="0.7756" stop-color="#E1E9EB" stop-opacity="0.1639"/>
<stop offset="0.9277" stop-color="#F5F0E8" stop-opacity="0"/>
</radialGradient>
<radialGradient id="paint39_radial_2148_18742" cx="0" cy="0" r="1" gradientUnits="userSpaceOnUse" gradientTransform="translate(138.429 136.588) scale(74.208 74.208)">
<stop stop-color="#EDAE50"/>
<stop offset="0.1105" stop-color="#DFA44B" stop-opacity="0.8892"/>
<stop offset="0.3188" stop-color="#BB893F" stop-opacity="0.6803"/>
<stop offset="0.6028" stop-color="#805D2C" stop-opacity="0.3955"/>
<stop offset="0.9483" stop-color="#2F2111" stop-opacity="0.0491"/>
<stop offset="0.9972" stop-color="#23180D" stop-opacity="0"/>
</radialGradient>
<linearGradient id="paint40_linear_2148_18742" x1="72.2695" y1="43.7374" x2="78.1844" y2="6.85616" gradientUnits="userSpaceOnUse">
<stop stop-color="#B77946"/>
<stop offset="0.2364" stop-color="#FFE794"/>
<stop offset="0.2662" stop-color="#FBDA85"/>
<stop offset="0.3249" stop-color="#F5C76E"/>
<stop offset="0.3877" stop-color="#F0B95D"/>
<stop offset="0.4568" stop-color="#EEB153"/>
<stop offset="0.5447" stop-color="#EDAE50"/>
<stop offset="0.644" stop-color="#EEB052"/>
<stop offset="0.6982" stop-color="#EFB65A"/>
<stop offset="0.7415" stop-color="#F2C168"/>
<stop offset="0.779" stop-color="#F6D17B"/>
<stop offset="0.8125" stop-color="#FCE594"/>
<stop offset="0.8284" stop-color="#FFF1A3"/>
<stop offset="0.857" stop-color="#F7E398"/>
<stop offset="0.911" stop-color="#E1BF7C"/>
<stop offset="0.984" stop-color="#BE844F"/>
<stop offset="0.9972" stop-color="#B77946"/>
</linearGradient>
<linearGradient id="paint41_linear_2148_18742" x1="72.2695" y1="43.7374" x2="78.1844" y2="6.85616" gradientUnits="userSpaceOnUse">
<stop stop-color="#B77946"/>
<stop offset="0.2364" stop-color="#FFE794"/>
<stop offset="0.2662" stop-color="#FBDA85"/>
<stop offset="0.3249" stop-color="#F5C76E"/>
<stop offset="0.3877" stop-color="#F0B95D"/>
<stop offset="0.4568" stop-color="#EEB153"/>
<stop offset="0.5447" stop-color="#EDAE50"/>
<stop offset="0.644" stop-color="#EEB052"/>
<stop offset="0.6982" stop-color="#EFB65A"/>
<stop offset="0.7415" stop-color="#F2C168"/>
<stop offset="0.779" stop-color="#F6D17B"/>
<stop offset="0.8125" stop-color="#FCE594"/>
<stop offset="0.8284" stop-color="#FFF1A3"/>
<stop offset="0.857" stop-color="#F7E398"/>
<stop offset="0.911" stop-color="#E1BF7C"/>
<stop offset="0.984" stop-color="#BE844F"/>
<stop offset="0.9972" stop-color="#B77946"/>
</linearGradient>
<linearGradient id="paint42_linear_2148_18742" x1="71.6072" y1="43.8451" x2="75.4345" y2="31.6673" gradientUnits="userSpaceOnUse">
<stop offset="0.002793" stop-color="#B77946" stop-opacity="0"/>
<stop offset="0.9274" stop-color="#B77946"/>
</linearGradient>
<linearGradient id="paint43_linear_2148_18742" x1="64.8681" y1="25.3889" x2="71.2319" y2="39.1038" gradientUnits="userSpaceOnUse">
<stop stop-color="#B77946"/>
<stop offset="0.2364" stop-color="#FFE794"/>
<stop offset="0.2662" stop-color="#FBDA85"/>
<stop offset="0.3249" stop-color="#F5C76E"/>
<stop offset="0.3877" stop-color="#F0B95D"/>
<stop offset="0.4568" stop-color="#EEB153"/>
<stop offset="0.5447" stop-color="#EDAE50"/>
<stop offset="0.644" stop-color="#EEB052"/>
<stop offset="0.6982" stop-color="#EFB65A"/>
<stop offset="0.7415" stop-color="#F2C168"/>
<stop offset="0.779" stop-color="#F6D17B"/>
<stop offset="0.8125" stop-color="#FCE594"/>
<stop offset="0.8284" stop-color="#FFF1A3"/>
<stop offset="0.857" stop-color="#F7E398"/>
<stop offset="0.911" stop-color="#E1BF7C"/>
<stop offset="0.984" stop-color="#BE844F"/>
<stop offset="0.9972" stop-color="#B77946"/>
</linearGradient>
<linearGradient id="paint44_linear_2148_18742" x1="68.8248" y1="28.6931" x2="68.8248" y2="45.1334" gradientUnits="userSpaceOnUse">
<stop offset="0.2364" stop-color="#FFE794"/>
<stop offset="0.2702" stop-color="#FFE896" stop-opacity="0.9429"/>
<stop offset="0.5159" stop-color="#FFEFA0" stop-opacity="0.5278"/>
<stop offset="0.8284" stop-color="#FFF1A3" stop-opacity="0"/>
</linearGradient>
<linearGradient id="paint45_linear_2148_18742" x1="69.5658" y1="51.8447" x2="85.745" y2="-7.13105" gradientUnits="userSpaceOnUse">
<stop stop-color="#B77946"/>
<stop offset="0.2364" stop-color="#FFE794"/>
<stop offset="0.2662" stop-color="#FBDA85"/>
<stop offset="0.3249" stop-color="#F5C76E"/>
<stop offset="0.3877" stop-color="#F0B95D"/>
<stop offset="0.4568" stop-color="#EEB153"/>
<stop offset="0.5447" stop-color="#EDAE50"/>
<stop offset="0.644" stop-color="#EEB052"/>
<stop offset="0.6982" stop-color="#EFB65A"/>
<stop offset="0.7415" stop-color="#F2C168"/>
<stop offset="0.779" stop-color="#F6D17B"/>
<stop offset="0.8125" stop-color="#FCE594"/>
<stop offset="0.8284" stop-color="#FFF1A3"/>
<stop offset="0.857" stop-color="#F7E398"/>
<stop offset="0.911" stop-color="#E1BF7C"/>
<stop offset="0.984" stop-color="#BE844F"/>
<stop offset="0.9972" stop-color="#B77946"/>
</linearGradient>
<linearGradient id="paint46_linear_2148_18742" x1="93.6681" y1="28.1627" x2="94.19" y2="44.6029" gradientUnits="userSpaceOnUse">
<stop stop-color="#B77946"/>
<stop offset="0.2364" stop-color="#FFE794"/>
<stop offset="0.2662" stop-color="#FBDA85"/>
<stop offset="0.3249" stop-color="#F5C76E"/>
<stop offset="0.3877" stop-color="#F0B95D"/>
<stop offset="0.4568" stop-color="#EEB153"/>
<stop offset="0.5447" stop-color="#EDAE50"/>
<stop offset="0.644" stop-color="#EEB052"/>
<stop offset="0.6982" stop-color="#EFB65A"/>
<stop offset="0.7415" stop-color="#F2C168"/>
<stop offset="0.779" stop-color="#F6D17B"/>
<stop offset="0.8125" stop-color="#FCE594"/>
<stop offset="0.8284" stop-color="#FFF1A3"/>
<stop offset="0.857" stop-color="#F7E398"/>
<stop offset="0.911" stop-color="#E1BF7C"/>
<stop offset="0.984" stop-color="#BE844F"/>
<stop offset="0.9972" stop-color="#B77946"/>
</linearGradient>
<linearGradient id="paint47_linear_2148_18742" x1="99.0071" y1="37.1774" x2="64.7355" y2="30.6537" gradientUnits="userSpaceOnUse">
<stop stop-color="#B77946"/>
<stop offset="0.2364" stop-color="#FFE794"/>
<stop offset="0.2662" stop-color="#FBDA85"/>
<stop offset="0.3249" stop-color="#F5C76E"/>
<stop offset="0.3877" stop-color="#F0B95D"/>
<stop offset="0.4568" stop-color="#EEB153"/>
<stop offset="0.5447" stop-color="#EDAE50"/>
<stop offset="0.644" stop-color="#EEB052"/>
<stop offset="0.6982" stop-color="#EFB65A"/>
<stop offset="0.7415" stop-color="#F2C168"/>
<stop offset="0.779" stop-color="#F6D17B"/>
<stop offset="0.8125" stop-color="#FCE594"/>
<stop offset="0.8284" stop-color="#FFF1A3"/>
<stop offset="0.857" stop-color="#F7E398"/>
<stop offset="0.911" stop-color="#E1BF7C"/>
<stop offset="0.984" stop-color="#BE844F"/>
<stop offset="0.9972" stop-color="#B77946"/>
</linearGradient>
<linearGradient id="paint48_linear_2148_18742" x1="92.9435" y1="34.0294" x2="93.2228" y2="42.8289" gradientUnits="userSpaceOnUse">
<stop stop-color="#B77946"/>
<stop offset="0.2364" stop-color="#FFE794"/>
<stop offset="0.2662" stop-color="#FBDA85"/>
<stop offset="0.3249" stop-color="#F5C76E"/>
<stop offset="0.3877" stop-color="#F0B95D"/>
<stop offset="0.4568" stop-color="#EEB153"/>
<stop offset="0.5447" stop-color="#EDAE50"/>
<stop offset="0.644" stop-color="#EEB052"/>
<stop offset="0.6982" stop-color="#EFB65A"/>
<stop offset="0.7415" stop-color="#F2C168"/>
<stop offset="0.779" stop-color="#F6D17B"/>
<stop offset="0.8125" stop-color="#FCE594"/>
<stop offset="0.8284" stop-color="#FFF1A3"/>
<stop offset="0.857" stop-color="#F7E398"/>
<stop offset="0.911" stop-color="#E1BF7C"/>
<stop offset="0.984" stop-color="#BE844F"/>
<stop offset="0.9972" stop-color="#B77946"/>
</linearGradient>
<linearGradient id="paint49_linear_2148_18742" x1="87.8937" y1="31.788" x2="108.683" y2="46.3144" gradientUnits="userSpaceOnUse">
<stop stop-color="#B77946"/>
<stop offset="0.2364" stop-color="#FFE794"/>
<stop offset="0.2662" stop-color="#FBDA85"/>
<stop offset="0.3249" stop-color="#F5C76E"/>
<stop offset="0.3877" stop-color="#F0B95D"/>
<stop offset="0.4568" stop-color="#EEB153"/>
<stop offset="0.5447" stop-color="#EDAE50"/>
<stop offset="0.644" stop-color="#EEB052"/>
<stop offset="0.6982" stop-color="#EFB65A"/>
<stop offset="0.7415" stop-color="#F2C168"/>
<stop offset="0.779" stop-color="#F6D17B"/>
<stop offset="0.8125" stop-color="#FCE594"/>
<stop offset="0.8284" stop-color="#FFF1A3"/>
<stop offset="0.857" stop-color="#F7E398"/>
<stop offset="0.911" stop-color="#E1BF7C"/>
<stop offset="0.984" stop-color="#BE844F"/>
<stop offset="0.9972" stop-color="#B77946"/>
</linearGradient>
<linearGradient id="paint50_linear_2148_18742" x1="91.4504" y1="32.3275" x2="92.6682" y2="39.4603" gradientUnits="userSpaceOnUse">
<stop offset="0.2364" stop-color="#FFE794"/>
<stop offset="0.2702" stop-color="#FFE896" stop-opacity="0.9429"/>
<stop offset="0.5159" stop-color="#FFEFA0" stop-opacity="0.5278"/>
<stop offset="0.8284" stop-color="#FFF1A3" stop-opacity="0"/>
</linearGradient>
<linearGradient id="paint51_linear_2148_18742" x1="52.9067" y1="60.4124" x2="50.9931" y2="49.4523" gradientUnits="userSpaceOnUse">
<stop stop-color="#B77946"/>
<stop offset="0.2364" stop-color="#FFE794"/>
<stop offset="0.2662" stop-color="#FBDA85"/>
<stop offset="0.3249" stop-color="#F5C76E"/>
<stop offset="0.3877" stop-color="#F0B95D"/>
<stop offset="0.4568" stop-color="#EEB153"/>
<stop offset="0.5447" stop-color="#EDAE50"/>
<stop offset="0.644" stop-color="#EEB052"/>
<stop offset="0.6982" stop-color="#EFB65A"/>
<stop offset="0.7415" stop-color="#F2C168"/>
<stop offset="0.779" stop-color="#F6D17B"/>
<stop offset="0.8125" stop-color="#FCE594"/>
<stop offset="0.8284" stop-color="#FFF1A3"/>
<stop offset="0.857" stop-color="#F7E398"/>
<stop offset="0.911" stop-color="#E1BF7C"/>
<stop offset="0.984" stop-color="#BE844F"/>
<stop offset="0.9972" stop-color="#B77946"/>
</linearGradient>
<linearGradient id="paint52_linear_2148_18742" x1="51.2357" y1="51.8761" x2="52.4536" y2="70.2317" gradientUnits="userSpaceOnUse">
<stop stop-color="#B77946"/>
<stop offset="0.2364" stop-color="#FFE794"/>
<stop offset="0.2662" stop-color="#FBDA85"/>
<stop offset="0.3249" stop-color="#F5C76E"/>
<stop offset="0.3877" stop-color="#F0B95D"/>
<stop offset="0.4568" stop-color="#EEB153"/>
<stop offset="0.5447" stop-color="#EDAE50"/>
<stop offset="0.644" stop-color="#EEB052"/>
<stop offset="0.6982" stop-color="#EFB65A"/>
<stop offset="0.7415" stop-color="#F2C168"/>
<stop offset="0.779" stop-color="#F6D17B"/>
<stop offset="0.8125" stop-color="#FCE594"/>
<stop offset="0.8284" stop-color="#FFF1A3"/>
<stop offset="0.857" stop-color="#F7E398"/>
<stop offset="0.911" stop-color="#E1BF7C"/>
<stop offset="0.984" stop-color="#BE844F"/>
<stop offset="0.9972" stop-color="#B77946"/>
</linearGradient>
<linearGradient id="paint53_linear_2148_18742" x1="53.5498" y1="64.9651" x2="49.4398" y2="42.686" gradientUnits="userSpaceOnUse">
<stop stop-color="#B77946"/>
<stop offset="0.2364" stop-color="#FFE794"/>
<stop offset="0.2662" stop-color="#FBDA85"/>
<stop offset="0.3249" stop-color="#F5C76E"/>
<stop offset="0.3877" stop-color="#F0B95D"/>
<stop offset="0.4568" stop-color="#EEB153"/>
<stop offset="0.5447" stop-color="#EDAE50"/>
<stop offset="0.644" stop-color="#EEB052"/>
<stop offset="0.6982" stop-color="#EFB65A"/>
<stop offset="0.7415" stop-color="#F2C168"/>
<stop offset="0.779" stop-color="#F6D17B"/>
<stop offset="0.8125" stop-color="#FCE594"/>
<stop offset="0.8284" stop-color="#FFF1A3"/>
<stop offset="0.857" stop-color="#F7E398"/>
<stop offset="0.911" stop-color="#E1BF7C"/>
<stop offset="0.984" stop-color="#BE844F"/>
<stop offset="0.9972" stop-color="#B77946"/>
</linearGradient>
<linearGradient id="paint54_linear_2148_18742" x1="45.6288" y1="52.4235" x2="53.4575" y2="79.5629" gradientUnits="userSpaceOnUse">
<stop stop-color="#B77946"/>
<stop offset="0.2364" stop-color="#FFE794"/>
<stop offset="0.2662" stop-color="#FBDA85"/>
<stop offset="0.3249" stop-color="#F5C76E"/>
<stop offset="0.3877" stop-color="#F0B95D"/>
<stop offset="0.4568" stop-color="#EEB153"/>
<stop offset="0.5447" stop-color="#EDAE50"/>
<stop offset="0.644" stop-color="#EEB052"/>
<stop offset="0.6982" stop-color="#EFB65A"/>
<stop offset="0.7415" stop-color="#F2C168"/>
<stop offset="0.779" stop-color="#F6D17B"/>
<stop offset="0.8125" stop-color="#FCE594"/>
<stop offset="0.8284" stop-color="#FFF1A3"/>
<stop offset="0.857" stop-color="#F7E398"/>
<stop offset="0.911" stop-color="#E1BF7C"/>
<stop offset="0.984" stop-color="#BE844F"/>
<stop offset="0.9972" stop-color="#B77946"/>
</linearGradient>
<linearGradient id="paint55_linear_2148_18742" x1="50.1031" y1="71.9046" x2="47.3174" y2="54.8685" gradientUnits="userSpaceOnUse">
<stop offset="0.002793" stop-color="#B77946" stop-opacity="0"/>
<stop offset="0.9274" stop-color="#B77946"/>
</linearGradient>
<linearGradient id="paint56_linear_2148_18742" x1="51.7407" y1="71.7886" x2="44.455" y2="50.7886" gradientUnits="userSpaceOnUse">
<stop stop-color="#B77946"/>
<stop offset="0.2364" stop-color="#FFE794"/>
<stop offset="0.2662" stop-color="#FBDA85"/>
<stop offset="0.3249" stop-color="#F5C76E"/>
<stop offset="0.3877" stop-color="#F0B95D"/>
<stop offset="0.4568" stop-color="#EEB153"/>
<stop offset="0.5447" stop-color="#EDAE50"/>
<stop offset="0.644" stop-color="#EEB052"/>
<stop offset="0.6982" stop-color="#EFB65A"/>
<stop offset="0.7415" stop-color="#F2C168"/>
<stop offset="0.779" stop-color="#F6D17B"/>
<stop offset="0.8125" stop-color="#FCE594"/>
<stop offset="0.8284" stop-color="#FFF1A3"/>
<stop offset="0.857" stop-color="#F7E398"/>
<stop offset="0.911" stop-color="#E1BF7C"/>
<stop offset="0.984" stop-color="#BE844F"/>
<stop offset="0.9972" stop-color="#B77946"/>
</linearGradient>
<linearGradient id="paint57_linear_2148_18742" x1="34.8747" y1="87.2018" x2="50.793" y2="119.299" gradientUnits="userSpaceOnUse">
<stop stop-color="#B77946"/>
<stop offset="0.2364" stop-color="#FFE794"/>
<stop offset="0.2662" stop-color="#FBDA85"/>
<stop offset="0.3249" stop-color="#F5C76E"/>
<stop offset="0.3877" stop-color="#F0B95D"/>
<stop offset="0.4568" stop-color="#EEB153"/>
<stop offset="0.5447" stop-color="#EDAE50"/>
<stop offset="0.644" stop-color="#EEB052"/>
<stop offset="0.6982" stop-color="#EFB65A"/>
<stop offset="0.7415" stop-color="#F2C168"/>
<stop offset="0.779" stop-color="#F6D17B"/>
<stop offset="0.8125" stop-color="#FCE594"/>
<stop offset="0.8284" stop-color="#FFF1A3"/>
<stop offset="0.857" stop-color="#F7E398"/>
<stop offset="0.911" stop-color="#E1BF7C"/>
<stop offset="0.984" stop-color="#BE844F"/>
<stop offset="0.9972" stop-color="#B77946"/>
</linearGradient>
<linearGradient id="paint58_linear_2148_18742" x1="38.0042" y1="98.0165" x2="47.9391" y2="121.925" gradientUnits="userSpaceOnUse">
<stop offset="0.2364" stop-color="#FFE794"/>
<stop offset="0.2662" stop-color="#FBDA85"/>
<stop offset="0.3249" stop-color="#F5C76E"/>
<stop offset="0.3877" stop-color="#F0B95D"/>
<stop offset="0.4568" stop-color="#EEB153"/>
<stop offset="0.5447" stop-color="#EDAE50"/>
<stop offset="0.644" stop-color="#EEB052"/>
<stop offset="0.6982" stop-color="#EFB65A"/>
<stop offset="0.7415" stop-color="#F2C168"/>
<stop offset="0.779" stop-color="#F6D17B"/>
<stop offset="0.8125" stop-color="#FCE594"/>
<stop offset="0.8284" stop-color="#FFF1A3"/>
<stop offset="0.857" stop-color="#F7E398"/>
<stop offset="0.911" stop-color="#E1BF7C"/>
<stop offset="0.984" stop-color="#BE844F"/>
<stop offset="0.9972" stop-color="#B77946"/>
</linearGradient>
<linearGradient id="paint59_linear_2148_18742" x1="22.309" y1="124.127" x2="56.2332" y2="93.7262" gradientUnits="userSpaceOnUse">
<stop stop-color="#B77946"/>
<stop offset="0.2364" stop-color="#FFE794"/>
<stop offset="0.2662" stop-color="#FBDA85"/>
<stop offset="0.3249" stop-color="#F5C76E"/>
<stop offset="0.3877" stop-color="#F0B95D"/>
<stop offset="0.4568" stop-color="#EEB153"/>
<stop offset="0.5447" stop-color="#EDAE50"/>
<stop offset="0.644" stop-color="#EEB052"/>
<stop offset="0.6982" stop-color="#EFB65A"/>
<stop offset="0.7415" stop-color="#F2C168"/>
<stop offset="0.779" stop-color="#F6D17B"/>
<stop offset="0.8125" stop-color="#FCE594"/>
<stop offset="0.8284" stop-color="#FFF1A3"/>
<stop offset="0.857" stop-color="#F7E398"/>
<stop offset="0.911" stop-color="#E1BF7C"/>
<stop offset="0.984" stop-color="#BE844F"/>
<stop offset="0.9972" stop-color="#B77946"/>
</linearGradient>
<linearGradient id="paint60_linear_2148_18742" x1="28.918" y1="133.066" x2="62.4507" y2="84.7894" gradientUnits="userSpaceOnUse">
<stop offset="0.002793" stop-color="#B77946" stop-opacity="0"/>
<stop offset="0.9274" stop-color="#B77946"/>
</linearGradient>
<linearGradient id="paint61_linear_2148_18742" x1="34.7464" y1="102.87" x2="38.7051" y2="110.853" gradientUnits="userSpaceOnUse">
<stop stop-color="#B77946"/>
<stop offset="0.2364" stop-color="#FFE794"/>
<stop offset="0.2662" stop-color="#FBDA85"/>
<stop offset="0.3249" stop-color="#F5C76E"/>
<stop offset="0.3877" stop-color="#F0B95D"/>
<stop offset="0.4568" stop-color="#EEB153"/>
<stop offset="0.5447" stop-color="#EDAE50"/>
<stop offset="0.644" stop-color="#EEB052"/>
<stop offset="0.6982" stop-color="#EFB65A"/>
<stop offset="0.7415" stop-color="#F2C168"/>
<stop offset="0.779" stop-color="#F6D17B"/>
<stop offset="0.8125" stop-color="#FCE594"/>
<stop offset="0.8284" stop-color="#FFF1A3"/>
<stop offset="0.857" stop-color="#F7E398"/>
<stop offset="0.911" stop-color="#E1BF7C"/>
<stop offset="0.984" stop-color="#BE844F"/>
<stop offset="0.9972" stop-color="#B77946"/>
</linearGradient>
<linearGradient id="paint62_linear_2148_18742" x1="149.739" y1="58.0701" x2="164.091" y2="83.1217" gradientUnits="userSpaceOnUse">
<stop stop-color="#B77946"/>
<stop offset="0.2364" stop-color="#FFE794"/>
<stop offset="0.2662" stop-color="#FBDA85"/>
<stop offset="0.3249" stop-color="#F5C76E"/>
<stop offset="0.3877" stop-color="#F0B95D"/>
<stop offset="0.4568" stop-color="#EEB153"/>
<stop offset="0.5447" stop-color="#EDAE50"/>
<stop offset="0.644" stop-color="#EEB052"/>
<stop offset="0.6982" stop-color="#EFB65A"/>
<stop offset="0.7415" stop-color="#F2C168"/>
<stop offset="0.779" stop-color="#F6D17B"/>
<stop offset="0.8125" stop-color="#FCE594"/>
<stop offset="0.8284" stop-color="#FFF1A3"/>
<stop offset="0.857" stop-color="#F7E398"/>
<stop offset="0.911" stop-color="#E1BF7C"/>
<stop offset="0.984" stop-color="#BE844F"/>
<stop offset="0.9972" stop-color="#B77946"/>
</linearGradient>
<linearGradient id="paint63_linear_2148_18742" x1="172.873" y1="80.805" x2="132.816" y2="58.8847" gradientUnits="userSpaceOnUse">
<stop stop-color="#B77946"/>
<stop offset="0.2364" stop-color="#FFE794"/>
<stop offset="0.2662" stop-color="#FBDA85"/>
<stop offset="0.3249" stop-color="#F5C76E"/>
<stop offset="0.3877" stop-color="#F0B95D"/>
<stop offset="0.4568" stop-color="#EEB153"/>
<stop offset="0.5447" stop-color="#EDAE50"/>
<stop offset="0.644" stop-color="#EEB052"/>
<stop offset="0.6982" stop-color="#EFB65A"/>
<stop offset="0.7415" stop-color="#F2C168"/>
<stop offset="0.779" stop-color="#F6D17B"/>
<stop offset="0.8125" stop-color="#FCE594"/>
<stop offset="0.8284" stop-color="#FFF1A3"/>
<stop offset="0.857" stop-color="#F7E398"/>
<stop offset="0.911" stop-color="#E1BF7C"/>
<stop offset="0.984" stop-color="#BE844F"/>
<stop offset="0.9972" stop-color="#B77946"/>
</linearGradient>
<linearGradient id="paint64_linear_2148_18742" x1="166.623" y1="104.632" x2="152.14" y2="60.5309" gradientUnits="userSpaceOnUse">
<stop stop-color="#B77946"/>
<stop offset="0.2364" stop-color="#FFE794"/>
<stop offset="0.2662" stop-color="#FBDA85"/>
<stop offset="0.3249" stop-color="#F5C76E"/>
<stop offset="0.3877" stop-color="#F0B95D"/>
<stop offset="0.4568" stop-color="#EEB153"/>
<stop offset="0.5447" stop-color="#EDAE50"/>
<stop offset="0.644" stop-color="#EEB052"/>
<stop offset="0.6982" stop-color="#EFB65A"/>
<stop offset="0.7415" stop-color="#F2C168"/>
<stop offset="0.779" stop-color="#F6D17B"/>
<stop offset="0.8125" stop-color="#FCE594"/>
<stop offset="0.8284" stop-color="#FFF1A3"/>
<stop offset="0.857" stop-color="#F7E398"/>
<stop offset="0.911" stop-color="#E1BF7C"/>
<stop offset="0.984" stop-color="#BE844F"/>
<stop offset="0.9972" stop-color="#B77946"/>
</linearGradient>
<linearGradient id="paint65_linear_2148_18742" x1="151.787" y1="65.9862" x2="163.791" y2="75.6415" gradientUnits="userSpaceOnUse">
<stop offset="0.2364" stop-color="#FFE794"/>
<stop offset="0.2702" stop-color="#FFE896" stop-opacity="0.9429"/>
<stop offset="0.5159" stop-color="#FFEFA0" stop-opacity="0.5278"/>
<stop offset="0.8284" stop-color="#FFF1A3" stop-opacity="0"/>
</linearGradient>
<linearGradient id="paint66_linear_2148_18742" x1="150.292" y1="67.6934" x2="158.67" y2="82.3181" gradientUnits="userSpaceOnUse">
<stop stop-color="#B77946"/>
<stop offset="0.2364" stop-color="#FFE794"/>
<stop offset="0.2662" stop-color="#FBDA85"/>
<stop offset="0.3249" stop-color="#F5C76E"/>
<stop offset="0.3877" stop-color="#F0B95D"/>
<stop offset="0.4568" stop-color="#EEB153"/>
<stop offset="0.5447" stop-color="#EDAE50"/>
<stop offset="0.644" stop-color="#EEB052"/>
<stop offset="0.6982" stop-color="#EFB65A"/>
<stop offset="0.7415" stop-color="#F2C168"/>
<stop offset="0.779" stop-color="#F6D17B"/>
<stop offset="0.8125" stop-color="#FCE594"/>
<stop offset="0.8284" stop-color="#FFF1A3"/>
<stop offset="0.857" stop-color="#F7E398"/>
<stop offset="0.911" stop-color="#E1BF7C"/>
<stop offset="0.984" stop-color="#BE844F"/>
<stop offset="0.9972" stop-color="#B77946"/>
</linearGradient>
<linearGradient id="paint67_linear_2148_18742" x1="155.169" y1="59.1745" x2="163.693" y2="74.0537" gradientUnits="userSpaceOnUse">
<stop stop-color="#B77946"/>
<stop offset="0.2364" stop-color="#FFE794"/>
<stop offset="0.2662" stop-color="#FBDA85"/>
<stop offset="0.3249" stop-color="#F5C76E"/>
<stop offset="0.3877" stop-color="#F0B95D"/>
<stop offset="0.4568" stop-color="#EEB153"/>
<stop offset="0.5447" stop-color="#EDAE50"/>
<stop offset="0.644" stop-color="#EEB052"/>
<stop offset="0.6982" stop-color="#EFB65A"/>
<stop offset="0.7415" stop-color="#F2C168"/>
<stop offset="0.779" stop-color="#F6D17B"/>
<stop offset="0.8125" stop-color="#FCE594"/>
<stop offset="0.8284" stop-color="#FFF1A3"/>
<stop offset="0.857" stop-color="#F7E398"/>
<stop offset="0.911" stop-color="#E1BF7C"/>
<stop offset="0.984" stop-color="#BE844F"/>
<stop offset="0.9972" stop-color="#B77946"/>
</linearGradient>
<linearGradient id="paint68_linear_2148_18742" x1="142.361" y1="105.188" x2="158.415" y2="135.869" gradientUnits="userSpaceOnUse">
<stop stop-color="#B77946"/>
<stop offset="0.2364" stop-color="#FFE794"/>
<stop offset="0.2662" stop-color="#FBDA85"/>
<stop offset="0.3249" stop-color="#F5C76E"/>
<stop offset="0.3877" stop-color="#F0B95D"/>
<stop offset="0.4568" stop-color="#EEB153"/>
<stop offset="0.5447" stop-color="#EDAE50"/>
<stop offset="0.644" stop-color="#EEB052"/>
<stop offset="0.6982" stop-color="#EFB65A"/>
<stop offset="0.7415" stop-color="#F2C168"/>
<stop offset="0.779" stop-color="#F6D17B"/>
<stop offset="0.8125" stop-color="#FCE594"/>
<stop offset="0.8284" stop-color="#FFF1A3"/>
<stop offset="0.857" stop-color="#F7E398"/>
<stop offset="0.911" stop-color="#E1BF7C"/>
<stop offset="0.984" stop-color="#BE844F"/>
<stop offset="0.9972" stop-color="#B77946"/>
</linearGradient>
<linearGradient id="paint69_linear_2148_18742" x1="153.071" y1="126.606" x2="135.674" y2="101.207" gradientUnits="userSpaceOnUse">
<stop stop-color="#B77946"/>
<stop offset="0.2364" stop-color="#FFE794"/>
<stop offset="0.2662" stop-color="#FBDA85"/>
<stop offset="0.3249" stop-color="#F5C76E"/>
<stop offset="0.3877" stop-color="#F0B95D"/>
<stop offset="0.4568" stop-color="#EEB153"/>
<stop offset="0.5447" stop-color="#EDAE50"/>
<stop offset="0.644" stop-color="#EEB052"/>
<stop offset="0.6982" stop-color="#EFB65A"/>
<stop offset="0.7415" stop-color="#F2C168"/>
<stop offset="0.779" stop-color="#F6D17B"/>
<stop offset="0.8125" stop-color="#FCE594"/>
<stop offset="0.8284" stop-color="#FFF1A3"/>
<stop offset="0.857" stop-color="#F7E398"/>
<stop offset="0.911" stop-color="#E1BF7C"/>
<stop offset="0.984" stop-color="#BE844F"/>
<stop offset="0.9972" stop-color="#B77946"/>
</linearGradient>
<linearGradient id="paint70_linear_2148_18742" x1="148.426" y1="118.269" x2="150.122" y2="131.055" gradientUnits="userSpaceOnUse">
<stop offset="0.2364" stop-color="#FFE794"/>
<stop offset="0.2702" stop-color="#FFE896" stop-opacity="0.9429"/>
<stop offset="0.5159" stop-color="#FFEFA0" stop-opacity="0.5278"/>
<stop offset="0.8284" stop-color="#FFF1A3" stop-opacity="0"/>
</linearGradient>
<linearGradient id="paint71_linear_2148_18742" x1="151.531" y1="126.038" x2="151.551" y2="126.075" gradientUnits="userSpaceOnUse">
<stop stop-color="#B77946"/>
<stop offset="0.2364" stop-color="#FFE794"/>
<stop offset="0.2662" stop-color="#FBDA85"/>
<stop offset="0.3249" stop-color="#F5C76E"/>
<stop offset="0.3877" stop-color="#F0B95D"/>
<stop offset="0.4568" stop-color="#EEB153"/>
<stop offset="0.5447" stop-color="#EDAE50"/>
<stop offset="0.644" stop-color="#EEB052"/>
<stop offset="0.6982" stop-color="#EFB65A"/>
<stop offset="0.7415" stop-color="#F2C168"/>
<stop offset="0.779" stop-color="#F6D17B"/>
<stop offset="0.8125" stop-color="#FCE594"/>
<stop offset="0.8284" stop-color="#FFF1A3"/>
<stop offset="0.857" stop-color="#F7E398"/>
<stop offset="0.911" stop-color="#E1BF7C"/>
<stop offset="0.984" stop-color="#BE844F"/>
<stop offset="0.9972" stop-color="#B77946"/>
</linearGradient>
<linearGradient id="paint72_linear_2148_18742" x1="143.219" y1="128.882" x2="159.399" y2="117.922" gradientUnits="userSpaceOnUse">
<stop stop-color="#B77946"/>
<stop offset="0.2364" stop-color="#FFE794"/>
<stop offset="0.2662" stop-color="#FBDA85"/>
<stop offset="0.3249" stop-color="#F5C76E"/>
<stop offset="0.3877" stop-color="#F0B95D"/>
<stop offset="0.4568" stop-color="#EEB153"/>
<stop offset="0.5447" stop-color="#EDAE50"/>
<stop offset="0.644" stop-color="#EEB052"/>
<stop offset="0.6982" stop-color="#EFB65A"/>
<stop offset="0.7415" stop-color="#F2C168"/>
<stop offset="0.779" stop-color="#F6D17B"/>
<stop offset="0.8125" stop-color="#FCE594"/>
<stop offset="0.8284" stop-color="#FFF1A3"/>
<stop offset="0.857" stop-color="#F7E398"/>
<stop offset="0.911" stop-color="#E1BF7C"/>
<stop offset="0.984" stop-color="#BE844F"/>
<stop offset="0.9972" stop-color="#B77946"/>
</linearGradient>
<linearGradient id="paint73_linear_2148_18742" x1="148.223" y1="125.423" x2="148.093" y2="91.1078" gradientUnits="userSpaceOnUse">
<stop stop-color="#B77946"/>
<stop offset="0.2364" stop-color="#FFE794"/>
<stop offset="0.2662" stop-color="#FBDA85"/>
<stop offset="0.3249" stop-color="#F5C76E"/>
<stop offset="0.3877" stop-color="#F0B95D"/>
<stop offset="0.4568" stop-color="#EEB153"/>
<stop offset="0.5447" stop-color="#EDAE50"/>
<stop offset="0.644" stop-color="#EEB052"/>
<stop offset="0.6982" stop-color="#EFB65A"/>
<stop offset="0.7415" stop-color="#F2C168"/>
<stop offset="0.779" stop-color="#F6D17B"/>
<stop offset="0.8125" stop-color="#FCE594"/>
<stop offset="0.8284" stop-color="#FFF1A3"/>
<stop offset="0.857" stop-color="#F7E398"/>
<stop offset="0.911" stop-color="#E1BF7C"/>
<stop offset="0.984" stop-color="#BE844F"/>
<stop offset="0.9972" stop-color="#B77946"/>
</linearGradient>
<linearGradient id="paint74_linear_2148_18742" x1="154.154" y1="125.401" x2="154.024" y2="91.0854" gradientUnits="userSpaceOnUse">
<stop stop-color="#B77946"/>
<stop offset="0.2364" stop-color="#FFE794"/>
<stop offset="0.2662" stop-color="#FBDA85"/>
<stop offset="0.3249" stop-color="#F5C76E"/>
<stop offset="0.3877" stop-color="#F0B95D"/>
<stop offset="0.4568" stop-color="#EEB153"/>
<stop offset="0.5447" stop-color="#EDAE50"/>
<stop offset="0.644" stop-color="#EEB052"/>
<stop offset="0.6982" stop-color="#EFB65A"/>
<stop offset="0.7415" stop-color="#F2C168"/>
<stop offset="0.779" stop-color="#F6D17B"/>
<stop offset="0.8125" stop-color="#FCE594"/>
<stop offset="0.8284" stop-color="#FFF1A3"/>
<stop offset="0.857" stop-color="#F7E398"/>
<stop offset="0.911" stop-color="#E1BF7C"/>
<stop offset="0.984" stop-color="#BE844F"/>
<stop offset="0.9972" stop-color="#B77946"/>
</linearGradient>
<linearGradient id="paint75_linear_2148_18742" x1="154.347" y1="135.618" x2="154.086" y2="123.614" gradientUnits="userSpaceOnUse">
<stop offset="0.002793" stop-color="#B77946" stop-opacity="0"/>
<stop offset="0.9274" stop-color="#B77946"/>
</linearGradient>
<linearGradient id="paint76_linear_2148_18742" x1="159.286" y1="88.2998" x2="166.593" y2="108.915" gradientUnits="userSpaceOnUse">
<stop stop-color="#B77946"/>
<stop offset="0.2364" stop-color="#FFE794"/>
<stop offset="0.2662" stop-color="#FBDA85"/>
<stop offset="0.3249" stop-color="#F5C76E"/>
<stop offset="0.3877" stop-color="#F0B95D"/>
<stop offset="0.4568" stop-color="#EEB153"/>
<stop offset="0.5447" stop-color="#EDAE50"/>
<stop offset="0.644" stop-color="#EEB052"/>
<stop offset="0.6982" stop-color="#EFB65A"/>
<stop offset="0.7415" stop-color="#F2C168"/>
<stop offset="0.779" stop-color="#F6D17B"/>
<stop offset="0.8125" stop-color="#FCE594"/>
<stop offset="0.8284" stop-color="#FFF1A3"/>
<stop offset="0.857" stop-color="#F7E398"/>
<stop offset="0.911" stop-color="#E1BF7C"/>
<stop offset="0.984" stop-color="#BE844F"/>
<stop offset="0.9972" stop-color="#B77946"/>
</linearGradient>
<linearGradient id="paint77_linear_2148_18742" x1="161.05" y1="92.7391" x2="164.964" y2="107.157" gradientUnits="userSpaceOnUse">
<stop stop-color="#B77946"/>
<stop offset="0.2364" stop-color="#FFE794"/>
<stop offset="0.2662" stop-color="#FBDA85"/>
<stop offset="0.3249" stop-color="#F5C76E"/>
<stop offset="0.3877" stop-color="#F0B95D"/>
<stop offset="0.4568" stop-color="#EEB153"/>
<stop offset="0.5447" stop-color="#EDAE50"/>
<stop offset="0.644" stop-color="#EEB052"/>
<stop offset="0.6982" stop-color="#EFB65A"/>
<stop offset="0.7415" stop-color="#F2C168"/>
<stop offset="0.779" stop-color="#F6D17B"/>
<stop offset="0.8125" stop-color="#FCE594"/>
<stop offset="0.8284" stop-color="#FFF1A3"/>
<stop offset="0.857" stop-color="#F7E398"/>
<stop offset="0.911" stop-color="#E1BF7C"/>
<stop offset="0.984" stop-color="#BE844F"/>
<stop offset="0.9972" stop-color="#B77946"/>
</linearGradient>
<linearGradient id="paint78_linear_2148_18742" x1="157.46" y1="102.532" x2="165.549" y2="95.356" gradientUnits="userSpaceOnUse">
<stop stop-color="#B77946"/>
<stop offset="0.2364" stop-color="#FFE794"/>
<stop offset="0.2662" stop-color="#FBDA85"/>
<stop offset="0.3249" stop-color="#F5C76E"/>
<stop offset="0.3877" stop-color="#F0B95D"/>
<stop offset="0.4568" stop-color="#EEB153"/>
<stop offset="0.5447" stop-color="#EDAE50"/>
<stop offset="0.644" stop-color="#EEB052"/>
<stop offset="0.6982" stop-color="#EFB65A"/>
<stop offset="0.7415" stop-color="#F2C168"/>
<stop offset="0.779" stop-color="#F6D17B"/>
<stop offset="0.8125" stop-color="#FCE594"/>
<stop offset="0.8284" stop-color="#FFF1A3"/>
<stop offset="0.857" stop-color="#F7E398"/>
<stop offset="0.911" stop-color="#E1BF7C"/>
<stop offset="0.984" stop-color="#BE844F"/>
<stop offset="0.9972" stop-color="#B77946"/>
</linearGradient>
<linearGradient id="paint79_linear_2148_18742" x1="161.238" y1="96.3543" x2="165.021" y2="102.552" gradientUnits="userSpaceOnUse">
<stop stop-color="#B77946"/>
<stop offset="0.2364" stop-color="#FFE794"/>
<stop offset="0.2662" stop-color="#FBDA85"/>
<stop offset="0.3249" stop-color="#F5C76E"/>
<stop offset="0.3877" stop-color="#F0B95D"/>
<stop offset="0.4568" stop-color="#EEB153"/>
<stop offset="0.5447" stop-color="#EDAE50"/>
<stop offset="0.644" stop-color="#EEB052"/>
<stop offset="0.6982" stop-color="#EFB65A"/>
<stop offset="0.7415" stop-color="#F2C168"/>
<stop offset="0.779" stop-color="#F6D17B"/>
<stop offset="0.8125" stop-color="#FCE594"/>
<stop offset="0.8284" stop-color="#FFF1A3"/>
<stop offset="0.857" stop-color="#F7E398"/>
<stop offset="0.911" stop-color="#E1BF7C"/>
<stop offset="0.984" stop-color="#BE844F"/>
<stop offset="0.9972" stop-color="#B77946"/>
</linearGradient>
<linearGradient id="paint80_linear_2148_18742" x1="162.566" y1="99.5469" x2="166.089" y2="101.178" gradientUnits="userSpaceOnUse">
<stop offset="0.002793" stop-color="#B77946" stop-opacity="0"/>
<stop offset="0.9274" stop-color="#B77946"/>
</linearGradient>
<radialGradient id="paint81_radial_2148_18742" cx="0" cy="0" r="1" gradientUnits="userSpaceOnUse" gradientTransform="translate(49.7359 79.8299) rotate(-12.0515) scale(15.7323 15.7323)">
<stop stop-color="#F3E8DE"/>
<stop offset="0.5391" stop-color="#F6EEE7" stop-opacity="0.3616"/>
<stop offset="0.9624" stop-color="#F8F1EB" stop-opacity="0"/>
</radialGradient>
<radialGradient id="paint82_radial_2148_18742" cx="0" cy="0" r="1" gradientUnits="userSpaceOnUse" gradientTransform="translate(150.064 109.362) rotate(-12.0515) scale(15.7323 15.7323)">
<stop stop-color="#F3E8DE"/>
<stop offset="0.5391" stop-color="#F6EEE7" stop-opacity="0.3616"/>
<stop offset="0.9624" stop-color="#F8F1EB" stop-opacity="0"/>
</radialGradient>
<radialGradient id="paint83_radial_2148_18742" cx="0" cy="0" r="1" gradientUnits="userSpaceOnUse" gradientTransform="translate(68.8256 34.7315) rotate(-12.0515) scale(15.7323 15.7323)">
<stop stop-color="#F3E8DE"/>
<stop offset="0.5391" stop-color="#F6EEE7" stop-opacity="0.3616"/>
<stop offset="0.9624" stop-color="#F8F1EB" stop-opacity="0"/>
</radialGradient>
<radialGradient id="paint84_radial_2148_18742" cx="0" cy="0" r="1" gradientUnits="userSpaceOnUse" gradientTransform="translate(42.756 103.268) rotate(-12.0515) scale(7.2826)">
<stop stop-color="#F3E8DE"/>
<stop offset="0.5391" stop-color="#F6EEE7" stop-opacity="0.3616"/>
<stop offset="0.9624" stop-color="#F8F1EB" stop-opacity="0"/>
</radialGradient>
</defs>
</svg>
