<svg width="121" height="126" viewBox="0 0 121 126" fill="none" xmlns="http://www.w3.org/2000/svg">
<path d="M119.766 57.54C116.066 98.58 61.5355 125.54 61.5355 125.54C61.5355 125.54 7.01555 98.59 3.31555 57.54C-0.384454 16.5 29.6756 8.22998 29.6756 8.22998C33.9656 23.24 61.5255 8.22998 61.5255 8.22998C61.5255 8.22998 89.0955 23.24 93.3755 8.22998C93.3955 8.22998 123.466 16.5 119.766 57.54Z" fill="url(#paint0_linear_2148_18526)"/>
<path d="M61.5464 85.34V125.54C61.5464 125.54 7.02643 98.59 3.32643 57.55C-0.353569 16.81 29.2464 8.36 29.6764 8.25C29.5264 8.44 27.1164 11.65 26.8864 17.29C19.9564 21.33 8.18643 31.95 10.4464 56.92C12.1264 75.54 26.0664 91.29 39.4064 102.28C41.5664 104.07 44.7564 103.83 46.6364 101.75L61.5464 85.34Z" fill="url(#paint1_linear_2148_18526)"/>
<path d="M61.5448 8.22998V16.22C56.7348 18.47 47.8148 22.05 39.8548 22.05C34.4448 22.05 29.9948 20.37 26.8848 17.28C27.1248 11.65 29.5348 8.43999 29.6748 8.23999C29.6848 8.22999 29.6848 8.22998 29.6848 8.22998C33.9748 23.24 61.5448 8.22998 61.5448 8.22998Z" fill="url(#paint2_linear_2148_18526)"/>
<path d="M96.1949 17.2702C93.0849 20.3602 88.6349 22.0402 83.2249 22.0402C75.2649 22.0402 66.3549 18.4602 61.5449 16.2102V8.22021C61.5449 8.22021 89.1049 23.2302 93.3949 8.22021C93.3949 8.22021 93.3949 8.22021 93.4049 8.23021C93.5449 8.43021 95.9549 11.6402 96.1949 17.2702Z" fill="url(#paint3_linear_2148_18526)"/>
<path d="M119.765 57.54C116.065 98.59 61.5352 125.53 61.5352 125.53V85.33L76.4651 101.75C78.3451 103.83 81.5352 104.06 83.6952 102.28C97.0152 91.3 110.955 75.57 112.635 56.9C114.895 31.91 103.095 21.29 96.1852 17.27C95.9452 11.64 93.5352 8.42998 93.3852 8.22998C93.8252 8.34998 123.445 16.8 119.765 57.54Z" fill="url(#paint4_linear_2148_18526)"/>
<path d="M119.765 57.54C116.065 98.59 61.5352 125.53 61.5352 125.53V85.33L76.4651 101.75C78.3451 103.83 81.5352 104.06 83.6952 102.28C97.0152 91.3 110.955 75.57 112.635 56.9C114.895 31.91 103.095 21.29 96.1852 17.27C95.9452 11.64 93.5352 8.42998 93.3852 8.22998C93.8252 8.34998 123.445 16.8 119.765 57.54Z" fill="url(#paint5_linear_2148_18526)"/>
<path d="M96.1959 17.27C93.0859 20.36 88.6359 22.04 83.2259 22.04C75.2659 22.04 66.3559 18.46 61.5459 16.21C56.7359 18.46 47.8159 22.04 39.8559 22.04C34.4459 22.04 29.9959 20.36 26.8859 17.27C19.9559 21.31 8.18591 31.93 10.4459 56.9C12.1259 75.51 26.0459 91.25 39.3759 102.24C41.5559 104.03 44.7459 103.82 46.6359 101.74L60.0859 86.9399C60.8659 86.0799 62.2159 86.0799 62.9859 86.9399L76.4659 101.76C78.3659 103.85 81.5559 104.06 83.7259 102.26C97.0359 91.2799 110.956 75.55 112.636 56.9C114.906 31.91 103.106 21.29 96.1959 17.27Z" fill="url(#paint6_linear_2148_18526)"/>
<path d="M96.1959 17.27C93.0859 20.36 88.6359 22.04 83.2259 22.04C75.2659 22.04 66.3559 18.46 61.5459 16.21C56.7359 18.46 47.8159 22.04 39.8559 22.04C34.4459 22.04 29.9959 20.36 26.8859 17.27C19.9559 21.31 8.18591 31.93 10.4459 56.9C12.1259 75.51 26.0459 91.25 39.3759 102.24C41.5559 104.03 44.7459 103.82 46.6359 101.74L60.0859 86.9399C60.8659 86.0799 62.2159 86.0799 62.9859 86.9399L76.4659 101.76C78.3659 103.85 81.5559 104.06 83.7259 102.26C97.0359 91.2799 110.956 75.55 112.636 56.9C114.906 31.91 103.106 21.29 96.1959 17.27Z" stroke="url(#paint7_linear_2148_18526)" stroke-width="0.8119" stroke-miterlimit="10"/>
<path d="M80.3654 101.48C79.4354 101.48 78.5754 101.1 77.9554 100.41L64.4754 85.5902C63.7254 84.7702 62.6554 84.2901 61.5454 84.2901C60.4354 84.2901 59.3654 84.7602 58.6154 85.5902L45.1654 100.38C44.5354 101.07 43.6854 101.45 42.7554 101.45C41.9954 101.45 41.2454 101.18 40.6554 100.69C28.7054 90.8401 14.1154 75.2102 12.4454 56.7202C10.4254 34.4102 19.9554 24.1501 26.6654 19.7601C30.0854 22.5701 34.6054 24.0402 39.8554 24.0402C47.7954 24.0402 56.5454 20.6802 61.5454 18.4102C66.5454 20.6802 75.3054 24.0402 83.2254 24.0402C88.4854 24.0402 93.0054 22.5602 96.4254 19.7502C103.135 24.1302 112.675 34.3702 110.655 56.7102C108.985 75.2402 94.4054 90.8702 82.4654 100.71C81.8654 101.21 81.1254 101.48 80.3654 101.48Z" fill="url(#paint8_radial_2148_18526)"/>
<path d="M96.4865 22.2299C92.8865 24.7299 88.3365 26.0499 83.2365 26.0499C75.5865 26.0499 67.3665 23.1799 61.5565 20.6099C55.7365 23.1699 47.5165 26.0499 39.8665 26.0499C34.7665 26.0499 30.2265 24.7399 26.6265 22.2299C19.8265 27.1799 12.6865 37.0599 14.4465 56.5399C14.8165 60.6599 15.8765 64.6399 17.4065 68.4499C47.6865 61.2799 78.1265 47.2399 101.217 26.5799C99.6865 24.8199 98.0765 23.3799 96.4865 22.2299Z" fill="url(#paint9_radial_2148_18526)"/>
<path d="M17.3867 68.4498C22.4867 81.0798 32.9567 91.7699 41.9167 99.1499C42.1467 99.3399 42.4467 99.4498 42.7467 99.4498C43.1167 99.4498 43.4367 99.3098 43.6767 99.0398L57.1267 84.2499C58.2567 83.0099 59.8667 82.2999 61.5367 82.2999C63.2067 82.2999 64.8167 83.0099 65.9467 84.2499L79.4267 99.0698C79.6767 99.3398 79.9967 99.4798 80.3567 99.4798C80.6567 99.4798 80.9467 99.3699 81.1867 99.1799C92.8367 89.5799 107.047 74.3899 108.657 56.5499C110.007 41.6099 106.127 32.3398 101.187 26.5898C78.1167 47.2398 47.6667 61.2698 17.3867 68.4498Z" fill="url(#paint10_radial_2148_18526)"/>
<path d="M63.9658 114.26L69.3758 107.53C70.2958 106.38 70.2858 104.74 69.3458 103.6L63.9358 97.0698C62.6958 95.5698 60.3958 95.5698 59.1558 97.0698L53.7458 103.6C52.8058 104.74 52.7958 106.38 53.7158 107.53L59.1258 114.26C60.3658 115.8 62.7158 115.8 63.9658 114.26Z" fill="url(#paint11_linear_2148_18526)"/>
<path d="M61.5458 113.42C61.3458 113.42 60.9758 113.37 60.6858 113.01L55.2758 106.28C54.9458 105.87 54.9558 105.28 55.2858 104.88L60.6958 98.3497C60.9858 97.9997 61.3558 97.9497 61.5458 97.9497C61.7358 97.9497 62.1058 97.9997 62.3958 98.3497L67.8058 104.88C68.1358 105.28 68.1458 105.87 67.8158 106.28L62.4058 113.01C62.1158 113.36 61.7358 113.42 61.5458 113.42Z" fill="url(#paint12_radial_2148_18526)"/>
<path d="M61.6257 98.98H61.4657L56.0557 105.51C56.0257 105.55 56.0257 105.61 56.0557 105.64L57.0157 106.83C60.0957 106.28 63.0057 105.3 65.6257 103.79L61.6257 98.98Z" fill="url(#paint13_radial_2148_18526)"/>
<path d="M61.5458 113.42C61.3458 113.42 60.9758 113.37 60.6858 113.01L55.2758 106.28C54.9458 105.87 54.9558 105.28 55.2858 104.88L60.6958 98.3497C60.9858 97.9997 61.3558 97.9497 61.5458 97.9497C61.7358 97.9497 62.1058 97.9997 62.3958 98.3497L67.8058 104.88C68.1358 105.28 68.1458 105.87 67.8158 106.28L62.4058 113.01C62.1158 113.36 61.7358 113.42 61.5458 113.42Z" stroke="url(#paint14_linear_2148_18526)" stroke-width="0.5" stroke-miterlimit="10"/>
<path d="M31.7155 47.22C44.7549 47.22 55.3255 36.6494 55.3255 23.61C55.3255 10.5706 44.7549 0 31.7155 0C18.676 0 8.10547 10.5706 8.10547 23.61C8.10547 36.6494 18.676 47.22 31.7155 47.22Z" fill="url(#paint15_radial_2148_18526)"/>
<path d="M58.6854 118.1C69.8195 118.1 78.8454 109.074 78.8454 97.9398C78.8454 86.8057 69.8195 77.7798 58.6854 77.7798C47.5513 77.7798 38.5254 86.8057 38.5254 97.9398C38.5254 109.074 47.5513 118.1 58.6854 118.1Z" fill="url(#paint16_radial_2148_18526)"/>
<path d="M62.3452 79.538C58.0845 79.538 54.7222 78.1007 52.2582 75.226C49.7942 72.3 47.9719 68.4243 46.7912 63.599L49.4092 62.752C50.7439 65.7293 52.1299 67.7827 53.5672 68.912C55.0559 69.99 57.1349 70.529 59.8042 70.529C62.6275 70.529 64.7322 69.5793 66.1182 67.68C67.5042 65.7293 68.1972 63.291 68.1972 60.365C68.1972 59.0303 67.9919 58.0037 67.5812 57.285C67.1705 56.5663 66.6829 56.207 66.1182 56.207C65.3482 56.207 64.4499 56.3867 63.4232 56.746C62.4479 57.1053 61.4725 57.5417 60.4972 58.055C59.5219 58.517 58.6749 58.9277 57.9562 59.287C57.2889 59.6463 56.8782 59.826 56.7242 59.826C56.4675 59.826 55.9285 59.5693 55.1072 59.056C54.2859 58.5427 53.4132 57.9523 52.4892 57.285C51.5652 56.5663 50.7439 55.899 50.0252 55.283C49.3579 54.6157 49.0242 54.1537 49.0242 53.897C49.0242 51.741 49.0499 49.585 49.1012 47.429C49.1525 45.2217 49.2295 43.2453 49.3322 41.5C49.4862 39.7033 49.6915 38.3173 49.9482 37.342L46.4062 32.106L46.9452 30.797H70.5072L74.3572 36.264L70.5072 39.575H69.0442C68.4795 38.7023 67.7865 38.0863 66.9652 37.727C66.1439 37.3677 64.7579 37.188 62.8072 37.188H57.7252C57.1605 38.266 56.7755 40.1397 56.5702 42.809C56.4162 45.427 56.3392 48.2503 56.3392 51.279C57.2632 50.817 58.3155 50.355 59.4962 49.893C60.7282 49.3797 61.8832 48.9433 62.9612 48.584C64.0392 48.2247 64.8349 48.045 65.3482 48.045C66.4262 48.045 67.6325 48.7893 68.9672 50.278C70.3532 51.7153 71.5339 53.743 72.5092 56.361C73.4845 58.9277 73.9722 61.9563 73.9722 65.447C73.9722 69.9643 73.0225 73.455 71.1232 75.919C69.2239 78.3317 66.2979 79.538 62.3452 79.538Z" fill="url(#paint17_radial_2148_18526)"/>
<defs>
<linearGradient id="paint0_linear_2148_18526" x1="3.00635" y1="66.8821" x2="120.082" y2="66.8821" gradientUnits="userSpaceOnUse">
<stop stop-color="#B77946"/>
<stop offset="0.2364" stop-color="#FFE794"/>
<stop offset="0.2662" stop-color="#FBDA85"/>
<stop offset="0.3249" stop-color="#F5C76E"/>
<stop offset="0.3877" stop-color="#F0B95D"/>
<stop offset="0.4568" stop-color="#EEB153"/>
<stop offset="0.5447" stop-color="#EDAE50"/>
<stop offset="0.644" stop-color="#EEB052"/>
<stop offset="0.6982" stop-color="#EFB65A"/>
<stop offset="0.7415" stop-color="#F2C168"/>
<stop offset="0.779" stop-color="#F6D17B"/>
<stop offset="0.8125" stop-color="#FCE594"/>
<stop offset="0.8284" stop-color="#FFF1A3"/>
<stop offset="0.857" stop-color="#F7E398"/>
<stop offset="0.911" stop-color="#E1BF7C"/>
<stop offset="0.984" stop-color="#BE844F"/>
<stop offset="0.9972" stop-color="#B77946"/>
</linearGradient>
<linearGradient id="paint1_linear_2148_18526" x1="23.0476" y1="145.436" x2="47.8352" y2="-15.0938" gradientUnits="userSpaceOnUse">
<stop stop-color="#B77946"/>
<stop offset="0.2364" stop-color="#FFE794"/>
<stop offset="0.2662" stop-color="#FBDA85"/>
<stop offset="0.3249" stop-color="#F5C76E"/>
<stop offset="0.3877" stop-color="#F0B95D"/>
<stop offset="0.4568" stop-color="#EEB153"/>
<stop offset="0.5447" stop-color="#EDAE50"/>
<stop offset="0.644" stop-color="#EEB052"/>
<stop offset="0.6982" stop-color="#EFB65A"/>
<stop offset="0.7415" stop-color="#F2C168"/>
<stop offset="0.779" stop-color="#F6D17B"/>
<stop offset="0.8125" stop-color="#FCE594"/>
<stop offset="0.8284" stop-color="#FFF1A3"/>
<stop offset="0.857" stop-color="#F7E398"/>
<stop offset="0.911" stop-color="#E1BF7C"/>
<stop offset="0.984" stop-color="#BE844F"/>
<stop offset="0.9972" stop-color="#B77946"/>
</linearGradient>
<linearGradient id="paint2_linear_2148_18526" x1="69.5788" y1="14.7785" x2="30.598" y2="15.1804" gradientUnits="userSpaceOnUse">
<stop stop-color="#B77946"/>
<stop offset="0.2364" stop-color="#FFE794"/>
<stop offset="0.2662" stop-color="#FBDA85"/>
<stop offset="0.3249" stop-color="#F5C76E"/>
<stop offset="0.3877" stop-color="#F0B95D"/>
<stop offset="0.4568" stop-color="#EEB153"/>
<stop offset="0.5447" stop-color="#EDAE50"/>
<stop offset="0.638" stop-color="#F4C870"/>
<stop offset="0.7624" stop-color="#FCE695"/>
<stop offset="0.8284" stop-color="#FFF1A3"/>
<stop offset="0.857" stop-color="#F7E398"/>
<stop offset="0.911" stop-color="#E1BF7C"/>
<stop offset="0.984" stop-color="#BE844F"/>
<stop offset="0.9972" stop-color="#B77946"/>
</linearGradient>
<linearGradient id="paint3_linear_2148_18526" x1="61.5411" y1="15.1369" x2="98.1083" y2="15.1369" gradientUnits="userSpaceOnUse">
<stop stop-color="#B77946"/>
<stop offset="0.3662" stop-color="#FFE794"/>
<stop offset="0.473" stop-color="#F6C970"/>
<stop offset="0.5644" stop-color="#EFB559"/>
<stop offset="0.6212" stop-color="#EDAE50"/>
<stop offset="0.6717" stop-color="#F0BA5F"/>
<stop offset="0.7689" stop-color="#F9DB87"/>
<stop offset="0.8284" stop-color="#FFF1A3"/>
<stop offset="0.857" stop-color="#F7E398"/>
<stop offset="0.911" stop-color="#E1BF7C"/>
<stop offset="0.984" stop-color="#BE844F"/>
<stop offset="0.9972" stop-color="#B77946"/>
</linearGradient>
<linearGradient id="paint4_linear_2148_18526" x1="120.838" y1="148.529" x2="65.1232" y2="25.1001" gradientUnits="userSpaceOnUse">
<stop stop-color="#B77946"/>
<stop offset="0.2364" stop-color="#FFE794"/>
<stop offset="0.2662" stop-color="#FBDA85"/>
<stop offset="0.3249" stop-color="#F5C76E"/>
<stop offset="0.3877" stop-color="#F0B95D"/>
<stop offset="0.4568" stop-color="#EEB153"/>
<stop offset="0.5447" stop-color="#EDAE50"/>
<stop offset="0.644" stop-color="#EEB052"/>
<stop offset="0.6982" stop-color="#EFB65A"/>
<stop offset="0.7415" stop-color="#F2C168"/>
<stop offset="0.779" stop-color="#F6D17B"/>
<stop offset="0.8125" stop-color="#FCE594"/>
<stop offset="0.8284" stop-color="#FFF1A3"/>
<stop offset="0.857" stop-color="#F7E398"/>
<stop offset="0.911" stop-color="#E1BF7C"/>
<stop offset="0.984" stop-color="#BE844F"/>
<stop offset="0.9972" stop-color="#B77946"/>
</linearGradient>
<linearGradient id="paint5_linear_2148_18526" x1="120.838" y1="148.529" x2="65.1232" y2="25.1001" gradientUnits="userSpaceOnUse">
<stop offset="0.002793" stop-color="#B77946" stop-opacity="0"/>
<stop offset="0.9274" stop-color="#B77946"/>
</linearGradient>
<linearGradient id="paint6_linear_2148_18526" x1="10.1605" y1="59.8458" x2="112.931" y2="59.8458" gradientUnits="userSpaceOnUse">
<stop stop-color="#613F1B"/>
<stop offset="0.5447" stop-color="#EDAE50"/>
<stop offset="0.5887" stop-color="#E0A24E"/>
<stop offset="0.6692" stop-color="#BF8148"/>
<stop offset="0.6872" stop-color="#B77946"/>
<stop offset="0.728" stop-color="#B87B48"/>
<stop offset="0.7503" stop-color="#BD834E"/>
<stop offset="0.7681" stop-color="#C59159"/>
<stop offset="0.7835" stop-color="#D1A468"/>
<stop offset="0.7974" stop-color="#E0BE7B"/>
<stop offset="0.8101" stop-color="#F2DC93"/>
<stop offset="0.8172" stop-color="#FFF1A3"/>
<stop offset="0.9972" stop-color="#B77946"/>
</linearGradient>
<linearGradient id="paint7_linear_2148_18526" x1="9.75461" y1="59.8248" x2="113.337" y2="59.8248" gradientUnits="userSpaceOnUse">
<stop stop-color="#B77946"/>
<stop offset="0.2364" stop-color="#FFE794"/>
<stop offset="0.2662" stop-color="#FBDA85"/>
<stop offset="0.3249" stop-color="#F5C76E"/>
<stop offset="0.3877" stop-color="#F0B95D"/>
<stop offset="0.4568" stop-color="#EEB153"/>
<stop offset="0.5447" stop-color="#EDAE50"/>
<stop offset="0.644" stop-color="#EEB052"/>
<stop offset="0.6982" stop-color="#EFB65A"/>
<stop offset="0.7415" stop-color="#F2C168"/>
<stop offset="0.779" stop-color="#F6D17B"/>
<stop offset="0.8125" stop-color="#FCE594"/>
<stop offset="0.8284" stop-color="#FFF1A3"/>
<stop offset="0.857" stop-color="#F7E398"/>
<stop offset="0.911" stop-color="#E1BF7C"/>
<stop offset="0.984" stop-color="#BE844F"/>
<stop offset="0.9972" stop-color="#B77946"/>
</linearGradient>
<radialGradient id="paint8_radial_2148_18526" cx="0" cy="0" r="1" gradientUnits="userSpaceOnUse" gradientTransform="translate(103.898 99.1851) scale(153.97 153.97)">
<stop stop-color="#593B22"/>
<stop offset="0.1525" stop-color="#402B18"/>
<stop offset="0.3634" stop-color="#24180E"/>
<stop offset="0.5755" stop-color="#100B06"/>
<stop offset="0.7876" stop-color="#040402"/>
<stop offset="1" stop-color="#000100"/>
</radialGradient>
<radialGradient id="paint9_radial_2148_18526" cx="0" cy="0" r="1" gradientUnits="userSpaceOnUse" gradientTransform="translate(32.8766 -13.9595) scale(92.3886 92.3886)">
<stop stop-color="#55BAFF"/>
<stop offset="0.0216" stop-color="#59BBFE" stop-opacity="0.9767"/>
<stop offset="0.4634" stop-color="#ADD8F2" stop-opacity="0.5005"/>
<stop offset="0.7756" stop-color="#E1E9EB" stop-opacity="0.1639"/>
<stop offset="0.9277" stop-color="#F5F0E8" stop-opacity="0"/>
</radialGradient>
<radialGradient id="paint10_radial_2148_18526" cx="0" cy="0" r="1" gradientUnits="userSpaceOnUse" gradientTransform="translate(115.591 115.041) scale(96.0863 96.0863)">
<stop stop-color="#EDAE50"/>
<stop offset="0.1105" stop-color="#DFA44B" stop-opacity="0.8892"/>
<stop offset="0.3188" stop-color="#BB893F" stop-opacity="0.6803"/>
<stop offset="0.6028" stop-color="#805D2C" stop-opacity="0.3955"/>
<stop offset="0.9483" stop-color="#2F2111" stop-opacity="0.0491"/>
<stop offset="0.9972" stop-color="#23180D" stop-opacity="0"/>
</radialGradient>
<linearGradient id="paint11_linear_2148_18526" x1="53.0262" y1="105.679" x2="74.0215" y2="105.679" gradientUnits="userSpaceOnUse">
<stop stop-color="#613F1B"/>
<stop offset="0.4207" stop-color="#EDAE50"/>
<stop offset="0.4684" stop-color="#F0B85D"/>
<stop offset="0.5556" stop-color="#F7D37E"/>
<stop offset="0.6388" stop-color="#FFF1A3"/>
<stop offset="0.6934" stop-color="#FCEB9F"/>
<stop offset="0.7643" stop-color="#F2DB92"/>
<stop offset="0.8443" stop-color="#E2C07D"/>
<stop offset="0.9302" stop-color="#CB9B60"/>
<stop offset="0.9972" stop-color="#B77946"/>
</linearGradient>
<radialGradient id="paint12_radial_2148_18526" cx="0" cy="0" r="1" gradientUnits="userSpaceOnUse" gradientTransform="translate(58.9557 101.837) scale(13.5978 13.5978)">
<stop stop-color="#FEFEFE"/>
<stop offset="0.3868" stop-color="#EBDFD2"/>
<stop offset="0.7903" stop-color="#DAC3AA"/>
<stop offset="1" stop-color="#D4B89B"/>
</radialGradient>
<radialGradient id="paint13_radial_2148_18526" cx="0" cy="0" r="1" gradientUnits="userSpaceOnUse" gradientTransform="translate(61.9116 101.112) scale(12.1293)">
<stop stop-color="#FAF7F4"/>
<stop offset="0.9972" stop-color="#F5F0E8" stop-opacity="0"/>
</radialGradient>
<linearGradient id="paint14_linear_2148_18526" x1="54.7769" y1="105.679" x2="68.3071" y2="105.679" gradientUnits="userSpaceOnUse">
<stop stop-color="#B77946"/>
<stop offset="0.1034" stop-color="#EDAE50"/>
<stop offset="0.1954" stop-color="#E2A54D"/>
<stop offset="0.355" stop-color="#C68E45"/>
<stop offset="0.5617" stop-color="#996839"/>
<stop offset="0.6341" stop-color="#875934"/>
<stop offset="0.6378" stop-color="#8A5D37"/>
<stop offset="0.6745" stop-color="#A98454"/>
<stop offset="0.7138" stop-color="#C4A66C"/>
<stop offset="0.7555" stop-color="#D9C180"/>
<stop offset="0.8006" stop-color="#EAD790"/>
<stop offset="0.8507" stop-color="#F6E69B"/>
<stop offset="0.9097" stop-color="#FDEEA1"/>
<stop offset="1" stop-color="#FFF1A3"/>
</linearGradient>
<radialGradient id="paint15_radial_2148_18526" cx="0" cy="0" r="1" gradientUnits="userSpaceOnUse" gradientTransform="translate(31.7138 23.6148) rotate(-12.0515) scale(23.6142)">
<stop stop-color="#F3E8DE"/>
<stop offset="0.5391" stop-color="#F6EEE7" stop-opacity="0.3616"/>
<stop offset="0.9624" stop-color="#F8F1EB" stop-opacity="0"/>
</radialGradient>
<radialGradient id="paint16_radial_2148_18526" cx="0" cy="0" r="1" gradientUnits="userSpaceOnUse" gradientTransform="translate(58.6823 97.9428) rotate(-12.0515) scale(20.1572 20.1572)">
<stop stop-color="#F3E8DE"/>
<stop offset="0.5391" stop-color="#F6EEE7" stop-opacity="0.3616"/>
<stop offset="0.9624" stop-color="#F8F1EB" stop-opacity="0"/>
</radialGradient>
<radialGradient id="paint17_radial_2148_18526" cx="0" cy="0" r="1" gradientUnits="userSpaceOnUse" gradientTransform="translate(62.5 49.5) rotate(86.8241) scale(18.0498 7.0533)">
<stop stop-color="#F4EDE6"/>
<stop offset="0.366" stop-color="#F3EBE3"/>
<stop offset="0.981" stop-color="#DCC7AF"/>
</radialGradient>
</defs>
</svg>
